<?xml version="1.0" encoding="UTF-8"?> <svg xmlns="http://www.w3.org/2000/svg" width="108" height="82" viewBox="0 0 108 82" fill="none"><path d="M49.96 60.276C49.96 48.132 42.232 39.3 28.432 39.3C25.672 39.3 22.912 40.404 22.36 40.68C23.188 27.984 36.16 20.532 45.82 19.428V0.659991C27.604 2.03999 0.556 15.564 0.556 53.652C0.556 67.728 9.664 81.528 26.224 81.528C40.024 81.528 49.96 71.868 49.96 60.276ZM107.92 60.276C107.92 48.132 100.192 39.3 86.392 39.3C83.632 39.3 80.872 40.404 80.32 40.68C81.148 27.984 94.12 20.532 103.78 19.428V0.659991C85.564 2.03999 58.792 15.564 58.792 53.652C58.792 67.728 67.624 81.528 84.184 81.528C97.984 81.528 107.92 71.868 107.92 60.276Z" fill="#FCC200"></path></svg> 