<svg width="22" height="22" viewBox="0 0 22 22" fill="none" xmlns="http://www.w3.org/2000/svg">
<path d="M4.89648 21.8745H0.361328V7.27002H4.89648V21.8745ZM2.62646 5.27783C1.17627 5.27783 0 4.07666 0 2.62646C1.03799e-08 1.92988 0.276716 1.26183 0.769274 0.769274C1.26183 0.276716 1.92988 0 2.62646 0C3.32305 0 3.9911 0.276716 4.48366 0.769274C4.97621 1.26183 5.25293 1.92988 5.25293 2.62646C5.25293 4.07666 4.07617 5.27783 2.62646 5.27783ZM21.8701 21.8745H17.3447V14.7651C17.3447 13.0708 17.3105 10.8979 14.9868 10.8979C12.6289 10.8979 12.2676 12.7388 12.2676 14.6431V21.8745H7.73731V7.27002H12.0869V9.26221H12.1504C12.7559 8.11475 14.2349 6.90381 16.4414 6.90381C21.0313 6.90381 21.875 9.92627 21.875 13.8521V21.8745H21.8701Z" fill="white"/>
</svg>
