<svg width="24" height="17" viewBox="0 0 24 17" fill="none" xmlns="http://www.w3.org/2000/svg">
<path d="M23.2084 2.60777C22.9358 1.58129 22.1326 0.772873 21.1128 0.498524C19.2642 0 11.8519 0 11.8519 0C11.8519 0 4.43954 0 2.59097 0.498524C1.57114 0.772917 0.767925 1.58129 0.495312 2.60777C0 4.46832 0 8.35017 0 8.35017C0 8.35017 0 12.232 0.495312 14.0926C0.767925 15.1191 1.57114 15.8938 2.59097 16.1681C4.43954 16.6667 11.8519 16.6667 11.8519 16.6667C11.8519 16.6667 19.2642 16.6667 21.1128 16.1681C22.1326 15.8938 22.9358 15.1191 23.2084 14.0926C23.7037 12.232 23.7037 8.35017 23.7037 8.35017C23.7037 8.35017 23.7037 4.46832 23.2084 2.60777V2.60777ZM9.4276 11.8746V4.82574L15.6229 8.35026L9.4276 11.8746V11.8746Z" fill="white"/>
</svg>
