<?xml version="1.0" encoding="UTF-8"?> <!-- Generator: Adobe Illustrator 24.3.0, SVG Export Plug-In . SVG Version: 6.00 Build 0) --> <svg xmlns="http://www.w3.org/2000/svg" xmlns:xlink="http://www.w3.org/1999/xlink" version="1.1" id="Camada_1" x="0px" y="0px" viewBox="0 0 200 200" style="enable-background:new 0 0 200 200;" xml:space="preserve"> <style type="text/css"> .st0{fill:#044F9E;} .st1{fill:#E30613;} .st2{fill:#0D4F9E;} .st3{fill:#FFFFFF;} .st4{fill:#B42026;} .st5{fill:#421613;} .st6{fill:#FFD30F;} .st7{fill:#020203;} .st8{fill:#4887C7;} .st9{clip-path:url(#SVGID_2_);fill:#1867A7;} .st10{fill:#1867A7;} .st11{fill:#231F20;} .st12{fill:#EDAD0B;} .st13{fill-rule:evenodd;clip-rule:evenodd;fill:#231F20;} .st14{fill:#1683C4;} .st15{fill:#9E1925;} .st16{fill:#1C3257;} </style> <g id="layer1" transform="translate(0,-236.38712)"> <path id="path4" class="st7" d="M125.3,341.8c-3.2,0-5.9-2.6-5.9-5.9c0-3.2,2.6-5.9,5.9-5.9c3.2,0,5.9,2.6,5.9,5.9 C131.2,339.2,128.5,341.8,125.3,341.8 M125.3,326.5c-5.2,0-9.4,4.2-9.4,9.4c0,5.2,4.2,9.4,9.4,9.4c5.2,0,9.4-4.2,9.4-9.4 C134.7,330.7,130.5,326.5,125.3,326.5"></path> <path id="path6" class="st7" d="M113.8,342.2h0.8v3.5h-0.8c-4,0-7.4-3.3-7.4-7.4v-16.1h3.5v4.7h4.6v3.5H110v7.9 C110,340.5,111.7,342.2,113.8,342.2"></path> <path id="path8" class="st7" d="M156.8,341.8c-3.2,0-5.9-2.6-5.9-5.9c0-3.2,2.6-5.9,5.9-5.9s5.9,2.6,5.9,5.9 C162.7,339.2,160,341.8,156.8,341.8 M156.8,326.5c-5.2,0-9.4,4.2-9.4,9.4c0,5.2,4.2,9.4,9.4,9.4s9.4-4.2,9.4-9.4 C166.2,330.7,162,326.5,156.8,326.5"></path> <path id="path10" class="st7" d="M183.8,341.8c-3.2,0-5.9-2.6-5.9-5.9c0-3.2,2.6-5.9,5.9-5.9s5.9,2.6,5.9,5.9 C189.7,339.2,187,341.8,183.8,341.8 M183.8,326.5c-5.2,0-9.4,4.2-9.4,9.4c0,5.2,4.2,9.4,9.4,9.4c2.3,0,4.4-0.8,6-2.2v1.8h3.4v-8.8 c0-0.1,0-0.2,0-0.3C193.2,330.7,189,326.5,183.8,326.5"></path> <path id="path12" class="st7" d="M144.4,326.5h1.7v3.5h-1.7c-2.1,0-3.8,1.7-3.8,3.8v2.3v4.4v4.6H137v-11.2 C137,329.8,140.3,326.5,144.4,326.5"></path> <rect id="rect14" x="168.6" y="321.8" class="st7" width="3.5" height="23.2"></rect> <path id="path16" class="st7" d="M82.9,334.3v11.2h-3.5v-11.2c0-2.1-1.7-3.8-3.8-3.8s-3.8,1.7-3.8,3.8v11.2h-3.5v-11.2 c0-2.1-1.7-3.8-3.8-3.8c-2.1,0-3.8,1.7-3.8,3.8v11.2h-3.5v-11.2c0-4,3.3-7.4,7.3-7.4c2.3,0,4.2,1,5.6,2.6c1.4-1.6,3.3-2.6,5.6-2.6 C79.6,327,82.9,330.3,82.9,334.3"></path> <path id="path18" class="st7" d="M94.7,342.2c-3.2,0-5.9-2.6-5.9-5.9c0-3.2,2.6-5.9,5.9-5.9s5.9,2.6,5.9,5.9 C100.6,339.6,97.9,342.2,94.7,342.2 M94.7,327c-5.2,0-9.4,4.2-9.4,9.4c0,5.2,4.2,9.4,9.4,9.4c5.2,0,9.4-4.2,9.4-9.4 C104.1,331.2,99.9,327,94.7,327"></path> <path id="path20" class="st8" d="M28.1,315c-11.8,0-21.4,9.5-21.4,21.4s9.5,21.4,21.4,21.4s21.4-9.5,21.4-21.4 C49.5,324.6,40.1,315,28.1,315"></path> <path id="path22" class="st3" d="M34.5,320.3l-6.3,21l0,0l-0.1,0l-6.3-21l-8.2,26.9h1.5c0,0,1-4.7,2.7-7.5c0.9-1.5,2.3-2.8,4.2-2.7 c1.3,0,2.5,0.8,3.9,2.8c0.3,0.4,0.7,1.2,1.1,1.9c0.6,1.2,1.1,2.4,1.1,2.4s1.3-3.1,2.2-4.3c1.4-2,2.6-2.7,3.9-2.8 c1.9,0,3.3,1.2,4.2,2.7c1.7,2.8,2.7,7.5,2.7,7.5h1.5L34.5,320.3z"></path> </g> </svg> 