<?xml version="1.0" encoding="UTF-8"?> <!-- Generator: Adobe Illustrator 24.3.0, SVG Export Plug-In . SVG Version: 6.00 Build 0) --> <svg xmlns="http://www.w3.org/2000/svg" xmlns:xlink="http://www.w3.org/1999/xlink" version="1.1" id="Camada_1" x="0px" y="0px" viewBox="0 0 200 200" style="enable-background:new 0 0 200 200;" xml:space="preserve"> <style type="text/css"> .st0{fill:#044F9E;} .st1{fill:#E30613;} .st2{fill:#0D4F9E;} .st3{fill:#FFFFFF;} .st4{fill:#B42026;} .st5{fill:#421613;} .st6{fill:#FFD30F;} .st7{fill:#020203;} .st8{fill:#4887C7;} .st9{clip-path:url(#SVGID_2_);fill:#1867A7;} .st10{fill:#1867A7;} .st11{fill:#231F20;} .st12{fill:#EDAD0B;} .st13{fill-rule:evenodd;clip-rule:evenodd;fill:#231F20;} .st14{fill:#1683C4;} .st15{fill:#9E1925;} .st16{fill:#1C3257;} </style> <g id="layer1_1_" transform="translate(-173.61898,-705.231)"> <g id="g3134"> <g id="g3229" transform="matrix(4.4140213,0,0,-4.4140213,380.32318,739.96493)"> <path id="path3231" class="st13" d="M-24.1-9.8c0,0.1,0.2,0,0.3,0c0.1,0,0.1-0.2,0.3-0.1c0.2,0,0.2-0.2,0.4-0.2 c0.2,0,0-0.1,0-0.1s-0.1,0.1-0.2,0c-0.1,0,0,0-0.1,0.1c-0.1,0.1-0.1,0-0.3,0.2C-24-9.7-24.1-9.9-24.1-9.8"></path> </g> <g id="g3233" transform="matrix(4.4140213,0,0,-4.4140213,365.6907,741.97331)"> <path id="path3235" class="st11" d="M-22.5-9.6c-0.1,0.2,0,0.5,0.1,0.8c0.1,0.2,0.4,0.3,0.7,0.2c0.3,0.2,0.4,0,0.7,0.1 c0.4,0.2,0.2-0.4,0.5-0.6c0.1,0.4-0.3,0.7,0,0.8c0.2,0.1,0.4,0.2,0.5,0.4c0.1,0.2,0.2,0.4,0.3,0.5c0.2,0.1,0.2,0.3,0.2,0.3 s0.2-0.1,0.4,0.1c-0.1,0.1-0.3,0.1-0.3,0.3c0.1,0.2,0.5-0.2,0.7,0.1c-0.3,0.1-0.6,0.4-0.7,0.4c-0.1-0.1-0.2-0.1-0.3,0 c-0.3,0.2-0.3,0-0.4,0.1c-0.1-0.3,0.1-0.2,0.1-0.3c0.2-0.2-0.2,0.2-0.1-0.3c0-0.1-0.2-0.1-0.3,0.1c-0.1,0.1-0.6,0.1-0.7,0.2 c0.1,0.1,0.7,0.7,1.7,0.6c-1.4,0.6-3.3-0.1-3.4-0.3c-0.2-0.1-0.1-0.3-0.2-0.3c-0.2-0.1-0.3-0.6-0.3-0.6s0.1-0.1-0.2-0.4 c-0.3-0.3-0.3-0.7-0.3-0.7S-24-8.3-24-8.6c0-0.3,0-0.1,0.1-0.3c0.1-0.1,0.1-0.5,0.2-0.4c0.1,0.3-0.2,0.6-0.1,0.9 c0,0,0.1,0.1,0.1,0c0-0.4,0.5-1.1,0.5-1.1s-0.2-0.2,0-0.2l0-0.1c0,0,0.1,0,0.2-0.1C-23-9.9-23-10-22.9-10h1.4 c0,0,0.1,0.4,0.2,0.5c0.1,0.1-0.2,0-0.2,0.1c-0.1,0.1-0.1-0.1-0.2-0.1c0-0.1-0.1-0.2-0.2-0.2c-0.1,0-0.4-0.1-0.4-0.1 C-22.4-9.9-22.5-9.6-22.5-9.6"></path> </g> <g id="g3237" transform="matrix(4.4140213,0,0,-4.4140213,417.99241,778.22125)"> <path id="path3239" class="st11" d="M-28-5.8c-0.1,0.1,0,0.2,0,0.2h-3.9l0.4-0.4c0.1,0,0.2-0.1,0.3-0.3c0.1-0.3-0.1-0.1-0.1-0.6 c0-0.5-0.1-0.4-0.1-0.4s0-0.6-0.3-0.9c-0.2-0.2,0-0.3,0-0.3s-0.1,0-0.2-0.4c0-0.1,0.1-0.3,0.3-0.3c0.1,0-0.3,0.1,0.1,0.2 c0.2,0.1,0,0.2,0,0.2s0.3,0,0.4,0.4c0.3,0,0.2,0.1,0.7,0.2c0.1,0,0.2,0.1,0.2,0.2c0,0.1,0.2,0,0.7,0.5c0.4,0.4,0.3,0.5,0.6,0.7 c0.3,0.2,0.3,0,0.4,0.1c0.2,0.3,0.2,0.3,0.3,0.5L-28-6C-28-6-27.9-5.9-28-5.8"></path> </g> <g id="g3241" transform="matrix(4.4140213,0,0,-4.4140213,395.99296,744.63496)"> <path id="path3243" class="st11" d="M-25.7-9.3L-25.7-9.3l-0.1,0L-25.7-9.3z"></path> </g> <g id="g3245" transform="matrix(4.4140213,0,0,-4.4140213,393.47697,744.0788)"> <path id="path3247" class="st11" d="M-25.4-9.4c-0.1,0-0.3,0-0.4-0.1l-0.1,0.1H-26c0.1,0.1-0.1,0.2,0.1,0.2 C-25.7-9.2-25.6-9.3-25.4-9.4"></path> </g> <g id="g3249" transform="matrix(4.4140213,0,0,-4.4140213,325.85858,745.08078)"> <path id="path3251" class="st13" d="M-18.4-9.3c0.9,2.8,3,4.9,6.5,4.9c3.3,0,5.7-2.2,6.6-5c-0.9,2.6-3.5,4.5-6.6,4.5 C-14.9-4.8-17.5-6.7-18.4-9.3 M-5.3-13.5c-0.9-2.8-3.4-4.9-6.6-4.9c-3.4,0-5.6,2.1-6.5,4.9c0.9-2.6,3.5-4.4,6.5-4.4 C-8.8-17.9-6.2-16.1-5.3-13.5"></path> </g> <g id="g3253" transform="matrix(4.4140213,0,0,-4.4140213,282.89249,750.58506)"> <path id="path3255" class="st11" d="M-14-8.7H-15l0.2-0.2v-1.4c0-0.3-0.2-0.5-0.5-0.5c-0.3,0-0.5,0.1-0.5,0.5v1.4l0.2,0.2h-1.1 l0.2-0.2v-1.4c0-0.7,0.4-1,1.3-1c0.9,0,1.3,0.3,1.3,1v1.4L-14-8.7"></path> </g> <g id="g3257" transform="matrix(4.4140213,0,0,-4.4140213,313.33158,750.58506)"> <path id="path3259" class="st11" d="M-17.1-8.7H-18l0.2-0.2v-1.3l-1.3,1.5H-20l0.2-0.2v-2.2l-0.2-0.2h0.9l-0.2,0.2v1.3l1.4-1.5 h0.6v2.4L-17.1-8.7z"></path> </g> <g id="g3261" transform="matrix(4.4140213,0,0,-4.4140213,330.37412,771.40159)"> <path id="path3263" class="st11" d="M-18.9-6.5L-19-6.3v2.2l0.2,0.2H-20l0.2-0.2v-2.2L-20-6.5H-18.9z"></path> </g> <g id="g3265" transform="matrix(4.4140213,0,0,-4.4140213,359.49783,750.58506)"> <path id="path3267" class="st11" d="M-21.9-8.7h-0.9l0.2-0.2l-0.6-1.4l-0.6,1.4l0.2,0.2h-1.1l1.2-2.6h0.5L-21.9-8.7z"></path> </g> <g id="g3269" transform="matrix(4.4140213,0,0,-4.4140213,384.30463,771.40159)"> <path id="path3271" class="st11" d="M-24.5-6.5v0.7L-24.7-6H-26v0.5h0.8l0.2-0.2v0.8L-25.1-5H-26v0.5h1.3l0.2-0.2V-4h-2.4 l0.2-0.2v-2.2l-0.2-0.2H-24.5z"></path> </g> <g id="g3273" transform="matrix(4.4140213,0,0,-4.4140213,406.9618,757.32527)"> <path id="path3275" class="st13" d="M-26.8-8c0-0.2-0.2-0.3-0.4-0.3h-0.5v0.6h0.6C-27-7.7-26.8-7.8-26.8-8 M-25.9-9.7l-0.7,1 c0.3,0.1,0.6,0.4,0.6,0.8c0,0.4-0.3,0.8-1,0.8h-1.6l0.2-0.2v-2.2l-0.2-0.2h1.1l-0.2,0.2v0.7h0.3l0.5-0.7l-0.2-0.2H-25.9"></path> </g> <g id="g3277" transform="matrix(4.4140213,0,0,-4.4140213,440.50392,765.31465)"> <path id="path3279" class="st11" d="M-30.3-7.2c0,0.4-0.3,0.6-0.8,0.8c-0.3,0.1-0.7,0.2-0.7,0.4c0,0.1,0.1,0.2,0.3,0.2 c0.3,0,0.7-0.1,1.1-0.3v0.9l-0.2-0.2c-0.2,0.1-0.6,0.2-0.8,0.2c-0.9,0-1.2-0.4-1.2-0.7c0-0.5,0.3-0.7,0.8-0.9 c0.4-0.1,0.7-0.1,0.7-0.3c0-0.2-0.2-0.2-0.3-0.2c-0.3,0-0.8,0.1-1.2,0.4V-8l0.2,0.2c0.2-0.1,0.6-0.2,1-0.2 C-30.6-8-30.3-7.6-30.3-7.2"></path> </g> <g id="g3281" transform="matrix(4.4140213,0,0,-4.4140213,461.61618,763.91099)"> <path id="path3283" class="st13" d="M-32.5-7.3h-0.8l0.4,0.9L-32.5-7.3z M-31.2-8.2l-1.3,2.6h-0.9l0.1-0.2l-1.1-2.4h0.9L-33.6-8 l0.1,0.3h1.2l0.1-0.3l-0.2-0.2H-31.2z"></path> </g> <g id="g3285" transform="matrix(4.4140213,0,0,-4.4140213,496.29715,771.40159)"> <path id="path3287" class="st11" d="M-36.1-6.5v0.7L-36.3-6h-1.2v1.8l0.2,0.2h-1.1l0.2-0.2v-2.2l-0.2-0.2H-36.1z"></path> </g> <g id="g3289" transform="matrix(4.4140213,0,0,-4.4140213,491.90519,755.08737)"> <path id="path3291" class="st11" d="M-35.6-8.2c0,0.3,0.2,0.5,0.5,0.5s0.5-0.2,0.5-0.5c0-0.3-0.2-0.5-0.5-0.5S-35.6-8.5-35.6-8.2 M-35.6-8.2c0-0.3,0.2-0.5,0.5-0.5c0.3,0,0.5,0.2,0.5,0.5c0,0.3-0.2,0.5-0.5,0.5C-35.4-7.8-35.6-8-35.6-8.2"></path> </g> <g id="g3293" transform="matrix(4.4140213,0,0,-4.4140213,497.62135,753.46301)"> <path id="path3295" class="st13" d="M-36.2-8.4c-0.1,0-0.1,0.1-0.2,0.1c-0.2,0-0.3-0.1-0.3-0.3c0-0.1,0.1-0.3,0.3-0.3 c0.1,0,0.1,0,0.2,0.1v0.1c0-0.1-0.1-0.1-0.2-0.1c-0.1,0-0.2,0.1-0.2,0.2c0,0.1,0.1,0.2,0.2,0.2C-36.3-8.4-36.2-8.4-36.2-8.4 L-36.2-8.4"></path> </g> <g id="g3297" transform="matrix(4.4140213,0,0,-4.4140213,188.53837,846.92991)"> <path id="path3299" class="st11" d="M1,1.5V0.7c0-0.4-0.2-0.5-0.7-0.5c-0.5,0-0.7,0.1-0.7,0.5v0.8l-0.1,0.1h0.6L0,1.5V0.7 c0-0.2,0.1-0.2,0.3-0.2c0.2,0,0.3,0.1,0.3,0.2v0.7L0.5,1.6h0.6L1,1.5"></path> </g> <g id="g3301" transform="matrix(4.4140213,0,0,-4.4140213,211.18672,846.92991)"> <path id="path3303" class="st11" d="M-2,1.5V0.2h-0.3L-3,1V0.3l0.1-0.1h-0.5l0.1,0.1v1.1l-0.1,0.1H-3l0.7-0.8v0.7l-0.1,0.1h0.5 L-2,1.5z"></path> </g> <g id="g3305" transform="matrix(4.4140213,0,0,-4.4140213,219.73667,859.89389)"> <path id="path3307" class="st11" d="M-3.1,3.2L-3,3.3v1.1l-0.1,0.1h0.6l-0.1-0.1V3.3l0.1-0.1H-3.1z"></path> </g> <g id="g3309" transform="matrix(4.4140213,0,0,-4.4140213,240.91515,859.89389)"> <path id="path3311" class="st11" d="M-5.9,3.2h-0.3l-0.6,1.3h0.6l-0.1-0.1L-6,3.7l0.3,0.7l-0.1,0.1h0.5L-5.9,3.2z"></path> </g> <g id="g3313" transform="matrix(4.4140213,0,0,-4.4140213,253.18613,859.89389)"> <path id="path3315" class="st11" d="M-7.5,3.2l0.1,0.1v1.1l-0.1,0.1h1.3V4.1l-0.1,0.1H-7V4h0.4l0.1,0.1V3.6l-0.1,0.1H-7V3.4h0.7 l0.1,0.1V3.2H-7.5z"></path> </g> <g id="g3317" transform="matrix(4.4140213,0,0,-4.4140213,281.99203,848.80145)"> <path id="path3319" class="st11" d="M-11.2,1.7h-0.3V1.4h0.3c0.1,0,0.2,0.1,0.2,0.2C-11,1.7-11.1,1.7-11.2,1.7 M-11.2,0.6 l0.1,0.1l-0.3,0.4h-0.2V0.7l0.1-0.1H-12l0.1,0.1v1.1L-12,2h0.8c0.4,0,0.5-0.2,0.5-0.4c0-0.2-0.1-0.3-0.3-0.4l0.4-0.5H-11.2"></path> </g> <g id="g3321" transform="matrix(4.4140213,0,0,-4.4140213,302.5393,860.27349)"> <path id="path3323" class="st11" d="M-13.9,3.2c-0.2,0-0.4,0.1-0.5,0.1l-0.1-0.1v0.5c0.2-0.1,0.5-0.2,0.6-0.2 c0.1,0,0.2,0,0.2,0.1c0,0.1-0.2,0.1-0.4,0.2c-0.3,0.1-0.4,0.2-0.4,0.4c0,0.2,0.1,0.4,0.6,0.4c0.1,0,0.3,0,0.4-0.1l0.1,0.1V4.2 c-0.2,0.1-0.4,0.1-0.6,0.1c-0.1,0-0.2,0-0.2-0.1c0-0.1,0.2-0.1,0.4-0.2c0.2-0.1,0.4-0.2,0.4-0.4C-13.3,3.4-13.5,3.2-13.9,3.2"></path> </g> <g id="g3325" transform="matrix(4.4140213,0,0,-4.4140213,322.58337,849.82992)"> <path id="path3327" class="st11" d="M-16.5,1.8l-0.2-0.5h0.4L-16.5,1.8z M-16.2,0.9l0.1,0.1l-0.1,0.1h-0.6L-16.9,1l0.1-0.1h-0.5 l0.6,1.2l0,0.1h0.5l0.7-1.3C-15.6,0.9-16.2,0.9-16.2,0.9z"></path> </g> <g id="g3329" transform="matrix(4.4140213,0,0,-4.4140213,337.64843,859.89389)"> <path id="path3331" class="st11" d="M-18.5,3.2l0.1,0.1v1.1l-0.1,0.1h0.6L-18,4.4v-1h0.6l0.1,0.1V3.2H-18.5z"></path> </g> <g id="g3333" transform="matrix(4.4140213,0,0,-4.4140213,381.91665,859.89389)"> <path id="path3335" class="st11" d="M-24.3,3.2l0.1,0.1v0.6l-0.4-0.7h-0.2l-0.4,0.8V3.3l0.1-0.1h-0.5l0.1,0.1v1.1l-0.1,0.1h0.5 l0.4-0.8l0.4,0.8h0.5l-0.1-0.1V3.3l0.1-0.1H-24.3z"></path> </g> <g id="g3337" transform="matrix(4.4140213,0,0,-4.4140213,409.50424,846.92991)"> <path id="path3339" class="st11" d="M-27.9,1.5V0.7c0-0.4-0.2-0.5-0.7-0.5c-0.5,0-0.7,0.1-0.7,0.5v0.8l-0.1,0.1h0.6l-0.1-0.1V0.7 c0-0.2,0.1-0.2,0.3-0.2c0.2,0,0.3,0.1,0.3,0.2v0.7l-0.1,0.1h0.6L-27.9,1.5"></path> </g> <g id="g3341" transform="matrix(4.4140213,0,0,-4.4140213,423.8763,860.27349)"> <path id="path3343" class="st11" d="M-29.8,3.2c-0.2,0-0.4,0.1-0.5,0.1l-0.1-0.1v0.5c0.2-0.1,0.5-0.2,0.6-0.2 c0.1,0,0.2,0,0.2,0.1c0,0.1-0.2,0.1-0.4,0.2c-0.3,0.1-0.4,0.2-0.4,0.4c0,0.2,0.1,0.4,0.6,0.4c0.1,0,0.3,0,0.4-0.1l0.1,0.1V4.2 c-0.2,0.1-0.4,0.1-0.6,0.1c-0.1,0-0.2,0-0.2-0.1c0-0.1,0.2-0.1,0.4-0.2c0.2-0.1,0.4-0.2,0.4-0.4C-29.2,3.4-29.4,3.2-29.8,3.2"></path> </g> <g id="g3345" transform="matrix(4.4140213,0,0,-4.4140213,437.32141,859.89389)"> <path id="path3347" class="st11" d="M-31.5,3.2l0.1,0.1v1.1l-0.1,0.1h0.6L-31,4.4V3.3l0.1-0.1H-31.5z"></path> </g> <g id="g3349" transform="matrix(4.4140213,0,0,-4.4140213,458.31008,860.16756)"> <path id="path3351" class="st11" d="M-34.3,3.2c-0.4,0-0.8,0.2-0.8,0.7c0,0.4,0.3,0.7,0.8,0.7c0.2,0,0.3,0,0.4-0.1l0.1,0.1V4.2 c-0.1,0.1-0.3,0.1-0.5,0.1c-0.3,0-0.4-0.2-0.4-0.4c0-0.2,0.2-0.4,0.4-0.4c0.2,0,0.4,0.1,0.5,0.1V3.3C-33.8,3.3-34.1,3.2-34.3,3.2 "></path> </g> <g id="g3353" transform="matrix(4.4140213,0,0,-4.4140213,492.36867,852.9418)"> <path id="path3355" class="st11" d="M-38.7,2.3h0.5V1.7c-0.1-0.1-0.4-0.2-0.6-0.2c-0.4,0-0.8,0.2-0.8,0.7c0,0.5,0.4,0.7,0.8,0.7 c0.2,0,0.4-0.1,0.4-0.1l0.1,0.1V2.5c-0.1,0.1-0.3,0.2-0.5,0.2c-0.2,0-0.4-0.2-0.4-0.4s0.1-0.4,0.4-0.4c0.1,0,0.1,0,0.2,0v0.3 L-38.7,2.3"></path> </g> <g id="g3357" transform="matrix(4.4140213,0,0,-4.4140213,512.35094,848.80145)"> <path id="path3359" class="st11" d="M-41.3,1.7h-0.3V1.4h0.3c0.1,0,0.2,0.1,0.2,0.2C-41.1,1.7-41.2,1.7-41.3,1.7 M-41.3,0.6 l0.1,0.1l-0.3,0.4h-0.2V0.7l0.1-0.1h-0.6l0.1,0.1v1.1L-42.1,2h0.8c0.4,0,0.5-0.2,0.5-0.4c0-0.2-0.1-0.3-0.3-0.4l0.4-0.5H-41.3"></path> </g> <g id="g3361" transform="matrix(4.4140213,0,0,-4.4140213,533.63539,848.54544)"> <path id="path3363" class="st11" d="M-44.1,1.7c-0.3,0-0.4-0.2-0.4-0.4c0-0.2,0.1-0.4,0.4-0.4c0.3,0,0.4,0.2,0.4,0.4 C-43.7,1.5-43.8,1.7-44.1,1.7 M-44.1,0.6c-0.4,0-0.8,0.2-0.8,0.7c0,0.5,0.4,0.7,0.8,0.7c0.4,0,0.8-0.2,0.8-0.7 C-43.3,0.8-43.7,0.6-44.1,0.6"></path> </g> <g id="g3365" transform="matrix(4.4140213,0,0,-4.4140213,562.75469,846.92991)"> <path id="path3367" class="st11" d="M-47.9,1.5V0.7c0-0.4-0.2-0.5-0.7-0.5c-0.5,0-0.7,0.1-0.7,0.5v0.8l-0.1,0.1h0.6l-0.1-0.1V0.7 c0-0.2,0.1-0.2,0.3-0.2s0.3,0.1,0.3,0.2v0.7l-0.1,0.1h0.6L-47.9,1.5"></path> </g> <g id="g3369" transform="matrix(4.4140213,0,0,-4.4140213,577.90361,848.80145)"> <path id="path3371" class="st11" d="M-49.9,1.7h-0.2V1.3h0.2c0.2,0,0.3,0,0.3,0.2C-49.6,1.7-49.7,1.7-49.9,1.7 M-49.9,1h-0.2V0.7 l0.1-0.1h-0.6l0.1,0.1v1.1L-50.6,2h0.7c0.3,0,0.6-0.1,0.6-0.4C-49.2,1.1-49.5,1-49.9,1"></path> </g> </g> </g> </svg> 