<?xml version="1.0" encoding="UTF-8"?> <!-- Generator: Adobe Illustrator 24.3.0, SVG Export Plug-In . SVG Version: 6.00 Build 0) --> <svg xmlns="http://www.w3.org/2000/svg" xmlns:xlink="http://www.w3.org/1999/xlink" version="1.1" id="Camada_1" x="0px" y="0px" viewBox="0 0 200 200" style="enable-background:new 0 0 200 200;" xml:space="preserve"> <style type="text/css"> .st0{fill:#044F9E;} .st1{fill:#E30613;} .st2{fill:#0D4F9E;} .st3{fill:#FFFFFF;} .st4{fill:#B42026;} .st5{fill:#421613;} .st6{fill:#FFD30F;} .st7{fill:#020203;} .st8{fill:#4887C7;} .st9{clip-path:url(#SVGID_2_);fill:#1867A7;} .st10{fill:#1867A7;} .st11{fill:#231F20;} .st12{fill:#EDAD0B;} .st13{fill-rule:evenodd;clip-rule:evenodd;fill:#231F20;} .st14{fill:#1683C4;} .st15{fill:#9E1925;} .st16{fill:#1C3257;} </style> <g> <g> <g> <defs> <rect id="SVGID_1_" x="43.9" y="37.9" width="112.2" height="124.1"></rect> </defs> <clipPath id="SVGID_2_"> <use xlink:href="#SVGID_1_" style="overflow:visible;"></use> </clipPath> <path class="st9" d="M58.4,147.1c-0.2-0.6-0.7-1.9-0.9-2.9c-0.3-2.2,0.8-3.6,1.8-3.9c1.2-0.3,1.6,0.3,2.1,1.6 c0.6,2.1,0.6,4.8,0.4,8.6c-0.3,5.3-2.9,11.7-9.5,11.5c-5.7-0.1-8.2-3.8-8.4-9.4c-0.1-2.6,0.1-5.3,1.2-9c0.6-2,1.1-2.7,2.9-3.1 c1.4-0.3,1.3,1.2,1,3c-0.7,3.9-1,5.7-0.8,10.1c0.3,4.6,2.4,6.4,4.7,6.4c3.5,0.1,5-2.8,5.7-7C59.1,149.7,58.7,148.1,58.4,147.1z M132.5,151.6c1.4,0,1.7,1.6,1.4,2.6c-0.3,1-1.5,2.1-3.3,2.4C130.2,155.6,130,151.6,132.5,151.6z M107.3,153.8c0-1.1-0.6-2-1.3-2 c-0.6,0-1.9,0.6-1.9,2.7c0,1.6,0.6,2.4,0.8,2.7C106.8,156.7,107.3,155.1,107.3,153.8z M87.3,140.7c-0.1-1-0.9-1.7-2-1.7 c-1.2,0-2.4,1.3-2.2,2.9c0.1,1.1,0.7,1.9,1.9,1.9C86.4,143.8,87.4,142.2,87.3,140.7z M97.8,144.5c-0.1-1.8-0.5-2.6-1.5-2.5 c-1.3,0.1-1.9,4.1-1.6,8.4c0.2,2.8,0.6,3.2,1,3.2C96.3,153.4,98,148.5,97.8,144.5z M140.5,151.2c-0.8,3.3-3.2,8.2-6.8,8.2 c-0.8,0-2.3-0.3-2.3-1.2c0-0.9,5.7-1,5.7-5.3c0-1.6-1.5-3.9-3.7-3.9c-2.9,0-5.7,3.2-5.7,7.5c0,3.9,2.4,5.2,4.9,5.2 c4.3,0,6.8-3.5,8.2-6.4c0.6,1.9,1,6.4,2.6,6.4c0.6,0,1.1-0.3,1.9-2.1c1.9-4.3,3.8-9.3,6.4-9.3c1,0,0.4,1.7,2.7,1.7 c1.1,0,1.9-0.9,1.9-1.9c0-1.5-1.3-2.6-3.4-2.6c-6.1,0-7.3,9.1-8.3,9.1c-1.6,0-1.1-7.3-2.3-7.3 C141.1,149.4,140.6,150.7,140.5,151.2z M89,159c1,0,2.6-0.3,3.9-2.4c-0.7-1.7-1.3-5-1.4-6.2c-0.4-6.2,2-12.1,4.7-12.3 c1.9-0.1,3.5,1.7,3.7,4.7c0.5,7.8-2.1,11-3.4,13.8c0.2,1.1,2.1,2.9,3.8,2.9c0.6,0,1.4-0.3,1.6-0.6c-0.1-0.4-0.3-1-0.3-1.9 c0-4.5,2.9-8.3,5.4-8.3c2,0,3.2,2.6,3.2,4.4c0,2.1-1.7,3.7-4.3,5.3c0.5,0.4,1.3,0.8,2,0.8c3.7,0,5.6-4.4,7-8.5 c0.3-0.8,0.7-1.9,1.6-1.9c1.5,0,2.2,10.2,4.8,10.2c1.1,0,2-2.3,2-4c0-1.3-0.5-1.4-0.5-3.3c0-2.1,1.1-3.8,2.6-3.8 c0.9,0,1.2,0.9,1.2,2c0,4.1-3,11.8-7.3,11.8c-3.3,0-3-5.7-4.2-5.7c-1.3,0-3.1,5.7-9.5,5.7c-1,0-2.1-0.5-3-1.5 c-1.5,1-2.8,1.5-4.3,1.5c-2.4,0-3.4-2.4-4.4-2.4c-1.2,0-2.4,2.5-6.3,2.5c-3.1,0-3.6-4.1-4.7-4.1c-1,0-2.4,4.1-4.1,4.1 c-2.7,0-3.3-7.1-5.7-7.1c-1.9,0-7.8,7.3-9.4,7.1c-0.6-0.1-0.9-0.5-0.8-1.2c0.1-0.9,0.9-3.3,1.2-4.4c0.5-2,1-4.1,1.3-4.8 c0.3-0.7,1-1.2,1.6-1.1c0.3,0,0.4,0.6,0.5,1c0.3,1.6,0.8,3.2,1.3,3.2c0.9,0,3.9-5.7,5.6-5.7c2.1,0,2.4,9,5.3,9 c1,0,1.7-1.2,2.3-2.6c0.1-2.4,0.7-5.8,2.6-5.8c1.4,0,2,3,1,5.7C85.5,158.2,87.6,159,89,159"></path> </g> </g> <path class="st10" d="M133.8,58c-0.5,0-1.2,0-1.5-0.7c-0.3-0.6-0.2-1.6-0.8-2.1c0.6,0.2,1.2,0.2,1.7,0.2c1.5,0,3-1.1,4.1-1.1 c0.7,0,1,0.5,1,1C138.3,56.8,135.2,58,133.8,58z M134.6,61.9c3.5,0,6.8-2.8,6.8-5.3c0-1.2-0.5-2.1-1.9-2.3c0.2,0.3,0.3,0.5,0.3,1.1 c0,1.9-2.9,4-6,4c-1.1,0-1.5,0.8-1.5,1.2C132.3,61.5,133.2,61.9,134.6,61.9z M134.3,63.3c0.4,3.2,5.4,7.6,6.7,7.5 c0.9-0.1,1.2-4.2,1.2-7.5c0-1.9,0.1-3.3-0.9-3.7C139.7,62.8,135.6,63.5,134.3,63.3"></path> <path class="st10" d="M57.4,84.8c1.2,0,0.9-7.1,2.8-7.1c0.4,0,0.6,0.4,0.6,1c0,1.6-0.8,4-0.8,5.3c0,0.6,0.2,0.9,0.5,0.9 c0.8,0,2.3-7.8,3.7-7.8c0.4,0,0.6,0.4,0.6,0.9c0,1.6-2.1,6.4-2.1,7.7c0,0.2,0.1,0.4,0.2,0.4c0.9,0,2.6-3.7,3.1-5.5 c0.3-1,0.7-1.5,1.1-1.5c0.3,0,0.6,0.4,0.6,1.2c0,1.8-1.7,6.2-3.2,9.1c-1.2,2.3-3,5.5-3,7.3c0,0.9,0.2,1.9,1.5,3 c-2.2-0.1-3.1-0.3-3.9-2c-3.7,7.3,6.7,6.6,3.2,13c-0.6-1.2-5.8-2.4-5.8-9.1c0-5.8,5.1-9.3,5.1-11.7c0-0.5-0.2-0.9-0.6-1.3 c-1.1-1-1.2-1.7-2.1-1.7c-0.6,0-1.4,1.5-0.6,2.8c0.3,0.4,0.5,0.7,0.5,1.1c0,1-1.5,3.5-2.6,3.5c-1.1,0-1.9-2.6-1.9-6.9 c0-3.8,0.9-7.5,1.9-7.5c0.3,0,0.4,0.2,0.4,0.5c0,0.4-0.1,1.3-0.1,2.8C56.7,84.7,57.1,84.8,57.4,84.8"></path> <path class="st10" d="M66.1,94.8c1.4,0,2.6-1.1,2.6-3.4v-3.5c0-1.3,0.1-2.8,1-3.9c-0.1,0.4-0.1,0.9-0.1,1.4c0,2.9,1.6,5,1.6,7.8 c0,1.1-0.3,1.6-1.1,1.6c-0.8,0-0.7-0.7-0.9-0.7c-0.1,0-0.3,0.4-0.3,0.9c0,0.7,0.5,1.8,1.9,1.8c1.2,0,2.2-1.1,2.2-2.4 c0-3.1-2.4-6.5-2.4-9.8c0-1.4,0.4-2.4,0.7-3.1c0,6.8,5.8,11.8,5.8,14.6c0,0.6-0.5,1.2-1.2,1.2c-0.8,0-1.2-0.6-1.2-1.1 c0-0.2,0-0.3-0.1-0.3c-0.2,0-0.8,0.7-0.8,1.6c0,1.1,0.9,2.5,2.6,2.5c1.9,0,3-1.6,3-3.1c0-3.6-7-9-7-14.8c0-1,0.2-2.6,0.9-3.8 c-4.5,2.9-5.9,6.8-5.9,10.1c0,2.9-0.1,4.4-1.6,4.4c-0.8,0-1-0.7-1.3-0.7c-0.2,0-0.3,0.6-0.3,0.8C64.3,94.1,65.2,94.8,66.1,94.8"></path> <path class="st10" d="M117.9,56.3c0.4-0.3,2.4,0.2,4.8-1.1c0.3-0.2,0.6-0.2,0.9-0.2c1.2,0,0.9,1.4,2,1.4c0.9,0,1.9-0.7,2.6-0.7 c1,0,2.5,3.2,2.5,4.7c0,1.7-2.6,2.8-5.7,2.8c-4.5,0-7.3-4-7.3-6.5C117.6,56.5,117.7,56.4,117.9,56.3z M125.3,60.7 c1.5,0,2.6-0.7,2.6-1.1c0-0.1-0.2-0.2-0.6-0.2c-0.4,0-1.3,0-3-0.3c-1.4-0.2-2.5-0.8-2.9-0.8c-0.1,0-0.2,0.1-0.2,0.2 C121.1,59.3,122.8,60.7,125.3,60.7"></path> <path class="st10" d="M66.8,107.7c-1.1,0.3-2.9,2-2.9,4.9c0,3.3,3.6,8.5,9.5,8.5c5,0,6.2-3.5,6.2-5.8c0-5.2-3.2-8.8-7.3-8.8 c-2.3,0-4.3,1.6-4.3,4.1c0,2.3,1.7,5.6,5.8,5.6c1.9,0,3-1.4,3-2.9c0-1.5-1.4-3.7-3.5-3.7c-0.6,0-1.1,0.4-1.1,1.1 c0,0.8,1.1,1.6,2.5,1.6c0.3,0,0.6-0.1,0.8-0.1c0.1,0.1,0.1,0.3,0.1,0.4c0,0.8-0.8,1.3-1.9,1.3c-1.7,0-3.4-1.3-3.4-3.4 c0-1.2,1.1-2.1,2.6-2.1c3,0,4.8,2.7,4.8,5.4c0,2.4-1.3,3.8-4.1,3.8C68.3,117.6,65.6,112.7,66.8,107.7"></path> <path class="st10" d="M105.8,127.7c1.6,0,1.6-0.1,2.1-0.1c0.5,0,0.5,0.3,0.5,0.5c0,0.8-1.7,1.7-4.6,1.7c-1.7,0-2.8-0.9-3.1-1.9 c-1.7,1.1-4.3,2.1-6.9,2.1c-7,0-8.8-3-11-4c-1.7-0.8-4.2,0.7-7.8-3.3c0.5,0.1,1.1,0.1,1.6,0.1c3.1,0,4.8-1.5,4.8-4 c0-0.3,0-0.6-0.1-1c1,0.4,3.1,2,3.7,4.9c0.1,0.3,1.5,0.6,2.4,0.6c1.2,0,2.8-0.5,3-2.5c4.1-0.3,6.9-2.8,7.4-5.8 c1.5,0.5,3.1,1.8,3.6,2.5c0.6-0.2,1.3-0.3,2-0.3c1.1,0,2.3,0.2,3.8,0.6c0.1-0.4,0.1-1,0.8-1c1,0,0.8,1.1,1.1,1.8 c0.2,0.3,1,0.5,1,1.2c0,0.7-0.5,0.9-0.9,0.9c-0.1,0-0.3,0-0.4-0.1c-0.7,0.2-0.7,5.2-3.6,5.2c-2.1,0-4.1-1.7-4.9-3.9 c-0.2-0.6-0.8-1.1-1.2-1.1c-0.5,0-0.9,0.1-1.5,0.8c-1.8,2-4.9,3.8-8.7,3.8c-1.2,0-2.1-0.1-2.3-0.1c-0.1,0-0.1,0-0.1,0.1 c0,0.2,1.2,1.2,3.7,1.2c6,0,7.5-3.4,8.4-3.4c0.1,0,0.5,0,0.8,0.5C100.8,126.9,103.9,127.7,105.8,127.7z M103.2,120.9 c0,0.8,0.6,1.4,1.4,1.4c0.8,0,1.4-0.6,1.4-1.4c0-0.8-0.6-1.4-1.4-1.4C103.8,119.5,103.2,120.1,103.2,120.9"></path> <path class="st10" d="M130.2,103.8c-0.5,0-1,0.4-1,1.3c0,1,0.8,1.7,1.2,1.9c0.2,0.1,0.6,0.3,1,0.3c1,0,1.8-0.3,1.8-1.1 C133.2,105.1,131.7,103.8,130.2,103.8z M126.5,105.9c-0.7,0-4.7,5.3-7.2,5.3c-0.6,0-1.1-1.2-1.1-2c0-0.5,0.3-0.8,1.4-1.1 c5.9-1.3,4.6-5.7,9.6-5.7c2.8,0,5.8,1.9,5.8,6.1c0,4.5-6.4,10.1-7.4,10.1c-0.8,0-1.6-1.1-1.6-1.9c0-0.2,0.1-0.5,0.8-0.8 c3.3-1.3,5.2-4.3,5.2-5.8c0-0.3-0.2-0.7-0.6-0.7c-0.6,0-3.1,5.7-5.8,5.7c-1.9,0-3.9-1.7-3.9-2.6c0-1.4,5.5-3.9,5.5-5.8 C127.1,106,126.8,105.9,126.5,105.9"></path> <path class="st10" d="M58.9,61.2c0,0-1,0.7-2.2,0.7c-1.5,0-2.6-1.1-2.6-2.6c0-1.1,0.5-2.2,1.8-2.7c0,0.2,0,0.4,0,0.6 C55.9,59.1,56.9,60.6,58.9,61.2z M66.2,67.7c-0.8,0.9-1.5,2.4-1.5,3.9c0,1.8,1.1,3.4,2.9,3.4c1.7,0,2.5-1.4,2.5-2.9 C70,69.8,67.9,68.2,66.2,67.7z M54.9,69.1c-0.1,0.1-0.1,0.2-0.1,0.4c0,0.3,0.3,0.6,0.6,0.6c0.3,0,0.4-0.1,0.6-0.1 c0.8,0,1.7,0.6,3.1,0.6c0.8,0,1.7-0.2,2.9-0.8c2.5-1.2,3.4-4.3,3.4-4.8c0-0.6-0.5-0.6-1-1.2c-0.4-0.6-0.3-1.1-0.5-1.4 c-0.2-0.2-0.6-0.2-1.3-0.2c-0.2,0-0.5,0-0.8,0c-1.1,0-2.5,0.1-4,1.1C54.9,65.2,55.4,68.3,54.9,69.1z M62.9,64.9 c0.2,0.3,0.9,0.7,0.9,1c0,0.5-0.3,1.1-0.8,1.1c-1.2,0-2.2-1.8-2.2-2.8c0-0.6,0.4-0.7,0.9-0.7c0.2,0,0.3,0,0.5,0.1 C62.5,63.7,62.5,64.3,62.9,64.9z M59.8,69c-1.1,0-2.4-1.4-2.4-2.7c0-0.7,0.5-1.5,0.9-1.5c0.1,0,0.2,0.1,0.2,0.3 c0.2,1.7,1.3,2.6,2.3,3.1c0.1,0.1,0.2,0.1,0.2,0.2C61,68.7,60.4,69,59.8,69z M62.7,60.4c0.2-0.5,0.3-1.2,0.3-2 c0-1.6-0.8-4.1-3.1-4.1c-1.3,0-2.3,1.1-2.3,2.3C57.6,59.3,60.3,60.4,62.7,60.4z M53.8,74.1c0,2.6,0.8,3.8,2.2,3.8 c1.1,0,2.6-0.8,4.3-2.3C59,75.9,58,76.1,57,76.1C55.8,76.1,54.9,75.6,53.8,74.1z M55,71c0,0.2,0,0.3,0,0.5c0,1.6,0.9,2.5,2,2.5 c0.9,0,1.8-0.5,2.7-1.6c-0.4,0.1-0.8,0.1-1.2,0.1C57.2,72.5,55.9,72.2,55,71z M63.4,70.6c-0.8,0.2-2.4,1.2-2.4,2.9c0,1.2,1,2,2.2,2 c0.6,0,1.1-0.1,1.3-0.3c-1-0.9-1.3-1.9-1.3-3C63.2,71.4,63.3,71,63.4,70.6z M64.6,61.2c0,0.8,0.6,1.4,1.4,1.4 c0.8,0,1.4-0.6,1.4-1.4c0-0.8-0.6-1.4-1.4-1.4C65.2,59.8,64.6,60.4,64.6,61.2z M66.4,64.3c0,0.8,0.6,1.4,1.4,1.4 c0.7,0,1.4-0.6,1.4-1.4c0-0.7-0.6-1.4-1.4-1.4C67,62.9,66.4,63.5,66.4,64.3"></path> <path class="st10" d="M119.7,81c0-0.7,0.6-1.3,1.3-1.3c0.8,0,1.3,0.6,1.3,1.3c0,0.8-0.6,1.3-1.3,1.3 C120.3,82.4,119.7,81.8,119.7,81z M107.7,70.5c0,0.8,0.6,1.4,1.4,1.4c0.8,0,1.4-0.6,1.4-1.4c0-0.7-0.6-1.4-1.4-1.4 C108.3,69.2,107.7,69.8,107.7,70.5z M106.5,75.3c0,1.1,0.9,1.9,1.9,1.9c1.1,0,1.9-0.9,1.9-1.9c0-1.1-0.9-1.9-1.9-1.9 C107.4,73.4,106.5,74.3,106.5,75.3z M110.8,73.2c0,1.2,0.9,2.1,2.1,2.1c1.2,0,2.1-0.9,2.1-2.1c0-1.2-0.9-2.1-2.1-2.1 C111.8,71.1,110.8,72,110.8,73.2z M111,68.7c0,0.7,0.6,1.3,1.3,1.3c0.7,0,1.3-0.6,1.3-1.3c0-0.7-0.6-1.3-1.3-1.3 C111.6,67.4,111,68,111,68.7z M117.2,65.4c0,0.7,0.6,1.3,1.3,1.3c0.7,0,1.3-0.6,1.3-1.3c0-0.7-0.6-1.3-1.3-1.3 C117.8,64.1,117.2,64.7,117.2,65.4z M114.6,69.6c0,1.2,1,2.2,2.2,2.2c1.2,0,2.2-1,2.2-2.2c0-1.2-1-2.2-2.2-2.2 C115.6,67.5,114.6,68.4,114.6,69.6z M111.1,77.6c0,0.8,0.6,1.4,1.4,1.4c0.8,0,1.4-0.6,1.4-1.4s-0.6-1.4-1.4-1.4 C111.7,76.3,111.1,76.9,111.1,77.6z M115.6,74.9c0,0.8,0.6,1.4,1.4,1.4c0.8,0,1.4-0.6,1.4-1.4c0-0.7-0.6-1.4-1.4-1.4 C116.2,73.5,115.6,74.1,115.6,74.9z M114.3,79.7c0,1.3,1.1,2.4,2.4,2.4c1.3,0,2.4-1.1,2.4-2.4c0-1.3-1.1-2.4-2.4-2.4 C115.4,77.4,114.3,78.4,114.3,79.7z M119.3,76.8c0,0.9,0.7,1.6,1.6,1.6c0.9,0,1.6-0.7,1.6-1.6c0-0.9-0.7-1.6-1.6-1.6 C120,75.2,119.3,75.9,119.3,76.8z M119.2,72.5c0,0.8,0.7,1.4,1.4,1.4c0.8,0,1.4-0.6,1.4-1.4c0-0.8-0.6-1.4-1.4-1.4 C119.8,71.1,119.2,71.7,119.2,72.5"></path> <path class="st10" d="M122.6,117.3c-0.9,0.7-3,2.2-6.4,2.2c-1.8,0-2.7-0.6-2.9-0.6c-0.3,0-0.7,0.3-1.1,0.8c-0.8,1-1.9,2.7-1.9,4.7 c0,1.4,1.1,2.7,3,2.7c6.4,0,11.2-4,11.2-7.2C124.5,118.1,123.4,117.3,122.6,117.3z M120.9,116.9c0.3-0.2,0.3-0.6,0.3-1v-0.8 c0-1-1.5-1.6-3.5-1.6c-2.5,0-3.8,1.1-3.8,1.6v1.6c0,0.7,1.5,1.3,3.4,1.3C118.6,118.1,120,117.7,120.9,116.9z M120.6,120.3 c0.2,0,0.4,0.1,0.4,0.7c0,0.7-0.3,1.7-1.6,2.5c-0.9,0.6-2,1.1-3.7,1.1c0.3-0.8,0.5-1.7,0.5-2.5c0-0.3,0-0.5-0.1-0.8h0.4 C119.2,121.4,120.4,120.3,120.6,120.3"></path> <path class="st10" d="M107.5,78.6c0.4,2.9,4.3,1.4,4.3,5c0,0.5-0.1,1.3-0.1,1.9c0,0.8,0.1,1.4,0.6,1.4c0.6,0,0.7-0.4,0.7-1 s-0.1-1.2-0.1-1.6c0-1.2,0.9-1.5,1.4-1.5c1.3,0,2.3,1.3,4.2,1.3c-0.4,2.2-5,1.6-5,4c0,1.2,1.2,1.5,2,1.5c0.7,0,1-0.1,1-0.7 c0-0.3-0.1-0.7-0.1-1c0-0.1,0.1-0.3,0.3-0.3c0.8,0,4.4,2.8,4.4,3.7c0,0.8-3.9,1.6-5,1.6c-0.3,0-0.4-0.2-0.4-0.4 c0-0.2,0.6-1,0.6-1.4c0-0.3-0.5-0.5-1.9-0.5c-0.6,0-1.1,0.1-1.1,0.6c0,0.9,1.5,2,1.5,2.9c0,0.7-0.4,1.1-1.5,1.1 c-0.9,0-2.3-0.7-2.3-1.9c0-1,1-1.9,1-2.5c0-0.2-0.1-0.4-0.5-0.4c-1.3,0-1.6,3.3-6.1,3.7c0.7-0.6,1.3-1.4,1.3-2.8 c0-0.7-0.2-1.3-0.2-2.1c0-1,0.5-1.5,1.2-1.5c1.3,0,1.9,1.8,2.7,1.8c0.4,0,0.9-0.4,0.9-1c0-2.6-5-2.2-5-5.9 C106.3,81.5,106.6,80.3,107.5,78.6z M123.8,88.6c0,0.9,0.3,1.8,1.1,1.8c0.7,0,1.3-1.1,1.3-2.3c0-1.4-0.2-2.4-0.2-3 c0-0.2,0.1-0.3,0.2-0.3c0.5,0,1,1.4,1.5,1.4c0.6,0,1.5-1.1,1.9-1.1c0.1,0,0.1,0.1,0.1,0.2c0,0.5-0.8,1.6-0.8,2.1c0,0.4,2,0.4,2,0.8 c0,0.5-2.1,0.5-3.1,1c-1,0.4-1.5,0.9-1.5,1.6c0,0.7,0.7,0.8,1.6,0.8c2.3,0,3.9-1.2,4.4-1.2c0.1,0,0.2,0.1,0.2,0.2 c0,0.3-1.2,1.5-1.2,2c0,0.6,2.1,1.3,2.1,1.6c0,0.1-0.2,0.1-0.4,0.1c-0.4,0-1-0.1-1.4-0.1c-0.3,0-0.5,0-0.6,0.2 c-0.2,0.3,0.1,2.1-0.4,2.1c-0.4,0-1.6-4-4.2-4c-0.4,0-0.6,0.3-0.6,0.8c0,1.4,1.3,2.9,2.6,3.7c0.6,0.4,1.5,0.8,1.5,1 c0,0.4-2.2,0-2.2,0.7c0,0.6,0.3,1.5,0.3,2.1c0,0.2,0,0.4-0.2,0.4c-0.4,0-1.4-1.9-1.9-1.9c-0.4,0-1.3,1.1-1.7,1.1 c-0.1,0-0.2-0.1-0.2-0.2c0-0.8,1.3-2.6,1.3-4.3c0-0.8-0.1-2.6-1.1-2.6c-0.8,0-1.7,1.3-2.2,2.6c-0.2,0.8-0.1,3.7-0.6,3.7 c-0.5,0-0.4-1.9-1.1-1.9c-0.5,0-1.6,0.9-2,0.9c-0.1,0-0.1,0-0.1-0.1c0-0.4,1-1.7,1-2c0-0.5-2.3-0.6-2.3-1c0-0.2,0.9-0.4,1.7-0.5 c1.7-0.3,4.3-1.6,4.3-3.3c0-2-1.9-2.8-3.2-3.7c-0.6-0.4-1.4-0.7-1.4-1c0-0.3,0.8-0.3,1.2-0.3c0.5,0,1,0,1-0.4 c0-0.3-0.1-0.9-0.1-1.4c0-0.3,0-0.6,0.2-0.6c0.5,0,1.2,1.7,1.6,1.7c0.5,0,1.3-1.4,1.8-1.4c0.2,0,0.2,0.1,0.2,0.4 C124.5,85.9,123.8,87.4,123.8,88.6"></path> <path class="st10" d="M108.5,98.1c1.6,0.2,1.9,0.8,1.9,1.2c0,0.8-0.7,1-1.3,1c-0.5,0-1-0.1-1.6-0.1c-0.8,0-1.5,0.2-2.1,0.9 c0.4,0.1,1.1,0.4,1.1,1.1c0,2-5.5,0.3-5.5,5.4c0,2.7,2.8,5.6,7,5.6c2.2,0,3.6-0.7,3.6-1.5c0-0.6-1.2-0.2-1.2-0.8 c0-0.2,0.4-0.7,0.4-1.1c0-0.2-0.1-0.5-0.4-0.5c-0.6,0-1.8,1-4.1,1c-1.8,0-3.7-1.1-3.7-2.5c0-0.3,0.1-0.5,0.3-0.5 c0.2,0,0.5,0.1,0.7,0.1c0.2,0,0.2-0.1,0.2-0.5c0-0.4,0-1.4,0.6-1.4c0.7,0,1.9,2.4,6.6,2.4c1.6,0,4.6-0.3,5.7-1.3 c0,3.8-3,8.7-9.1,8.7c-6.4,0-9.8-5.1-9.8-9.8c0-5.2,4.3-10,10.1-10c1.5,0,2.8,0.5,2.8,1.2C110.9,97.5,108.7,97,108.5,98.1z M119,99.9c0.2,0.4,0.3,0.7,0.3,1.1c0,1-0.6,1.8-0.6,2.8c0,1.1,0.9,2,2.1,2c1.4,0,2.4-1.1,2.4-2.5C123.2,101.6,121.6,100,119,99.9z M107.7,102.1c0.3,0.3,0.4,0.7,0.4,1c0,0.5-0.2,1.1-0.2,1.6c0,0.8,0.6,1.5,1.5,1.5c1,0,1.6-0.8,1.6-1.6 C111,103.3,109.7,102.1,107.7,102.1z M112.2,96.2c3.6,0.7,5.5,3.4,5.5,5.9c0,1.7-1.1,3.3-3,3.3c-1.7,0-3-1.2-3-3.1 c0-1.4,1.1-2.9,1.1-4.4C112.9,97.4,112.7,96.8,112.2,96.2z M114,100.8c0,0.5,0.3,0.9,0.8,0.9c0.5,0,0.9-0.5,0.9-1 c0-0.7-0.6-1.7-1.3-1.7c-0.3,0-0.2,0.4-0.2,0.9C114.2,100.1,114,100.5,114,100.8"></path> <path class="st10" d="M76.3,65.6c1.2,0,2.5-6.3,2.5-7.3c0-0.3-0.1-0.5-0.3-0.5c-1.1,0-2.5,6-2.5,7.3C75.9,65.4,76,65.6,76.3,65.6z M84.7,67.5c0.9,0,1.8-3.3,1.8-5.3c0-0.4-0.1-0.9-0.3-0.9c-0.7,0-1.9,3.4-1.9,5.2C84.3,67.2,84.5,67.5,84.7,67.5z M79.1,64.5 c0.4,0,0.9-0.4,1.7-1.4c0.1-0.4,0.1-0.9,0.1-1.4c0-0.7-0.3-1.4-0.7-1.4c-1,0-1.5,2.7-1.5,3.5C78.7,64.1,78.9,64.5,79.1,64.5z M83.8,63.1c0-0.6-0.1-0.7-0.3-0.7c-0.3,0-0.7,0.4-1.3,1.3c0.1,1.2,0.3,1.8,0.6,1.8C83.2,65.5,83.8,64.3,83.8,63.1z M86.4,59 c2.3,0,3.3,1.9,3.3,4.1c0,1-0.3,2.4-0.7,2.4c-0.4,0-0.4-0.8-0.4-1.5c-0.1-0.9-0.2-1.1-0.5-1.1c-0.6,0-1,1.4-1,2.6 c0,0.8,0.1,1.7,0.7,1.7c0.3,0,0.6-0.2,0.9-0.4c-0.1,1.6-1.3,2.9-2.9,2.9c-3,0-4.1-3.5-4.5-5.6c-1.8,1.9-3.5,3.3-6.5,3.3 c-2.8,0-4.1-2-4.1-4c0-0.6,0.2-2.1,0.9-2.1c0.9,0,0.1,2.8,1.8,2.8c0.4,0,1.2-0.3,1.6-1.5c0.2-0.7,0.4-1.4,0.4-2 c0-0.9-0.2-1.5-0.9-1.5c-0.6,0-1.3,0.4-1.5,0.7c0.8-2.5,2.8-3.7,5-3.7c2.7,0,4.1,2.4,4.1,5.1c0,0.4,0,0.8-0.1,1.2 C83.1,60.5,84.7,59,86.4,59"></path> <path class="st10" d="M80,68.2c-1.5,0-1.5,1.8-1.5,5.4c-1.1-2.4-2.9-4.9-5-4.9c-1.4,0-2,1-2,2.6c0,0.3,0,0.9,0.1,1.2 c0.2-0.6,0.7-0.8,1.4-0.8c1.5,0,3.2,1.1,4.4,2.7c-1.3-0.2-2.6-0.5-3.7-0.5c-0.7,0-1.3,0.1-1.8,0.3c-1,0.4-2.3,1.9-2.3,4.1 c0,0.3,0,0.7,0.1,1.1c1.2-2.7,4.4-3.9,6.4-3.9c0.4,0,0.7,0,1,0.1c-1.1,1-1.3,2.6-1.4,3.8c0,0.5-0.2,0.6-0.6,0.6 c0,1.1,0.9,2.8,0.9,3.7c0,0.3-0.2,0.6-0.3,0.6c0,1.5,1.5,2.6,1.5,3.6c0,0.2-0.1,0.4-0.2,0.5c0.1,0.6,1.8,1.6,2,2.2 c0.3,0.6,0.6,0.7,0.7,0.7c0.6,0,1.5-0.7,1.5-1.3c0-0.2-0.2-0.4-0.3-0.5c-0.6-0.5-1-1.5-1.3-2.2c-0.2,0-0.5-0.1-0.7-0.5 c-0.2-0.7-0.2-2-0.5-2.8c-0.4-0.1-0.6-0.3-0.6-1.2c0-0.4,0.3-2.2,0.3-2.8c-0.2,0-0.5-0.1-0.5-0.5c0-1.1,1.1-1.9,1.4-3.3 c1.9,1.4,2.4,2.9,2.4,4.2c0,0.7-0.1,1.3-0.2,1.9c1.4-0.7,3.6-1.8,3.6-3.9c0-1.3-0.6-2.7-4.4-3.2c1.2-0.4,2.7-0.7,4-0.7 c2.2,0,3.5,0.7,3.7,2.2c0.4-0.7,0.8-1.5,0.8-2.2c0-1.7-1.4-2.8-3.2-2.8c-2.1,0-3.9,1.1-5.9,2.4c0.9-1.8,1.5-2.9,2.6-2.9 c0.2,0,0.3,0,0.5,0.1C82.4,69.7,80.9,68.2,80,68.2"></path> <path class="st10" d="M137.6,92.9c1.7,0,3.1,2.2,3.1,4.8c0,2.8-1.3,5.8-3.6,7.8c0-4.6-5.7-3.1-5.7-6.5c0-1.4,1-2.4,2.3-2.4 c1.1,0,1.9,0.3,2.6,0.9c-0.6-0.6-0.9-1.4-0.9-2.2C135.3,94.1,136.1,92.9,137.6,92.9"></path> <path class="st10" d="M107.1,60.4c0.9,0.9,1.7,1.2,2.6,1.2c0.4,0,0.8-0.1,1.1-0.1c0.3,0,0.5,0.1,0.5,0.4c0,0.4-0.3,1-0.8,1.3 c0.4,0.2,0.9,0.2,1.3,0.2c1.9,0,4.2-1.2,4.2-4.3c0.4,0.5,0.7,1.7,0.7,2.2c0,3.7-2.7,5.2-5.3,5.2c-1.6,0-2.5-0.5-2.7-0.5 c-0.6,0-0.6,1.3-1.1,1.3c-0.8-0.1-1.5-1.9-1.5-3.7C106.2,62.4,106.5,61.3,107.1,60.4z M112.2,57.9c-0.3-0.4-1.3-0.7-1.8-0.7 c-1.5,0-2.5,1.1-2.7,2c-0.1-0.3-0.2-0.8-0.2-1.2c0-1.5,1-3.3,3.5-3.3c2.2,0,3,1.2,3.3,1.2c0.3,0,0.7-0.3,1-0.3c0.4,0,0.4,0.6,0.4,1 c0,1.4-0.6,3.7-2.2,4.6c-0.3-0.6-0.8-1.2-1.7-1.6c-0.2-0.1-0.3-0.3-0.3-0.5C111.5,58.6,111.8,58.1,112.2,57.9"></path> <path class="st10" d="M83.3,50.5c0,1.2,4.3,7,5.1,7c0.7,0,1.2-1.2,1.2-2.2c0-0.3-0.1-0.5-0.2-0.7c-0.6-0.9-5-4.3-5.9-4.3 C83.4,50.3,83.3,50.4,83.3,50.5z M58.2,47c0,0.7-2.6,3-3.5,3c-0.3,0-0.4-0.4-0.4-0.8c0-0.7,0.3-1.6,0.7-1.9 c0.4-0.4,1.5-0.6,2.3-0.6C57.7,46.6,58.2,46.7,58.2,47z M89.4,48.9c0-2.1-5.5-5.8-5.6-7.4c0-0.1,0.1-0.3,0.2-0.4 c0.9-1,4.9-1.7,4.9-2.6c0-0.4-0.8-0.4-1.2-0.4c-3.2,0-7.8,1.2-7.8,2.3c0,1.2,4.2,4,4.2,5.4c0,0.4-0.2,0.5-0.6,0.5 c-1.2,0-3.7-1.4-4.9-1.4c-0.5,0-0.8,0.4-0.8,0.9c0,1.6,1.9,4.7,1.9,5.7c0,0.1,0,0.2-0.2,0.2c-0.6,0-3.5-3.4-4.5-3.4 c-0.4,0-0.4,0.5-0.4,1.3v1.2c0,0.8,0,1.3-0.4,1.3c-0.9,0-1.3-2.5-2.2-2.5c-0.9,0-1.1,4.4-1.9,4.4c-1,0-0.1-4.9-1.1-4.9 c-1.1,0-2.3,3.2-3,3.2c-0.3,0-0.3-0.3-0.3-0.5c0-1,0.6-2.6,0.6-3.6c0-0.5-0.1-0.8-0.5-0.8c-1.1,0-3.4,1.7-4.3,1.7 c-0.1,0-0.3-0.1-0.3-0.2c0-0.8,3.7-3.4,3.7-4.6c0-1.1-5.1-0.4-5.1-1.7c0-1.1,3.7-2.2,3.7-3.3c0-1-4.3-1.4-6-1.4 c-2,0-3.1,0.2-3.1,0.8c0,0.9,4.6,1.2,4.6,1.9c0,0.8-4.7,2.8-4.7,3.9c0,1,6.7,0.1,6.7,1.1c0,1.2-5.8,6.2-5.8,7.9 c0,0.4,0.3,0.5,0.6,0.5c1.8,0,6.4-3.4,7.7-3.4c0.4,0,0.5,0.5,0.5,1c0,0.9-0.3,2.3-0.3,3.2c0,0.8,0.2,1.3,0.9,1.3 c1.3,0,2.4-2.2,3.3-2.2c1.1,0,0.4,6.3,2.1,6.3c1.4,0,2-6.8,2.9-6.8s1.6,2,2.4,2c1,0,0.5-3.4,1.6-3.4c1.2,0,4.6,4.1,6.1,4.1 c0.5,0,0.6-0.4,0.6-0.9c0-1.8-2.5-5.9-2.5-7.2c0-0.3,0.1-0.4,0.5-0.4c1.3,0,5.2,1.8,7.1,1.8C89.1,49.7,89.4,49.4,89.4,48.9z M85.9,42.2c0,0.6,2.2,1.9,3.1,1.9c0.6,0,0.8-0.8,0.8-1.6c0-1-0.4-1.1-1.3-1.1C87.3,41.5,85.9,41.8,85.9,42.2z M77.9,38.7 c0-0.2-1-0.4-2.4-0.4c-2.2,0-1.9,1.8-3.6,1.8c-1.8,0-1.3-1.9-3.6-1.9c-1.4,0-2.6,0.2-2.6,0.5c0,0.4,1.6,0.2,1.6,1.4 c0,1.2-3.5,1.5-3.5,2.3c0,0.2,0.3,0.3,0.6,0.3c0.8,0,1.9-0.3,2.8-0.3c0.5,0,0.9,0.1,0.9,0.5c0,0.9-1.8,2.4-1.8,3.1 c0,0.2,0.2,0.3,0.3,0.3c0.7,0,1.8-1.7,2.9-1.7c1.8,0,0.6,3.9,1.6,3.9c1,0,0.6-3.8,2-3.8c1.2,0,2.1,2.6,2.9,2.6 c0.2,0,0.4-0.2,0.4-0.4c0-0.7-1-2.2-1-3.1c0-0.6,0.4-0.9,1-0.9c0.8,0,1.8,0.5,2.4,0.5c0.2,0,0.4-0.1,0.4-0.3c0-0.8-3-1.7-3-2.8 C76.2,39.2,77.9,39.2,77.9,38.7"></path> <path class="st10" d="M138.4,44.2c0,3-2.2,5.4-6.2,6c0.4,0,0.9,0,1.3,0c4.7,0,6.4-2.1,6.4-3.9C139.8,45.4,139.3,44.5,138.4,44.2z M132.6,47.7c0-2.4-5.8-3-5.8-3.6c0-0.4,3.2-1.2,4.9-1.2c-2.6-3.3-6.2-2.9-6.2-3.5c0-0.3,2.7-1,5.3-1c2.1,0,4.1,0.5,4.1,2.1 c0,0.9-0.7,1.8-0.7,3.2c0,0.8,0.4,1.4,1.4,1.4c1.1,0,1.3-1.1,1.3-2.3c0-1-0.2-1.7-0.2-2.2c0-1.4,1-2.4,2.4-2.4 c1.2,0,1.4,0.5,3.1,0.5c-0.9,0.5-1.3,1.5-1.3,2c0,1.4,0.9,2.4,0.9,5.4c0,5.4-5.1,7.3-11.2,7.3c-1.7,0-3.5-0.1-5.3-0.4 c-0.3,0-0.3-0.1-0.3-0.3c0-0.4,2.4-0.7,2.4-2.9c0-0.9-0.3-1.7-0.3-2c0-0.2,0.1-0.3,0.3-0.3c0.5,0,1.5,2,3.4,2 C131.4,49.4,132.6,49.2,132.6,47.7z M138.2,40.1c0,0.5,0.4,0.9,0.9,0.9c0.5,0,0.9-0.4,0.9-0.9c0-0.5-0.4-0.9-0.9-0.9 C138.6,39.3,138.2,39.6,138.2,40.1"></path> <path class="st10" d="M135.2,71.7c0-0.7-1.8-0.8-2-2.8c0-0.3-0.1-0.9-0.5-0.9c-0.6,0-0.1,1.9-0.8,1.9c-1.6,0-2.1-3.1-2.7-3.1 c-0.1,0-0.3,0.1-0.3,0.5c0,0.4,0.1,0.6,0.1,1.1c0,0.4-0.1,0.8-0.5,0.8c-0.9,0-1.7-2.2-2.5-2.2c-0.2,0-0.3,0.1-0.3,0.3 c0,0.4,0.7,1.2,0.7,1.5c0,0.8-2.2,0.4-2.2,1.1c0,0.3,0.3,0.4,0.7,0.4c0.7,0,1.8-0.3,2.4-0.3c0.3,0,0.9,0.1,0.9,0.5 c0,0.5-1.2,1.1-1.2,1.5c0,0.2,0.2,0.3,0.4,0.3c0.9,0,2.6-1.6,3.7-1.6c0.2,0,0.7,0.1,0.7,0.4c0,0.4-1.2,1.2-1.2,1.9 c0,0.2,0.1,0.4,0.3,0.4c0.6,0,1.4-1.6,2.6-1.6c0.4,0,1.1,0.2,1.4,0.2C135.1,72,135.2,71.8,135.2,71.7z M136.1,88.3 c0.5-1.7,1.2-2.9,2.4-4.7c-1.1-0.6-4.1-1.8-4.1-3.8c0-2.4,2.9-4.2,3.5-4.2c0.3,0,0.3,0.2,0.3,0.7c0,1.2-0.6,3.2-0.6,4.3 c0,1,0.6,1.9,1.2,1.9c0.6,0,2.2-2,2.2-4.1c0-3.6-3.2-4.7-4.2-4.7c-0.9,0-2.6,1.5-6.5,1.5c-7.3,0-9-7.3-9-10.5c0-0.1,0-0.2,0.1-0.2 c0.2,0,0.9,0.9,3.2,0.9c1.2,0,2.3-0.3,4-0.3c4.1,0,5.9,2.8,8.4,6.5c1.5,1,5.2,2.5,5.2,6.8c0,3.8-4.1,5.9-5.1,10 c1.6-0.2,2.5-3,4.1-3c0.8,0,1.2,0.6,1.2,1.7c0,1.5-0.9,3.8-2.5,5.2c0-0.1,0-0.3,0-0.5c0-1-0.4-2.3-1.5-2.3c-1.7,0-2.2,1.8-3.2,3.4 c-1-3.5-2.3-6.6-4.7-8.5c-2.4-1.9-6.6-0.9-6.6-4.4c0-1,0.6-2.3,0.6-3.4c0-0.4-0.1-0.7-0.3-1c3.3,1.2,2.1,3.4,4.1,5.7 c1.3,1.4,4.7,2.8,6.8,8.7c0-0.2,0.1-0.6,0.1-0.9c0-5.1-6.7-10-7.3-12.1c3.9,0.4,4.6,1.4,6.4,6.5C134.8,84.3,136.1,87,136.1,88.3"></path> <path class="st10" d="M117.4,52.1c-2.4,0-4-1.2-4-1.8c0-0.3,0.2-0.5,0.5-0.5c0.8,0,2.4,1.2,2.9,1.2c0.1,0,0.2-0.1,0.2-0.3 c0-0.6-0.6-1.6-0.6-2.2c0-0.1,0.1-0.2,0.3-0.2c0.9,0,2.3,0.4,3,0.4c0.2,0,0.3-0.1,0.3-0.3c0-0.8-2.2-2.2-2.2-2.7 c0-0.4,2.8-1,2.8-1.7c0-0.7-3.8-0.2-3.8-0.9c0-0.5,0.7-1.3,0.7-1.7c0-0.2-0.1-0.2-0.4-0.2c-0.3,0-1.9,0.6-2.6,0.6 c-0.3,0-0.8-0.1-0.8-0.5c0-0.8,1.3-1.6,3.4-1.6c3.4,0,5.4,2.3,5.4,6.2C122.7,50.9,119.2,52.1,117.4,52.1z M110.7,45.6 c0-0.4-1.3-1.1-1.3-1.5c0-0.1,0.1-0.1,0.2-0.1c0.4,0,1,0.1,1.5,0.1c0.4,0,0.5-1.9,0.8-1.9c0.2,0,0.6,1.8,1,1.8 c0.4,0,1.3-0.5,1.6-0.5c0.1,0,0.1,0,0.1,0.1c0,0.2-0.9,1.2-0.9,1.4c0,0.3,1.9,0.7,1.9,1c0,0.3-1.9,0.3-1.9,0.6 c0,0.2,0.7,1.2,0.7,1.5c0,0.1,0,0.1-0.1,0.1c-0.3,0-1.3-0.5-1.6-0.5c-0.4,0-1,1.4-1.3,1.4c-0.1,0-0.2-0.1-0.2-0.3l-0.1-1.4 c0-0.1-0.1-0.3-0.2-0.3c-0.4,0-1.2,0-1.4,0c-0.2,0-0.2,0-0.2-0.1C109.3,46.8,110.7,45.9,110.7,45.6z M109.7,51.2 c0.5,0,0.7,1.3,0.8,2.1c0.1,0.4,0.1,0.4,0.3,0.4c0.4,0,1.1-1.6,1.5-1.6c0.6,0,2.4,1.8,5.3,1.8c4.1,0,8-2.9,8-8c0-5-3.5-7.9-8.3-7.9 c-2.3,0-4,1.1-4.9,1.1c-0.5,0-1.4-1.3-1.8-1.3c-0.2,0-0.3,0.3-0.3,0.9c0,0.4,0,1.6-0.4,1.6c-0.8,0-4-2.4-4-1.5 c0,0.8,2.1,3.2,2.1,3.8c0,0.6-2.1,1.2-2.1,1.6c0,0.8,2.2,0.9,2.2,1.8c0,1-2.3,1.7-2.3,2.4c0,0.6,2.3,0.2,2.3,0.9 c0,0.7-1.7,3.1-1.7,3.8c0,0.2,0,0.2,0.2,0.2C107.3,53.4,109.2,51.2,109.7,51.2"></path> <path class="st10" d="M94.2,111.2c0,0.3-0.1,0.6-0.4,1c-0.4-0.7-1.4-1-1.9-1c-3.5,0-2.2,5.1-5.9,5.1c-1.6,0-1.7-0.2-2.3-0.2 c-0.2,0-0.4,0.1-0.4,0.3c0,0.9,1.3,3.1,4.8,3.1c3.5,0,6.9-2.2,6.9-4.8c0-0.4-0.1-0.9-0.3-1.4c0.1-0.2,0.5-0.3,0.8-0.3 c0.5,0,0.9,0.6,1.4,0.6c0.5,0,1-0.4,1-1c0-0.4-0.2-0.8-0.6-1c0.3-0.2,0.5-0.5,0.5-0.9c0-0.6-0.4-1.1-1.1-1.1 c-0.3,0-0.5,0.1-0.7,0.3c-0.1-0.6-0.4-1.2-1.1-1.2c-0.5,0-0.9,0.4-0.9,1C93.9,110.2,94.2,110.6,94.2,111.2"></path> <path class="st10" d="M75.5,104.9c2.7,0.7,4.1,2.1,4.4,3.9c0.3,1.7,0.6,3,1.3,3.7c0.9,1,2.5,1.8,4,1.8c1.2,0,2.2-0.4,2.2-1.5 c0-1.2-1.7-4-4.1-4c-0.2,0-0.5,0-0.9,0c-0.3,0-0.8-0.1-1-0.3c-0.5-0.5-0.7-3-1.7-4.6c-1.1-1.7-2.4-2.2-4-2.2 c-1.2,0-2.5,0.6-2.5,1.6C73,103.9,73.3,104.3,75.5,104.9z M85.1,112.5c-1,0-2.6-1.1-2.6-1.7c0-0.5,0.5-0.8,0.9-0.8 c0.9,0,2.4,1.1,2.4,1.9C85.7,112.2,85.6,112.5,85.1,112.5"></path> <path class="st10" d="M81.9,85.9c0-2.2,5.2-3.3,5.2-6c0-0.4-0.2-1.2-0.5-1.8c1.8,1,3.1,2.7,3.1,4c0,2.4-2.5,3.5-2.5,4.9 c0,1.7,2.6,2,2.6,4.1c0,1.7-2.5,3.8-2.5,6c0,1.7,1.2,3.2,3.1,3.4c-0.6,0.1-1.2,0.2-1.7,0.2c-3.5,0-7-2.8-7-6.2 c0-1.7,0.7-3.1,1.8-4.2c1,0.8,1.9,1.4,2.5,1.4c0.5,0,0.8-0.3,0.8-0.7C86.9,89.8,81.9,88.6,81.9,85.9z M92.8,103.1 c-1.2,0.5-1.6,0.4-1.6,1.6c0,0.4-0.1,1-0.1,1.3c0,0.4,0.1,0.6,0.5,0.6c1.2,0,3.2-2.1,3.2-3.9c0-0.5-0.3-0.7-0.6-0.7 C93.9,102.2,93.6,102.8,92.8,103.1z M92.7,100.7c0-1.5-3.2-1.6-3.2-3.9c0-0.6,0.4-1.6,1.1-2.6c0.3,1.8,1,2.7,2.6,3.3 c3,1.1,3.4,2.8,3.4,4.6c0,3.1-2.2,6.9-7.7,6.9c-4.4,0-7.6-4-7.6-7.3c0-0.9,0.2-1.9,0.8-1.9c0.5,0,0.7,0.4,1.1,0.8 c1.5,1.5,3.2,1.9,5.6,1.9C91.1,102.5,92.7,101.6,92.7,100.7"></path> <path class="st10" d="M68.5,101.4c0.1,0.7-0.4,1.4-1.1,1.4c-0.7,0.1-1.4-0.4-1.4-1.1c-0.1-0.7,0.4-1.4,1.1-1.4 S68.4,100.7,68.5,101.4z M62.1,102.8c0.1,1.2,1.2,2.1,2.5,1.9c0.4,0,0.9-0.2,1.1-0.3c0.3,1.1,1.2,1.8,2.4,1.6 c1.3-0.2,2.1-1.2,2-2.4c0-0.3-0.1-0.5-0.2-0.8c0,0,0.2,0,0.3,0c1.2-0.2,2.1-1.2,2-2.4c-0.1-1.2-1.2-2.1-2.4-2 c-0.4,0.1-0.9,0.2-1.1,0.5c-0.3-1-1.3-1.9-2.6-1.7c-1.2,0.2-2,1.2-1.9,2.5c0,0.2,0.1,0.4,0.2,0.7c0,0-0.2,0-0.3,0.1 C63,100.4,61.9,101.4,62.1,102.8"></path> </g> </svg> 