<?xml version="1.0" encoding="UTF-8"?> <!-- Generator: Adobe Illustrator 24.3.0, SVG Export Plug-In . SVG Version: 6.00 Build 0) --> <svg xmlns="http://www.w3.org/2000/svg" xmlns:xlink="http://www.w3.org/1999/xlink" version="1.1" id="Camada_1" x="0px" y="0px" viewBox="0 0 200 200" style="enable-background:new 0 0 200 200;" xml:space="preserve"> <style type="text/css"> .st0{fill:#044F9E;} .st1{fill:#E30613;} .st2{fill:#0D4F9E;} .st3{fill:#FFFFFF;} .st4{fill:#B42026;} .st5{fill:#421613;} .st6{fill:#FFD30F;} .st7{fill:#020203;} .st8{fill:#4887C7;} .st9{clip-path:url(#SVGID_2_);fill:#1867A7;} .st10{fill:#1867A7;} .st11{fill:#231F20;} .st12{fill:#EDAD0B;} .st13{fill-rule:evenodd;clip-rule:evenodd;fill:#231F20;} .st14{fill:#1683C4;} .st15{fill:#9E1925;} .st16{fill:#1C3257;} </style> <g> <path class="st4" d="M64,97.9c4.1-1.7,5.7-3.9,5.7-6.8c0-4.9-4.3-7.1-11.3-7.1H45.9c0.8,1.2,1.5,2.5,1.5,4.4v9.7 c-3.7,0.7-7,1.4-10.1,2.1c-2.8-7.7-5.9-16.2-5.9-16.2h-7.8c0.1,1.1,0,2.2-0.6,3.8l-8.7,24.3c0,0-0.6,1.7-1.8,3.3H19 c-0.1-0.8,0-1.9,0.3-2.6c0.6-1.9,2.4-3.2,4.2-4c2.4-1.1,6.6-2.4,8.5-3l2.1,5.9c0,0,0.8,2.2,0.4,3.7h9c-1.4-1.8-1.8-3.2-1.8-3.3 c-0.2-0.6-1.4-3.9-2.9-8c2.8-0.7,5.6-1.2,8.7-1.8v8.6c0,1.7-0.7,3.1-1.5,4.4h11.9c1.9,0,3.7-0.1,5-0.3c5.1-0.9,8.8-3.5,8.8-9.1 C71.6,101.7,68.7,99.2,64,97.9 M23.8,104.4c-0.8,0.4-1.7,0.9-2.3,1.5c1.7-5,4.1-11.9,5.2-15.1l3.9,11.2 C28.7,102.5,25.7,103.5,23.8,104.4z M54.4,88c1.2-0.1,1.7-0.1,2.5-0.1c3.8,0,5.6,1.6,5.6,3.9c0,2.2-1.4,3.5-3.8,4.2 c-1,0.3-2.7,0.6-4.3,0.9C54.4,96.9,54.4,88,54.4,88z M57.3,111.5h-2.9v-10.4c1.1-0.3,2.8-0.6,3.9-0.7c3.5,0.8,6,2.2,6,5.8 C64.3,110.3,61.3,111.5,57.3,111.5"></path> <g> <path class="st5" d="M74.8,115.4c1.5-2.3,1.5-4.4,1.5-4.4V88.5c0,0,0-2.1-1.5-4.4h10.1c-1.5,2.3-1.5,4.4-1.5,4.4V111 c0,0,0,2.1,1.5,4.4H74.8z"></path> <path class="st5" d="M187.3,93.3h-6.7c0.6,0.9,0.3,2.4-0.3,3.9l-4.4,11.6l-4.5-11.6c-0.6-1.5-0.8-3-0.3-3.9h-8.7 c1.2,1.3,1.9,2.9,2.4,3.9l7.5,18.1h5.8c0,0,0.1-1.5,0.8-3.1l0,0l6-15C185.5,96.2,186.3,94.4,187.3,93.3"></path> <path class="st5" d="M163.4,105c0.4-4.6-0.8-12.6-11-12.6c-8.3,0-11.4,5.8-11.4,11.4c0,7.2,3.9,12.1,13.3,12.1 c3.8,0,6.9-1.1,8.7-2.2l-1.9-4.1c-1.8,0.9-3.9,1.7-6.3,1.7c-4.2,0-6.8-1.5-7.3-5.6h9C159.9,105.6,162.6,105.4,163.4,105 M147.5,101.8c0.4-3.6,2-5.4,4.9-5.4c3,0,4.5,2.3,4.6,5.3c0,0-1.3,0-3,0H147.5z"></path> <path class="st5" d="M102.1,115.4h8.9c-1.4-2-1.4-3.9-1.4-3.9V99.7c0-4.2-2.3-6.8-7.1-6.8c-3.1,0-5.6,1.4-7.4,3.1v-2.6h-7.6 c1.4,2.1,1.4,3.9,1.4,3.9v14.2c0,0,0,1.9-1.4,3.9h8.9c-1.4-2-1.4-3.9-1.4-3.9V99.7c1.1-1.2,2.8-2,4.6-2c2.7,0,3.7,1.5,3.7,3.9v9.9 C103.4,111.5,103.4,113.3,102.1,115.4"></path> <path class="st5" d="M125.1,100.6c4.4,0,6.8,2.1,6.8,5.6c0,3.1-1.9,5.4-6.9,5.4h-3v-11C122,100.6,125.1,100.6,125.1,100.6z M124.5,87.9c3.8,0,5.6,1.5,5.6,4.3c0,2.8-1.6,4.5-5.3,4.5c-0.7,0-2,0-2.8,0v-8.8H124.5z M125.3,115.4c1.9,0,3.8-0.1,5.1-0.3 c5-0.9,8.7-3.4,8.7-9c0-4.4-2.8-6.8-7.3-8c4-1.5,5.3-3.7,5.3-6.5c0-4.9-4-7.4-11.2-7.4h-12c0.8,1.3,1.1,3.1,1.1,4.4V111 c0,1.5-0.3,3-1.1,4.4H125.3z"></path> </g> </g> </svg> 