<?xml version="1.0" encoding="UTF-8"?> <!-- Generator: Adobe Illustrator 24.3.0, SVG Export Plug-In . SVG Version: 6.00 Build 0) --> <svg xmlns="http://www.w3.org/2000/svg" xmlns:xlink="http://www.w3.org/1999/xlink" version="1.1" id="Camada_1" x="0px" y="0px" viewBox="0 0 200 200" style="enable-background:new 0 0 200 200;" xml:space="preserve"> <style type="text/css"> .st0{fill:#044F9E;} .st1{fill:#E30613;} .st2{fill:#0D4F9E;} .st3{fill:#FFFFFF;} .st4{fill:#B42026;} .st5{fill:#421613;} .st6{fill:#FFD30F;} .st7{fill:#020203;} .st8{fill:#4887C7;} .st9{clip-path:url(#SVGID_2_);fill:#1867A7;} .st10{fill:#1867A7;} .st11{fill:#231F20;} .st12{fill:#EDAD0B;} .st13{fill-rule:evenodd;clip-rule:evenodd;fill:#231F20;} .st14{fill:#1683C4;} .st15{fill:#9E1925;} .st16{fill:#1C3257;} </style> <g> <polygon class="st6" points="21.5,51.9 21.5,153.8 150.6,153.8 184.4,51.9 "></polygon> <path class="st7" d="M66.3,68.3c-1.3-1.1-2.9-1.5-4.7-1.5c-1.8,0-3.4,1.3-3.4,2.7c0,0.9,0.5,1.5,2,2l2.4,0.7 c2.7,0.9,4.2,2.4,4.2,4.7c0,4.5-3.8,8.4-10.2,8.4c-2.9,0-5.1-0.7-6.9-1.8l2.2-3.3c1.8,1.1,3.3,1.6,5.4,1.6c2.7,0,4.4-1.5,4.4-3.4 c0-1.1-0.7-1.8-2.2-2.2l-2.2-0.7c-2.4-0.7-3.8-2-3.8-4.4c0-4.2,4-7.6,8.9-7.6c2.5,0,5.1,0.7,6.5,2.2L66.3,68.3z"></path> <path class="st7" d="M77.5,72.3h-2.7l-1.6,7.8C73,80.6,73,81,73,81.4c0,0.9,0.4,1.1,1.3,1.1c0.4,0,1.1-0.2,1.5-0.4v2.4 c-1.1,0.4-2.4,0.7-3.4,0.7c-2.4,0-3.6-1.1-3.6-2.7c0-0.5,0-1.3,0.2-2l1.8-8.4h-1.3l0.5-2.7h1.5c0.4-1.5,0.5-2.5,0.9-3.6l4.2-1.1 c-0.4,1.5-0.9,3.1-1.3,4.7h3.6L77.5,72.3z"></path> <path class="st7" d="M92,74.1l-1.3,5.8c-0.4,1.3-0.2,2.2,0.5,3.1L88,85.5C87.3,85,87,84.3,87,83.7c-1.1,1.3-2.4,1.8-4.2,1.8 c-2.7,0-4.2-1.6-4.2-4.9c0-3.6,1.5-6.9,3.3-8.9c1.6-1.6,3.6-2.4,6.2-2.4c1.8,0,3.8,0.4,5.1,1.1C92.8,71.2,92.2,72.8,92,74.1 M87.3,72.3c-0.9,0-1.8,0-2.9,1.3c-1.3,1.5-1.8,4.5-1.8,6.5c0,1.5,0.4,2,1.3,2c1.3,0,2.5-1.3,2.9-2.4l1.6-7.3 C88.2,72.5,87.7,72.3,87.3,72.3"></path> <path class="st7" d="M100,69c0.2,0.5,0.4,1.8,0.4,2.5c1.3-1.5,2.9-2.4,5.3-2.4c2,0,3.1,1.1,3.1,3.1c0,0.7,0,1.5-0.2,2.2L106.4,85 h-4l2.2-10c0.2-0.5,0.2-1.1,0.2-1.5c0-0.7-0.4-0.9-1.1-0.9c-0.9,0-2.2,0.5-3.4,2.4L98,85h-4l2.2-10.3c0.4-1.6,0.4-3.1,0-4L100,69z"></path> <path class="st7" d="M117.6,67.2l-2.4,11.4c-0.4,1.8-0.5,2.5-0.5,2.9c0,0.5,0.2,0.9,0.7,0.9c0.2,0,0.4,0,0.4,0l0.2,2.4 c-0.7,0.2-1.6,0.4-2.5,0.4c-2.2,0-3.3-1.1-3.3-2.7c0-0.5,0.2-1.6,0.4-2.7l2.4-11.4c0.4-2,0.7-3.4,0.4-4.5l4.4-1.3 C118.2,63.2,118.2,65.4,117.6,67.2"></path> <path class="st7" d="M130.7,83.2c-2,1.5-4.2,2.2-6.4,2.2c-3.6,0-5.8-2-5.8-5.6c0-3.3,1.5-6.5,3.4-8.5c1.5-1.5,3.3-2,5.3-2 c3.1,0,5.3,1.3,5.3,4.2c0,2.9-2.7,5.3-7.8,5.3c-1.1,0-1.8-0.2-1.8-0.2s-0.2,0.9-0.2,1.5c0,1.8,0.9,2.5,2.5,2.5 c1.5,0,2.9-0.5,4.4-1.6L130.7,83.2z M124.7,75.9c1.8,0,3.8-0.5,3.8-2.2c0-0.9-0.4-1.6-1.6-1.6c-1.5,0-2.7,0.9-3.3,3.6 C123.6,75.7,124.2,75.9,124.7,75.9"></path> <path class="st7" d="M138.7,69.2l0.7,9.1c0,0.9,0.2,3.3,0.2,3.3s1.1-2.7,2-4.5l3.8-7.3h4.4l-8.9,15.6c-1.6,2.9-2.7,4.4-4,5.1 c-1.1,0.7-2.5,1.3-4,1.5l-0.7-2.7c0.9-0.2,2-0.5,2.7-0.9c1.3-0.7,1.6-1.5,2.7-3.1h-1.1c0-1.1-0.2-3.1-0.4-4.4l-1.5-10.9L138.7,69.2 z"></path> <path class="st7" d="M55.8,93.8c3.1,0,5.4,1.5,5.4,4.5c0,2-1.3,4.4-4.4,5.3c2,0.4,3.1,2.2,3.1,4c0,1.3-0.5,3.4-2,4.9 c-1.5,1.6-3.3,2.2-6.5,2.2h-7.6l4.5-20.9C48.4,93.8,55.8,93.8,55.8,93.8z M48.7,111.4h2.7c0.9,0,1.6-0.2,2.2-0.5 c0.9-0.5,1.6-2,1.6-3.1c0-1.5-0.7-2-2.7-2H50L48.7,111.4z M50.7,102.1h2.5c1.1,0,1.6-0.2,2.2-0.5c0.7-0.5,1.3-1.3,1.3-2.4 c0-1.3-0.5-1.8-2.4-1.8h-2.5L50.7,102.1z"></path> <path class="st7" d="M69.6,97.1l-2.5,11.4c-0.4,1.8-0.5,2.5-0.5,2.9c0,0.5,0.2,0.9,0.7,0.9c0.2,0,0.4,0,0.4,0l0.2,2.4 c-0.7,0.2-1.6,0.4-2.5,0.4c-2.2,0-3.3-1.1-3.3-2.7c0-0.5,0.2-1.6,0.4-2.7l2.4-11.4c0.4-2,0.7-3.4,0.4-4.5l4.4-1.3 C70,93.1,70,95.2,69.6,97.1"></path> <path class="st7" d="M84.3,104l-1.3,5.8c-0.2,1.3-0.2,2.2,0.5,3.1l-3.3,2.5c-0.7-0.5-1.1-1.3-1.1-1.8c-1.1,1.3-2.4,1.8-4.2,1.8 c-2.7,0-4.2-1.6-4.2-4.9c0-3.6,1.5-6.9,3.3-8.9c1.6-1.6,3.6-2.4,6.2-2.4c1.8,0,3.8,0.4,5.1,1.1C85.1,101.1,84.7,102.7,84.3,104 M79.8,102.1c-0.9,0-1.8,0-2.9,1.3c-1.3,1.5-1.8,4.5-1.8,6.5c0,1.5,0.4,2,1.3,2c1.3,0,2.5-1.3,2.9-2.4l1.6-7.3 C80.7,102.3,80.2,102.1,79.8,102.1"></path> <path class="st7" d="M97.2,103.2c-0.7-0.7-1.5-1.1-2.4-1.1c-0.7,0-1.3,0.4-1.8,0.9c-1.1,1.3-2.2,4.5-2.2,6.9c0,1.6,0.7,2.4,1.8,2.4 c1.1,0,2.2-0.5,3.4-1.5l1.3,2.5c-1.6,1.3-3.4,2-5.6,2c-3.4,0-5.3-2-5.3-5.3c0-3.8,1.8-7.3,4-9.1c1.5-1.1,2.9-1.8,5.1-1.8 c1.5,0,2.9,0.5,4.2,1.8L97.2,103.2z"></path> <path class="st7" d="M107.6,92.3c0.2,0.7,0.2,2.5-0.5,5.8l-3.6,16.7h-4L103,98c0.4-2.2,0.5-3.4,0.4-4.2L107.6,92.3z M115.7,99.4 l-6.4,6.7l4.2,8.7h-4.7l-3.3-8.7l5.3-6.7H115.7z"></path> <path class="st7" d="M138.6,104.5c-0.4,2-1.3,4.4-2.4,6l3.4,4.4h-5.3l-1.1-1.3c-1.5,1.1-3.3,1.8-6.2,1.8c-4.2,0-6.5-2-6.5-4.9 c0-2.5,1.8-4.7,5.1-6.2c-1.3-1.1-1.6-2.2-1.6-3.4c0-3.3,3.1-6,7.1-6c3.1,0,5.1,1.5,5.1,3.8s-0.9,4-4.7,5.8l-0.4,0.2l2.7,3.3 c0.5-0.9,0.9-2.7,1.1-3.3h3.6V104.5z M125.2,110.1c0,1.5,1.1,2.2,2.9,2.2c1.5,0,2.5-0.4,3.4-1.1l-4-4.7 C126.1,107.2,125.2,108.5,125.2,110.1 M132.4,99.1c0-0.9-0.5-1.5-1.5-1.5c-1.3,0-2.4,1.1-2.4,2.5c0,0.5,0.2,1.3,1.3,2.4 C131.4,101.8,132.4,100.3,132.4,99.1"></path> <path class="st7" d="M47.9,120c3.4,0,5.6,0.4,6.9,2c0.9,1.3,1.6,2.5,1.6,5.1c0,3.4-1.3,8-3.8,10.7c-2.2,2.4-4.4,3.1-8.9,3.1h-5.1 l4.5-20.9C43.2,120,47.9,120,47.9,120z M43.5,137.6h2c1.8,0,3.1-0.9,4-2.2c1.8-2.9,2.2-7.1,2.2-8.2c0-2-0.5-3.8-3.3-3.8h-1.8 L43.5,137.6z"></path> <path class="st7" d="M69.5,139.2c-2,1.5-4.2,2.2-6.2,2.2c-3.6,0-5.8-2-5.8-5.6c0-3.3,1.5-6.5,3.4-8.5c1.5-1.5,3.3-2,5.3-2 c3.1,0,5.3,1.3,5.3,4.2c0,2.9-2.7,5.3-7.8,5.3c-1.1,0-1.8-0.2-1.8-0.2s-0.2,0.9-0.2,1.5c0,1.8,0.9,2.5,2.5,2.5 c1.5,0,2.9-0.5,4.4-1.6L69.5,139.2z M63.7,131.9c1.8,0,3.8-0.5,3.8-2.2c0-0.9-0.4-1.6-1.6-1.6c-1.5,0-2.7,0.9-3.3,3.6 C62.4,131.8,63.1,131.9,63.7,131.9"></path> <path class="st7" d="M83.5,129.4c-0.7-0.7-1.5-1.1-2.4-1.1c-0.7,0-1.3,0.4-1.8,0.9c-1.1,1.3-2.2,4.5-2.2,6.9c0,1.6,0.7,2.4,1.8,2.4 c1.1,0,2.2-0.5,3.4-1.5l1.3,2.5c-1.6,1.3-3.4,2-5.6,2c-3.4,0-5.3-2-5.3-5.3c0-3.8,1.8-7.3,4-9.1c1.5-1.1,2.9-1.8,5.1-1.8 c1.5,0,2.9,0.5,4.2,1.8L83.5,129.4z"></path> <path class="st7" d="M93.8,118.5c0.2,0.7,0.2,2.5-0.5,5.8L89.6,141h-4l3.6-16.9c0.4-2.2,0.5-3.4,0.4-4.2L93.8,118.5z M102,125.6 l-6.4,6.7l4.2,8.7h-4.7l-3.3-8.7l5.1-6.7H102z"></path> <path class="st7" d="M113.6,139.2c-2,1.5-4.2,2.2-6.4,2.2c-3.6,0-5.8-2-5.8-5.6c0-3.3,1.5-6.5,3.4-8.5c1.5-1.5,3.3-2,5.3-2 c3.1,0,5.3,1.3,5.3,4.2c0,2.9-2.7,5.3-7.8,5.3c-1.1,0-1.8-0.2-1.8-0.2s-0.2,0.9-0.2,1.5c0,1.8,0.9,2.5,2.5,2.5 c1.5,0,2.9-0.5,4.4-1.6L113.6,139.2z M107.6,131.9c1.8,0,3.8-0.5,3.8-2.2c0-0.9-0.4-1.6-1.6-1.6c-1.5,0-2.7,0.9-3.3,3.6 C106.5,131.8,107.1,131.9,107.6,131.9"></path> <path class="st7" d="M122.3,125c0.2,0.5,0.5,1.6,0.4,2.5c1.3-1.5,2.7-2.4,4.4-2.4c0.5,0,0.9,0,1.5,0.4l-1.8,3.6 c-0.4-0.2-0.7-0.4-1.1-0.4c-0.7,0-1.6,0.4-2.9,2.2l-2.2,10.2h-4l2.2-10.2c0.4-2,0.4-3.3,0-4.4L122.3,125z"></path> </g> </svg> 