<?xml version="1.0" encoding="UTF-8"?> <!-- Generator: Adobe Illustrator 24.3.0, SVG Export Plug-In . SVG Version: 6.00 Build 0) --> <svg xmlns="http://www.w3.org/2000/svg" xmlns:xlink="http://www.w3.org/1999/xlink" version="1.1" id="Camada_1" x="0px" y="0px" viewBox="0 0 200 200" style="enable-background:new 0 0 200 200;" xml:space="preserve"> <style type="text/css"> .st0{fill:#044F9E;} .st1{fill:#E30613;} .st2{fill:#0D4F9E;} .st3{fill:#FFFFFF;} .st4{fill:#B42026;} .st5{fill:#421613;} .st6{fill:#FFD30F;} .st7{fill:#020203;} .st8{fill:#4887C7;} .st9{clip-path:url(#SVGID_2_);fill:#1867A7;} .st10{fill:#1867A7;} .st11{fill:#231F20;} .st12{fill:#EDAD0B;} .st13{fill-rule:evenodd;clip-rule:evenodd;fill:#231F20;} .st14{fill:#1683C4;} .st15{fill:#9E1925;} .st16{fill:#1C3257;} </style> <g> <g> <g> <path class="st2" d="M195.5,83.4c2.6,14.9-38,34.5-90.8,43.7C52,136.2,7.1,131.6,4.5,116.6C1.9,101.7,42.6,82.1,95.3,73 C148,63.8,192.9,68.4,195.5,83.4z"></path> </g> <g> <g> <polygon class="st3" points="145.9,105.5 145.6,90 150.5,90 150.5,109.6 143.4,109.6 138.6,93.5 138.5,93.5 138.7,109.6 133.9,109.6 133.9,90 141.2,90 145.8,105.5 "></polygon> <polygon class="st3" points="56.9,91.8 54.2,109.8 48.8,109.8 52.5,90 61.3,90 64.9,109.8 59.6,109.8 57,91.8 "></polygon> <polygon class="st3" points="79.9,105.1 82.4,90 90.4,90 90.9,109.8 85.9,109.8 85.8,92 85.7,92 82.4,109.8 77.4,109.8 74.1,92 74,92 73.8,109.8 68.9,109.8 69.3,90 77.4,90 79.8,105.1 "></polygon> <path class="st3" d="M40.5,104.2c0.2,0.5,0.1,1.1,0,1.5c-0.2,0.7-0.6,1.3-1.9,1.3c-1.2,0-2-0.7-2-1.8v-1.9h-5.3l0,1.5 c0,4.4,3.5,5.7,7.2,5.7c3.6,0,6.5-1.2,7-4.5c0.2-1.7,0.1-2.8,0-3.2c-0.8-4.1-8.3-5.4-8.9-7.7c-0.1-0.4-0.1-0.8,0-1 c0.1-0.6,0.6-1.3,1.8-1.3c1.2,0,1.8,0.7,1.8,1.8c0,0.4,0,1.2,0,1.2h4.9v-1.4c0-4.3-3.9-5-6.7-5c-3.5,0-6.4,1.2-6.9,4.4 c-0.1,0.9-0.2,1.7,0,2.7C32.5,100.5,39.5,101.6,40.5,104.2z"></path> <path class="st3" d="M104.8,104.2c0.2,0.5,0.1,1.1,0,1.4c-0.2,0.7-0.6,1.3-1.9,1.3c-1.2,0-2-0.7-2-1.8l0-1.9h-5.2l0,1.5 c0,4.4,3.4,5.7,7.1,5.7c3.5,0,6.5-1.2,6.9-4.5c0.2-1.7,0.1-2.8,0-3.2c-0.8-4.1-8.3-5.3-8.8-7.6c-0.1-0.4-0.1-0.8,0-1 c0.1-0.6,0.6-1.3,1.8-1.3c1.1,0,1.8,0.7,1.8,1.8c0,0.4,0,1.2,0,1.2h4.9v-1.4c0-4.3-3.8-4.9-6.6-4.9c-3.5,0-6.3,1.1-6.8,4.3 c-0.1,0.9-0.2,1.7,0,2.6C96.8,100.5,103.8,101.6,104.8,104.2z"></path> <path class="st3" d="M121.4,106.8c1.4,0,1.8-0.9,1.9-1.4c0-0.2,0.1-0.5,0-0.8V90h5v14.2c0,0.4,0,1.1,0,1.3 c-0.4,3.7-3.3,4.9-6.9,4.9c-3.6,0-6.6-1.2-6.9-4.9c0-0.2-0.1-0.9,0-1.3V90h5v14.6c0,0.3,0,0.5,0,0.8 C119.6,105.9,120,106.8,121.4,106.8z"></path> <path class="st3" d="M162.7,106.6c1.4,0,1.9-0.9,2-1.4c0-0.2,0-0.5,0-0.8v-2.9h-2v-2.9h7v5.3c0,0.4,0,0.6-0.1,1.3 c-0.3,3.6-3.5,4.9-7,4.9c-3.5,0-6.6-1.3-7-4.9c-0.1-0.7-0.1-0.9-0.1-1.3l0-8.3c0-0.4,0-1,0.1-1.3c0.4-3.7,3.4-4.9,6.9-4.9 c3.5,0,6.6,1.2,6.9,4.9c0.1,0.6,0,1.3,0,1.3v0.7h-5v-1.1c0,0,0-0.5-0.1-0.8c-0.1-0.4-0.5-1.4-2-1.4c-1.4,0-1.9,0.9-2,1.4 c-0.1,0.3-0.1,0.6-0.1,0.9v9c0,0.2,0,0.5,0.1,0.8C160.7,105.7,161.2,106.6,162.7,106.6z"></path> </g> </g> </g> </g> </svg> 