<?xml version="1.0" encoding="UTF-8"?> <!-- Generator: Adobe Illustrator 24.3.0, SVG Export Plug-In . SVG Version: 6.00 Build 0) --> <svg xmlns="http://www.w3.org/2000/svg" xmlns:xlink="http://www.w3.org/1999/xlink" version="1.1" id="Camada_1" x="0px" y="0px" viewBox="0 0 200 200" style="enable-background:new 0 0 200 200;" xml:space="preserve"> <style type="text/css"> .st0{fill:#044F9E;} .st1{fill:#E30613;} .st2{fill:#0D4F9E;} .st3{fill:#FFFFFF;} .st4{fill:#B42026;} .st5{fill:#421613;} .st6{fill:#FFD30F;} .st7{fill:#020203;} .st8{fill:#4887C7;} .st9{clip-path:url(#SVGID_2_);fill:#1867A7;} .st10{fill:#1867A7;} .st11{fill:#231F20;} .st12{fill:#EDAD0B;} .st13{fill-rule:evenodd;clip-rule:evenodd;fill:#231F20;} .st14{fill:#1683C4;} .st15{fill:#9E1925;} .st16{fill:#1C3257;} </style> <g id="g10" transform="matrix(1.3333333,0,0,-1.3333333,0,559.56)"> <g id="g12" transform="scale(0.1)"> <path id="path14" class="st11" d="M981.9,3298.8c-2.4-0.5-6.7-1.3-10.5-1.3c-13.1,0-20.4,5.5-20.4,20.4c0,15.5,9.8,21,22.2,21 c3.8,0,6.4-0.7,8.3-1.3v-7.3c-1.4,0.4-5.5,1.1-8.5,1.1c-7.2,0-12.8-1.1-12.8-13.2c0-12,5.9-13.3,12.4-13.3c3.5,0,6.3,0.7,9.4,1.3 L981.9,3298.8"></path> <path id="path16_1_" class="st11" d="M1018.7,3318.3c0,10.7-3.5,14-9.2,14c-5.8,0-9.4-3.9-9.5-14c-0.2-10.2,3.5-14.1,9.4-14.1 C1015,3304.3,1018.7,3307.6,1018.7,3318.3z M990.7,3318.3c0,15.4,7.4,20.7,18.7,20.7c11.2,0,18.5-5.7,18.5-20.7 c0-15-7.3-20.7-18.6-20.7C998.1,3297.6,990.7,3303.2,990.7,3318.3"></path> <path id="path18_1_" class="st11" d="M1050.4,3319c4.3,0,8.1,1.3,8.1,6.4c0,5.1-3,5.9-8,5.9h-2.8V3319H1050.4z M1039,3338.4h11.2 c12.4,0,17.4-3.3,17.4-12.6c0-7.6-3.9-9.7-8.5-11v-0.7l1.2-0.2c4.2-1.6,6.7-9.6,9.3-14.6v-1.1h-9.7c-1.9,5.4-3.9,13.5-8,14.7h-4.3 v-14.7h-8.7L1039,3338.4"></path> <path id="path20_1_" class="st11" d="M1088.6,3318.2h3.2c5.1,0,7.6,1.6,7.6,6.6c0,5.1-2.5,6.5-7.2,6.5h-3.6V3318.2z M1079.9,3338.4h11c11.9,0,17.7-2.7,17.7-13.1c0-10.3-6.9-13.3-15.5-13.3h-4.4v-13.9h-8.7V3338.4"></path> <path id="path22_1_" class="st11" d="M1144,3318.3c0,10.7-3.5,14-9.2,14c-5.8,0-9.4-3.9-9.5-14c-0.2-10.2,3.5-14.1,9.4-14.1 C1140.4,3304.3,1144,3307.6,1144,3318.3L1144,3318.3z M1116.1,3318.3c0,15.4,7.5,20.7,18.7,20.7s18.5-5.7,18.5-20.7 c0-15-7.3-20.7-18.6-20.7C1123.4,3297.6,1116.1,3303.2,1116.1,3318.3"></path> <path id="path24" class="st11" d="M1175.8,3319c4.3,0,8.1,1.3,8.1,6.4c0,5.1-3,5.9-8,5.9h-2.8V3319H1175.8z M1164.4,3338.4h11.2 c12.4,0,17.4-3.3,17.4-12.6c0-7.6-3.9-9.7-8.6-11v-0.7l1.2-0.2c4.2-1.6,6.7-9.6,9.3-14.6v-1.1h-9.7c-1.9,5.4-3.9,13.5-8,14.7h-4.3 v-14.7h-8.7V3338.4"></path> <path id="path26" class="st11" d="M1225.3,3313l-4,13.9l-0.5,2.3h-0.6l-0.5-2.3l-4.2-13.9H1225.3z M1201.9,3299.1l14.4,39.7h8.5 l15.1-39.7v-0.9h-9.7l-3.3,9h-12.6l-3-9h-9.4V3299.1"></path> <path id="path28" class="st11" d="M1254.7,3331.5l-11.3-0.3v7.2h31.4v-7.2l-11.4,0.3v-33.4h-8.7V3331.5"></path> <path id="path30" class="st11" d="M1284.1,3298.1v40.3h8.7v-40.3H1284.1"></path> <path id="path32" class="st11" d="M1331.1,3318.3c0,10.7-3.5,14-9.2,14c-5.8,0-9.4-3.9-9.5-14c-0.2-10.2,3.5-14.1,9.4-14.1 C1327.5,3304.3,1331.1,3307.6,1331.1,3318.3z M1303.2,3318.3c0,15.4,7.4,20.7,18.6,20.7c11.2,0,18.5-5.7,18.5-20.7 c0-15-7.3-20.7-18.6-20.7C1310.5,3297.6,1303.2,3303.2,1303.2,3318.3"></path> <path id="path34" class="st11" d="M1351.5,3338.4h7.6l14.9-21.2l2.1-3.5h0.5v24.7h8.7v-40.3h-7.5l-15.3,22l-1.7,2.9h-0.6v-25h-8.7 L1351.5,3338.4"></path> <path id="path36" class="st11" d="M414.3,3612.5L349,3373.7h-38l-46.2,173.4L218,3373.7h-38l-65.3,238.7h37.6l46.5-173.4 l46.9,173.4H283l47.2-173.4l46.5,173.4H414.3"></path> <path id="path38" class="st11" d="M431.7,3611.8l37.6,3.1v-58.5l-0.7-21.9h1.4c17.4,6.5,31.5,9.6,48.6,9.6c30.4,0,51-13.7,51-66 v-104.3H532V3475c0,31.5-15.4,35.6-32.8,35.6c-11,0-20.2-2.4-29.8-5.1v-131.7h-37.6L431.7,3611.8"></path> <path id="path40" class="st11" d="M602.4,3541.7H640v-167.9h-37.6V3541.7z M621.2,3609.4c19.5,0,22.6-11.3,22.6-23.9 c0-12.7-4.1-24.3-22.6-24.3c-18.5,0-22.2,11.6-22.2,24.3C599,3598.1,602.4,3609.4,621.2,3609.4"></path> <path id="path42" class="st11" d="M671.8,3541.7h25.7l5.1-13.7h2.4c9.9,8.5,25.6,16.1,46.2,16.1c2.4,0,5.1,0,7.9-0.3v-36.9 c-6.8,1-14,2-21.2,2c-10.3,0-18.5-2.4-28.4-6.8v-128.3h-37.6V3541.7"></path> <path id="path44" class="st11" d="M775.1,3373.7v238.1l37.6,3.1v-241.1H775.1"></path> <path id="path46" class="st11" d="M1115.8,3456.9c0,31.8-5.1,57.8-35.2,57.8c-30.4,0-38-25-38-57.8c0-30.4,6.2-56.8,36.3-56.8 C1108.9,3400.1,1115.8,3425,1115.8,3456.9z M1080.2,3544.1c53.4,0,73.9-31.5,73.9-87.2c0-52.3-19.2-86.5-74.6-86.5 c-55.4,0-74.9,34.2-74.9,86.5C1004.6,3512.6,1026.8,3544.1,1080.2,3544.1"></path> <path id="path48" class="st11" d="M1284.5,3456.9c0,31.8-5.1,57.8-35.2,57.8c-30.4,0-38-25-38-57.8c0-30.4,6.2-56.8,36.3-56.8 C1277.7,3400.1,1284.5,3425,1284.5,3456.9z M1248.9,3544.1c53.4,0,73.9-31.5,73.9-87.2c0-52.3-19.2-86.5-74.6-86.5 s-74.9,34.2-74.9,86.5C1173.3,3512.6,1195.6,3544.1,1248.9,3544.1"></path> <path id="path50" class="st11" d="M1347.2,3373.7v238.1l37.6,3.1v-241.1H1347.2"></path> <path id="path52" class="st11" d="M881.2,3404.9c10.6-0.3,16.4-0.7,27.4-0.7c23.3,0,38.7,12.3,38.7,61.2 c0,33.5-13.7,42.4-38.3,42.4c-9.6,0-18.5-1.7-27.7-4.8V3404.9z M843.5,3541.7h28.4l3.1-12.3c11.3,6.2,32.1,14.7,51,14.7 c34.2,0,59.2-25,59.2-84.8c0-58.8-26.3-87.9-70.1-87.9c-16.1,0-33.9,3.4-33.9,3.4v-77l-37.6-4.1V3541.7"></path> <path id="path54" class="st12" d="M1029.8,3644.9c-28.1,32.6-117.4,3.9-217-65v-17.4c87.7,62.4,165.1,91.1,187.2,65.5 c27.7-32-41.1-136.9-153.7-234c-112.6-97.1-226.3-149.8-253.9-117.8c-14.4,16.6-2.7,52.9,27.7,97.5h-17.6 c-37.5-56-51.6-103-32.3-125.3c35.1-40.7,166.5,15,293.4,124.5C990.4,3482.4,1064.9,3604.2,1029.8,3644.9"></path> </g> </g> </svg> 