<?xml version="1.0" encoding="UTF-8"?> <!-- Generator: Adobe Illustrator 24.3.0, SVG Export Plug-In . SVG Version: 6.00 Build 0) --> <svg xmlns="http://www.w3.org/2000/svg" xmlns:xlink="http://www.w3.org/1999/xlink" version="1.1" id="Camada_1" x="0px" y="0px" viewBox="0 0 200 200" style="enable-background:new 0 0 200 200;" xml:space="preserve"> <style type="text/css"> .st0{fill:#044F9E;} .st1{fill:#E30613;} .st2{fill:#0D4F9E;} .st3{fill:#FFFFFF;} .st4{fill:#B42026;} .st5{fill:#421613;} .st6{fill:#FFD30F;} .st7{fill:#020203;} .st8{fill:#4887C7;} .st9{clip-path:url(#SVGID_2_);fill:#1867A7;} .st10{fill:#1867A7;} .st11{fill:#231F20;} .st12{fill:#EDAD0B;} .st13{fill-rule:evenodd;clip-rule:evenodd;fill:#231F20;} .st14{fill:#1683C4;} .st15{fill:#9E1925;} .st16{fill:#1C3257;} </style> <g id="g3798"> <path id="path3028" class="st15" d="M98.9,151.4c-2.1-0.3-3.4-0.8-5.8-2.2c-3.1-1.8-4.2-2.3-5.9-2.8c-1.1-0.3-2.4-0.5-3.8-0.5 c-1.4,0-2.4,0.1-5,0.6c-2.5,0.5-3.3,0.5-4.9,0.5c-1.8-0.1-3.2-0.4-4.8-1.2c-1.8-0.9-3.1-2.1-5.3-4.8c-1.8-2.2-3.5-3.8-5.1-4.8 c-1.6-1-2.9-1.5-6.4-2.4c-2.9-0.8-4.4-1.3-5.7-2.2c-0.8-0.5-2.1-1.8-2.7-2.6c-1.4-2-2-3.8-2.4-7.8c-0.3-3.1-0.6-4.5-1.1-6.1 c-0.7-2.2-1.7-3.9-3.8-6.8c-1.4-1.9-2.3-3.4-2.7-4.7c-0.8-2.2-0.8-4.8-0.1-7c0.5-1.6,1.2-2.7,3.4-5.8c2-2.8,2.9-4.7,3.6-7.2 c0.3-1.3,0.5-2.1,0.7-4.5c0.2-2.2,0.4-3.2,0.6-4.1c0.7-2.8,2.3-5.2,4.6-6.7c1.3-0.9,2.8-1.4,5.7-2.2c2.2-0.6,3-0.8,4-1.2 c2.8-1.1,4.8-2.7,7.3-5.8c1.2-1.5,1.4-1.7,2.5-2.8c1.7-1.7,3.9-2.8,6.2-3.2c1-0.2,2.8-0.2,4,0c0.5,0.1,1.7,0.3,2.8,0.5 c2.4,0.4,3.1,0.5,4.7,0.5c1.4,0,2.7-0.2,3.8-0.5c1.6-0.5,2.6-0.9,5.3-2.5c1.8-1,2.5-1.4,3.5-1.8c1.4-0.5,2.3-0.7,3.9-0.7 c2.6,0,4,0.5,7.7,2.6c2.7,1.6,4.2,2.2,6,2.6c0.8,0.2,1.1,0.2,2.9,0.2c2.2,0,1.7,0.1,6.2-0.8c1.6-0.3,3.8-0.4,5-0.2 c2.4,0.4,4.5,1.5,6.4,3.3c0.5,0.5,1.6,1.7,2.4,2.7c2.3,2.8,3.8,4.1,5.8,5.2c1.4,0.8,2.5,1.1,5.7,1.9c2.9,0.8,4.3,1.3,5.6,2.1 c2.5,1.6,4.2,4.3,4.8,7.5c0.2,1,0.3,1.5,0.6,4c0.6,4.9,1.5,7.4,4.4,11.3c1.2,1.7,2.1,3,2.5,3.9c1.1,2.2,1.5,4.8,1,7.2 c-0.4,1.9-1.2,3.6-3.1,6.1c-3.4,4.6-4.3,7-4.9,12.6c-0.4,3.5-0.8,5.2-1.7,6.9c-0.6,1.1-1.2,1.9-2.1,2.8c-1.7,1.7-3.1,2.3-7,3.3 c-2.4,0.6-3.1,0.8-4.1,1.2c-2.9,1.1-4.7,2.6-7.5,6c-2.5,3.1-4.1,4.4-6.5,5.3c-1.4,0.5-2.1,0.6-4,0.6c-1.1,0-2,0-2.4-0.1 c-0.3-0.1-1.3-0.2-2.2-0.4c-3.1-0.6-5.1-0.7-7-0.4c-2.2,0.3-3.7,0.9-7.5,3.2c-2,1.2-3.3,1.7-4.7,2 C101.4,151.4,99.5,151.5,98.9,151.4L98.9,151.4z"></path> <path id="path3026" class="st3" d="M105.2,138.7c4.3-0.3,7.4-0.7,11.6-1.5c6.6-1.3,13.5-3.8,18.6-6.8c0.4-0.2,0.9-0.5,1.2-0.7 c0.8-0.4,2.7-1.7,3.8-2.5c3.7-2.8,7.2-6.4,9.5-10c4.5-7,6.1-15.2,4.6-23.3c-0.9-4.8-3.1-9.5-6.3-13.6c-1.9-2.4-4.5-5-7-7 c-8.4-6.5-19.8-10.6-33-11.8c-5.1-0.5-11-0.5-16.2,0c-12.6,1.1-24,5.1-32.2,11.3c-7.5,5.6-12.3,12.7-14,20.9 c-0.4,2.1-0.6,3.7-0.6,6.2c0,2.5,0.1,3.3,0.4,5.4c1.2,6.8,4.5,13,9.9,18.2c2.9,2.8,5.7,4.9,9.7,7.2c2.5,1.4,6,3,9.1,4.1 c7.1,2.4,14.9,3.8,23.2,4C98.9,138.8,103.8,138.7,105.2,138.7L105.2,138.7z"></path> <path id="path3024" class="st16" d="M74.8,120.1c-5.5-0.5-10-3.2-13-7.7c-1.8-2.7-3-6.1-3.5-9.8c-0.2-1.5-0.2-5.4,0-6.9 c0.5-3.9,1.6-6.9,3.4-9.7c2.2-3.3,5.2-5.7,8.8-6.9c2.2-0.7,4.3-1,6.9-0.9c2.5,0.1,4.5,0.5,6.1,1.3c1,0.5,1.7,0.6,2.1,0.3 c0.1-0.1,0.3-0.3,0.4-0.6c0.4-0.8,0.4-0.8,2.1-0.8c1.4,0,1.5,0,1.7,0.2l0.2,0.2v5.5v5.5l-0.2,0.2c-0.2,0.2-0.3,0.2-1.7,0.2 c-1.7,0-1.7,0-1.9-0.8c-0.7-3.5-1.7-5.4-3.5-6.6c-1-0.6-2.6-1-4.3-1c-2.3,0-3.9,0.8-5.4,2.9c-0.6,0.8-1.4,2.5-1.8,3.6 c-0.6,1.7-1.1,4.2-1.3,6.4c-0.2,1.9-0.2,6,0.1,8.8c0.5,6,2.2,10,4.8,11.7c1.3,0.9,2.3,1.1,4.4,1c1.1,0,1.5-0.1,2.2-0.3 c0.8-0.2,1.6-0.6,2.2-1c0.4-0.3,1.2-1.1,1.5-1.5c0.7-1,1.2-2.5,1.6-4.2c0.2-0.9,0.2-1,0.4-1.2l0.3-0.2l1.4,0l1.4,0l0.2,0.2l0.2,0.2 l0,5.5l0,5.5l-0.2,0.2c-0.2,0.1-0.4,0.2-1.7,0.2l-1.5,0l-0.2-0.2c-0.1-0.1-0.3-0.4-0.4-0.5c-0.2-0.3-0.3-0.3-0.7-0.3 c-0.3,0-1.1,0.2-1.9,0.4c-1.6,0.4-2.4,0.6-3.8,0.8C78.7,120.1,75.9,120.2,74.8,120.1z"></path> <path id="path3022" class="st16" d="M101.8,119.7c-0.3-0.2-0.4-0.4-0.4-1.8c0-1.8,0-1.7,1.4-1.8c0.8-0.1,1.2-0.1,1.5-0.3 c0.8-0.3,1-0.6,1.9-2.8c0.3-0.7,1.1-2.7,1.9-4.5c2.9-6.8,6.1-14.6,6.5-15.6c0.2-0.5,0.6-1.6,0.9-2.3c0.3-0.7,1.1-2.6,1.7-4.1 c0.6-1.5,1.6-3.9,2.2-5.2c0.6-1.5,1.1-2.5,1.2-2.6l0.2-0.2h2.8h2.8l0.2,0.2c0.1,0.1,0.5,1,1.1,2.6c0.5,1.3,1.9,5.4,3.2,9.1 c1.3,3.7,2.8,8,3.4,9.6c0.6,1.6,1.1,3,1.1,3.2c0.1,0.2,0.3,1,0.6,1.8c0.3,0.8,0.8,2.2,1.1,3.1c2.5,7.3,2.5,7.1,3,7.5 c0.4,0.3,0.8,0.4,2,0.5c0.8,0,1,0.1,1.2,0.3c0,0,0.1,0.7,0.1,1.5c0,1.3,0,1.5-0.2,1.6l-0.2,0.2l-8.8,0l-8.8,0l-0.2-0.2 c-0.2-0.2-0.2-0.2-0.2-1.7c0-1,0-1.5,0.1-1.6c0.2-0.2,0.6-0.3,1.6-0.3c1.3,0,1.7-0.3,1.6-1.2c0-0.4-0.9-3.4-1.8-5.8 c-0.2-0.5-0.3-0.9-0.3-0.9s-3,0-6.7,0c-6.3,0-6.7,0-6.7,0.1c0,0.1-0.6,1.4-1.2,3s-1.2,3-1.2,3.3c-0.1,0.6-0.1,0.9,0.2,1.1 c0.3,0.3,0.7,0.4,1.8,0.4c1.2,0,1.7,0.1,1.9,0.3c0.1,0.1,0.1,0.5,0.1,1.6c0,1.3,0,1.5-0.2,1.6l-0.2,0.2l-6,0 C103.9,119.8,101.9,119.8,101.8,119.7L101.8,119.7z"></path> <path id="path3020" class="st3" d="M125.3,104.8c0-0.1-1.4-4.5-3.7-12.2c-0.6-2-1.1-3.5-1.1-3.5c0,0-0.2,0.3-0.3,0.7 c-0.1,0.4-1.6,3.9-3.2,7.9s-2.9,7.3-2.9,7.3c0,0,2.5,0,5.6,0C124.7,104.9,125.4,104.9,125.3,104.8z"></path> <path id="path3018" class="st16" d="M94.5,105.9c-3.2-0.3-5.5-2-6.1-4.5c-0.2-0.8-0.2-1.9,0-2.6c0.5-1.9,2.2-3.6,4.4-4.6 c0.3-0.1,0.5-0.2,0.5-0.2s-0.1-0.2-0.2-0.4c-2-3.1-0.9-6.7,2.5-8c0.9-0.3,1.7-0.5,2.8-0.5c2,0,3.4,0.5,4.4,1.6 c0.6,0.7,1,1.3,1.1,2.4c0.3,2-0.9,3.6-3.6,5l-0.9,0.5l1.4,2.1c0.8,1.1,1.4,2.1,1.5,2c0.1-0.1,1-1.6,1.3-2.2 c0.1-0.3,0.4-0.9,0.5-1.4c0.1-0.5,0.3-0.9,0.4-1c0.1-0.1,0.3-0.2,2.9-0.2h2.8l0.1,0.2c0.1,0.3-0.6,1.9-0.9,2.1 c-0.1,0.1-0.4,0.1-0.7,0.1c-0.7,0-0.8,0.1-1.3,0.9c-1.1,1.7-2,3-2.7,3.8l-0.5,0.5l0.2,0.3c0.1,0.2,0.4,0.4,0.6,0.6 c0.7,0.4,1.1,0.6,2.2,0.6c1.3,0.1,1.3,0.1,0.9,1.1c-0.2,0.4-0.4,0.9-0.5,1l-0.1,0.2l-1.3,0.1c-2.2,0.1-3.7-0.2-4.7-1l-0.3-0.2 l-0.3,0.2C99.2,105.6,96.7,106.1,94.5,105.9z"></path> <path id="path3016" class="st3" d="M96.9,103.6c0.6-0.1,1.2-0.4,1.8-0.9c0.4-0.3,0.5-0.5,0.5-0.6c0-0.1-3.9-5.5-4.2-5.9 c-0.2-0.2-0.3-0.1-0.9,0.5c-0.7,0.7-1.4,2.2-1.4,3.2c0,0.5,0.2,1.6,0.4,1.9c0.4,0.8,1,1.3,1.9,1.6 C95.7,103.6,96.2,103.7,96.9,103.6L96.9,103.6z"></path> <path id="path2993" class="st3" d="M98.3,92.3c1.2-0.8,1.8-2.1,1.7-3.5c-0.1-1.3-1-2-2.1-1.7c-0.5,0.1-0.9,0.4-1.2,1 c-0.2,0.4-0.2,0.5-0.2,1.3c0,0.7,0,0.9,0.2,1.4c0.2,0.6,0.9,1.8,1.1,1.8C97.8,92.6,98,92.4,98.3,92.3z"></path> </g> </svg> 