<?xml version="1.0" encoding="UTF-8" standalone="no"?> <svg xmlns="http://www.w3.org/2000/svg" xmlns:xlink="http://www.w3.org/1999/xlink" xmlns:serif="http://www.serif.com/" width="100%" height="100%" viewBox="0 0 500 500" version="1.1" xml:space="preserve" style="fill-rule:evenodd;clip-rule:evenodd;stroke-linejoin:round;stroke-miterlimit:2;"><path d="M467.73,357.85c-0,33.611 -20.809,53.814 -51.438,53.814c-28.633,0 -49.433,-20.347 -49.433,-52.583c0,-30.533 21.081,-54.124 50.857,-54.124c29.633,-0 50.014,21.58 50.014,52.893Zm-51.017,-36.347c-14.156,0 -21.756,14.109 -21.756,34.597c-0,14.97 4.949,39.018 23.716,39.018c15.081,0 20.959,-15.703 20.959,-35.58c0,-20.977 -8.641,-38.035 -22.919,-38.035Z" style="fill:#e16b5a;fill-rule:nonzero;"></path><g><path d="M414.983,321.585c-0.528,-0.049 -1.06,-0.082 -1.605,-0.082c-14.156,0 -21.756,14.109 -21.756,34.597c0,14.97 4.949,39.018 23.717,39.018c0.553,0 1.091,-0.027 1.618,-0.068c-17.355,-1.422 -22.002,-24.447 -22.002,-38.95c0.002,-19.635 6.985,-33.402 20.028,-34.515Z" style="fill:#bf5b4d;fill-rule:nonzero;"></path><path d="M417.716,304.957c-0.538,-0 -1.066,0.024 -1.599,0.039c28.686,0.83 48.278,22.158 48.278,52.854c0,32.973 -20.033,53.027 -49.711,53.779c0.535,0.015 1.067,0.035 1.608,0.035c30.629,0 51.438,-20.202 51.438,-53.814c-0,-31.313 -20.381,-52.893 -50.014,-52.893Z" style="fill:#bf5b4d;fill-rule:nonzero;"></path></g><clipPath id="_clip1"><rect id="explorer.svg" x="337.574" y="20.468" width="133.075" height="134.115"></rect></clipPath><g clip-path="url(#_clip1)"><path d="M463.541,50.449c12.312,-32.198 -11.604,-29.947 -11.604,-29.947c-15.343,-0 -34.522,14.084 -34.522,14.084c0,0 -22.879,-6.213 -45.758,7.732c-24.934,16.015 -24.112,44.458 -24.112,44.458c20.275,-29.271 48.496,-41.145 48.496,-41.145l0,1.932c-41.646,28.702 -51.51,70.692 -53.977,79.252c-2.465,8.561 -0.822,27.768 16.716,27.768c17.535,-0 35.343,-14.235 35.343,-14.235c0,-0 3.836,0.828 14.249,0.828c43.839,-0 54.252,-38.935 54.252,-38.935l-38.91,-0c-0,-0 -2.74,12.703 -16.712,12.703c-19.179,-0 -18.085,-20.157 -18.085,-20.157l74.252,-0c3.564,-51.915 -41.372,-59.371 -41.372,-59.371c-0,-0 15.879,-11.321 29.592,-11.321c21.733,-0 11.458,25.655 11.458,25.655l0.694,0.699Zm-71.592,89.324c0,-0 -26.759,16.367 -38.772,5.027c-6.434,-11.342 4.021,-27.402 4.021,-27.402c0,-0 8.851,16.537 34.751,22.375Zm32.19,-62.656l-35.316,0c0,0 -0.447,-17.345 18.105,-17.345c17.915,0 17.211,17.345 17.211,17.345Z" style="fill:#2995cc;fill-rule:nonzero;"></path></g><clipPath id="_clip2"><rect id="mozilla.svg" x="22.971" y="268.465" width="215.811" height="217.497"></rect></clipPath><g clip-path="url(#_clip2)"><path d="M130.532,482.643c57.142,0 103.465,-47.913 103.465,-107.009c0,-59.092 -46.325,-107.007 -103.465,-107.007c-57.149,0 -103.474,47.915 -103.474,107.007c-0.002,59.096 46.33,107.009 103.474,107.009Z" style="fill:#2179a6;fill-rule:nonzero;"></path><path d="M233.086,389.644c-0.539,0.415 -1.088,0.827 -1.68,1.206c0.916,-2.498 1.746,-5.714 2.434,-9.417c0.1,-1.921 0.159,-3.854 0.159,-5.803c0,-22.345 -6.635,-43.083 -17.959,-60.246c-10.252,-12.22 -24.211,-22.707 -42.707,-27.979c19.904,13.564 27.34,25.087 32.045,35.341c-5.324,-5.626 -14.435,-11.495 -20.585,-11.983c9.225,7.092 24.664,28.129 23.021,60.001c-2.367,-5.134 -6.697,-13.171 -9.772,-15.983c3.311,31.303 0.411,38.024 -1.599,46.339c-0.442,-3.822 -1.773,-6.691 -2.541,-8.436c0,0 -0.354,9.783 -6.503,23.72c-4.659,10.557 -9.467,13.817 -11.595,13.448c-0.58,-0.039 -0.889,-0.295 -0.883,-0.319c0.151,-1.367 0.288,-2.799 -0.063,-3.712c0,0 -1.965,0.701 -3.234,2.544c-0.511,0.743 -1.172,1.467 -2.041,2.149c-0.148,0.119 1.404,-2.056 1.287,-1.955c-0.764,0.644 -1.582,1.394 -2.407,2.278c-3.016,3.235 -5.734,6.824 -7.151,5.808c1.319,-0.415 2.372,-2.151 2.657,-3.851c-1.184,0.855 -4.192,3.179 -10.94,4.214c-2.76,0.425 -14.499,2.63 -30.112,-5.438c2.277,-0.269 5.683,-1.099 8.28,0.488c-2.597,-2.93 -8.87,-2.321 -13.368,-3.79c-3.919,-1.282 -9.033,-6.965 -11.972,-9.835c12.016,3.041 24.776,0.846 32.153,-4.366c7.455,-5.271 11.871,-9.118 15.834,-8.207c3.956,0.911 6.592,-3.191 3.51,-6.838c-3.07,-3.648 -10.519,-8.553 -20.656,-5.926c-7.76,2.009 -14.375,8.448 -25.274,3.971c-0.66,-0.268 -1.34,-0.581 -2.038,-0.937c-0.697,-0.358 2.279,0.425 1.545,-0.02c-2.095,-0.799 -5.904,-2.603 -6.849,-3.288c-0.153,-0.119 1.578,0.325 1.397,0.209c-10.346,-6.326 -9.668,-11.386 -9.668,-14.519c0,-2.506 1.473,-5.894 4.236,-7.482c1.491,0.549 2.418,1.052 2.418,1.052c-0,0 -0.689,-1.095 -1.126,-1.625c0.102,-0.038 0.206,-0.067 0.311,-0.097c1.218,0.427 5.55,2.259 7.863,4.167c2.748,-5.308 0.693,-14.098 0.411,-14.642c0,-0.01 0.007,-0.012 0.007,-0.025c0.582,-2.698 16.141,-11.126 17.305,-12.015c1.611,-1.233 3.252,-3.133 4.279,-5.321c0.746,-1.398 1.282,-3.387 1.137,-6.254c-0.106,-2.069 -1.295,-3.334 -17.888,-3.189c-4.534,0.036 -7.487,-2.691 -9.271,-5.291c-0.36,-0.566 -0.682,-1.103 -0.969,-1.589c-0.391,-0.723 -0.656,-1.366 -0.857,-1.884c1.982,-7.435 8.59,-18.003 14.559,-21.225c-11.026,-3.58 -24.522,6.621 -28.358,12.097c-0.012,0.018 -0.027,0.034 -0.037,0.049c-9.698,-2.491 -17.929,-1.887 -24.812,0.393c-5.109,-2.557 -8.352,-7.935 -10.189,-12.911c-4.684,5.201 -8.883,10.874 -12.5,16.961c-0.418,3.447 -0.641,7.519 -0.317,12.22c-0.005,0.607 0.088,1.195 0.069,1.739c-2.61,3.715 -4.312,6.911 -4.975,8.487c-3.183,6.417 -6.444,16.283 -9.076,31.606c0,-0 1.768,-5.776 5.302,-12.316c-2.53,8.001 -4.515,20.334 -3.534,38.639c0.059,0.26 0.115,0.527 0.176,0.785c0.206,-1.763 0.776,-5.923 1.894,-11.186c0.675,12.778 3.61,28.487 13.241,45.521c0.898,1.591 1.979,3.439 3.268,5.479c18.912,25.516 48.67,41.985 82.156,41.985c52.543,0.003 95.911,-40.524 102.552,-92.996Z" style="fill:#195d80;fill-rule:nonzero;"></path><path d="M208.953,439.064c5.941,-11.559 14.005,-18.328 18.371,-26.322c5.793,-10.634 16.738,-40.532 8.485,-64.647c3.782,15.099 2.601,30.439 -9.464,38.144c3.902,-10.638 6.348,-33.977 2.327,-55.004c-2.617,-13.664 -10.89,-25.907 -16.283,-29.724c4.965,3.849 8.96,17.634 8.848,23.96c-10.388,-18.082 -27.34,-35.371 -52.965,-42.675c19.905,13.564 27.341,25.087 32.045,35.341c-5.32,-5.626 -14.433,-11.495 -20.585,-11.983c9.226,7.092 24.668,28.129 23.023,60.001c-2.365,-5.134 -6.699,-13.171 -9.772,-15.983c3.311,31.305 0.411,38.026 -1.6,46.339c-0.442,-3.822 -1.773,-6.692 -2.54,-8.436c-0,0 -0.354,9.783 -6.505,23.72c-4.658,10.556 -9.465,13.817 -11.594,13.448c-0.577,-0.039 -0.888,-0.295 -0.883,-0.319c0.152,-1.367 0.289,-2.799 -0.062,-3.712c-0,0 -1.965,0.701 -3.234,2.544c-0.511,0.743 -1.171,1.467 -2.041,2.149c-0.149,0.119 1.403,-2.056 1.289,-1.955c-0.768,0.644 -1.583,1.394 -2.409,2.278c-3.017,3.235 -5.736,6.824 -7.15,5.807c1.318,-0.414 2.371,-2.15 2.656,-3.85c-1.186,0.855 -4.194,3.179 -10.938,4.214c-2.762,0.425 -14.501,2.63 -30.114,-5.438c2.277,-0.269 5.683,-1.099 8.279,0.487c-2.596,-2.929 -8.87,-2.32 -13.367,-3.789c-3.919,-1.282 -9.034,-6.966 -11.972,-9.835c12.016,3.041 24.776,0.846 32.153,-4.366c7.455,-5.271 11.873,-9.118 15.834,-8.207c3.954,0.911 6.592,-3.193 3.51,-6.838c-3.068,-3.648 -10.518,-8.553 -20.656,-5.926c-7.76,2.009 -14.375,8.448 -25.274,3.971c-0.66,-0.269 -1.34,-0.581 -2.038,-0.937c-0.697,-0.358 2.279,0.425 1.545,-0.022c-2.095,-0.797 -5.904,-2.601 -6.849,-3.286c-0.153,-0.119 1.577,0.325 1.397,0.209c-10.346,-6.326 -9.668,-11.386 -9.668,-14.521c0,-2.506 1.473,-5.894 4.236,-7.482c1.491,0.549 2.417,1.052 2.417,1.052c0,0 -0.688,-1.095 -1.125,-1.625c0.101,-0.037 0.206,-0.066 0.311,-0.097c1.218,0.427 5.55,2.259 7.862,4.167c2.748,-5.308 0.694,-14.097 0.412,-14.642c0,-0.01 0.007,-0.011 0.007,-0.025c0.582,-2.698 16.14,-11.126 17.304,-12.015c1.612,-1.232 3.253,-3.133 4.28,-5.321c0.746,-1.398 1.282,-3.387 1.137,-6.253c-0.106,-2.069 -1.294,-3.334 -17.886,-3.19c-4.535,0.036 -7.487,-2.691 -9.272,-5.291c-0.359,-0.566 -0.681,-1.103 -0.968,-1.589c-0.392,-0.723 -0.656,-1.365 -0.857,-1.884c1.982,-7.435 8.59,-18.003 14.558,-21.224c-11.027,-3.583 -24.523,6.618 -28.359,12.093c-0.012,0.018 -0.027,0.035 -0.037,0.049c-9.698,-2.491 -17.929,-1.887 -24.812,0.393c-8.428,-4.217 -11.802,-16.118 -12.114,-21.209c-4.748,3.391 -9.123,17.072 -9.7,19.801c-0.843,4.313 -1.709,10.202 -1.194,17.68c-0.005,0.607 0.088,1.195 0.069,1.739c-2.61,3.715 -4.312,6.911 -4.975,8.487c-3.183,6.416 -6.444,16.282 -9.075,31.605c-0,0 1.768,-5.775 5.302,-12.315c-2.607,8.238 -4.643,21.052 -3.447,40.272c0.047,-0.634 0.592,-5.489 1.982,-12.033c0.675,12.778 3.61,28.487 13.241,45.521c7.338,12.992 26.679,43.173 75.208,54.467c-5.328,-1.588 -8.639,-4.769 -8.639,-4.769c-0,0 18.124,6.02 31.353,5.507c-4.141,-0.74 -4.968,-2.811 -4.968,-2.811c0,0 47.031,2.75 63.293,-20.178c-5.559,6.72 -19.636,8.618 -24.962,8.677c8.106,-7.698 26.025,-7.518 45.435,-27.262c10.648,-10.833 11.796,-19.073 12.959,-26.777c-1.782,10.089 -11.073,16.14 -20.775,21.645Z" style="fill:#e78244;fill-rule:nonzero;"></path><path d="M127.958,336.741c0.75,-1.897 1.604,-6.355 -0.856,-7.29c-2.051,-0.508 -3.79,-0.875 -7.134,-0.799c1.102,0.284 4.265,0.928 5.086,2.453c1.568,2.918 -2.135,9.909 -2.673,11.396c1.687,0.002 4.838,-3.893 5.577,-5.76Z" style="fill:#144f66;fill-rule:nonzero;"></path></g><ellipse cx="104.829" cy="102.533" rx="60.452" ry="60.925" style="fill:#f5f5f5;"></ellipse><path d="M104.829,41.608c-0.317,0 -0.629,0.019 -0.945,0.024c32.949,0.511 59.508,27.572 59.508,60.901c-0,33.328 -26.559,60.389 -59.508,60.901c0.316,0.005 0.628,0.023 0.945,0.023c33.386,0 60.452,-27.277 60.452,-60.924c-0,-33.648 -27.066,-60.925 -60.452,-60.925Z" style="fill:#e6e6e6;fill-rule:nonzero;"></path><path d="M104.829,158.042c-30.37,-0 -55.08,-24.902 -55.08,-55.509c0,-30.608 24.71,-55.509 55.08,-55.509c30.369,-0 55.08,24.901 55.08,55.509c0,30.607 -24.711,55.509 -55.08,55.509Z" style="fill:#88c5cc;fill-rule:nonzero;"></path><path d="M55.123,102.533c-0,-29.7 23.265,-54.023 52.392,-55.441c-0.89,-0.042 -1.785,-0.068 -2.686,-0.068c-30.37,-0 -55.08,24.901 -55.08,55.509c0,30.607 24.71,55.509 55.081,55.509c0.901,-0 1.794,-0.025 2.686,-0.068c-29.128,-1.418 -52.393,-25.741 -52.393,-55.441Z" style="fill:#80b9bf;fill-rule:nonzero;"></path><g><path d="M104.829,82.225c-11.112,-0 -20.151,9.11 -20.151,20.308c0,11.198 9.039,20.308 20.151,20.308c11.112,-0 20.15,-9.11 20.15,-20.308c0,-11.198 -9.038,-20.308 -20.15,-20.308Zm-0,35.201c-8.148,-0 -14.778,-6.681 -14.778,-14.893c0,-8.213 6.63,-14.893 14.778,-14.893c8.148,-0 14.777,6.68 14.777,14.893c0,8.212 -6.629,14.893 -14.777,14.893Z" style="fill:#f5f5f5;fill-rule:nonzero;"></path><path d="M104.829,67.332l-4.032,16.247l8.063,-0l-4.031,-16.247Z" style="fill:#f5f5f5;fill-rule:nonzero;"></path><path d="M104.829,137.735l-4.032,-16.248l8.063,-0l-4.031,16.248Z" style="fill:#f5f5f5;fill-rule:nonzero;"></path><path d="M69.9,102.533l16.122,4.063l-0,-8.125l-16.122,4.062Z" style="fill:#f5f5f5;fill-rule:nonzero;"></path><path d="M139.758,102.533l-16.122,4.063l-0,-8.125l16.122,4.062Z" style="fill:#f5f5f5;fill-rule:nonzero;"></path></g><path d="M138.075,69.025l-37.995,28.721l4.749,4.787l4.75,4.785l28.496,-38.293Z" style="fill:#e16b5a;fill-rule:nonzero;"></path><path d="M71.582,136.039l28.498,-38.293l4.749,4.787l4.75,4.785l-37.997,28.721Z" style="fill:#e6e6e6;fill-rule:nonzero;"></path><path d="M269.873,49.064c-0,-0 106.074,-4.802 162.293,102.441l-171.311,0c-0,0 -32.353,-1.071 -59.933,38.42c-7.955,16.539 -16.439,33.614 -6.893,67.226c-13.788,-23.472 -73.193,-127.52 -73.193,-127.52c0,-0 41.903,-76.3 149.037,-80.567Z" style="fill:#e16b5a;fill-rule:nonzero;"></path><path d="M269.873,49.064c-1.83,0.074 -3.596,0.218 -5.389,0.331c28.639,2.103 106.015,15.914 151.201,102.11l16.476,0c-56.217,-107.246 -162.288,-102.441 -162.288,-102.441Z" style="fill:#cc6152;fill-rule:nonzero;"></path><path d="M426.645,321.351c0,-0 -48.913,94.803 -169.346,90.14c14.856,-25.869 85.676,-149.235 85.676,-149.235c0,-0 17.098,-27.654 -3.092,-71.425c-10.263,-15.202 -41.354,-31.135 -75.065,-39.629c27.111,-0.272 167.011,0.017 167.011,0.017c-0,0 44.719,74.666 -5.184,170.132Z" style="fill:#ffd464;fill-rule:nonzero;"></path><path d="M431.826,151.222c-0,-0 -71.36,-0.147 -122.027,-0.13c48.607,0.011 106.83,0.13 106.83,0.13c0,-0 44.722,74.663 -5.181,170.129c0,-0 -44.82,86.703 -154.152,90.14c120.433,4.663 169.349,-90.14 169.349,-90.14c49.903,-95.466 5.181,-170.129 5.181,-170.129Z" style="fill:#f2c95f;fill-rule:nonzero;"></path><path d="M113.856,322.071c0,-0 -57.152,-90.024 7.084,-192.616c14.846,25.881 85.627,149.269 85.627,149.269c-0,0 15.247,28.722 63.027,33.017c18.214,-1.337 37.16,-2.473 61.327,-27.588c-13.324,23.749 -73.209,127.508 -73.209,127.508c-0,-0 -86.633,1.626 -143.856,-89.59Z" style="fill:#74b340;fill-rule:nonzero;"></path><ellipse cx="269.443" cy="231.82" rx="81.522" ry="82.159" style="fill:#fff;"></ellipse><ellipse cx="269.414" cy="231.82" rx="64.655" ry="65.161" style="fill:#2995cc;"></ellipse><path d="M269.431,166.673c-1.287,0 -2.561,0.049 -3.826,0.122c33.925,1.998 60.827,30.348 60.827,65.036c0,34.694 -26.902,63.048 -60.827,65.045c1.268,0.071 2.542,0.122 3.826,0.122c35.704,-0 64.656,-29.178 64.656,-65.167c-0,-35.983 -28.952,-65.158 -64.656,-65.158Z" style="fill:#268cbf;fill-rule:nonzero;"></path></svg> 