<?xml version="1.0" encoding="UTF-8" standalone="no"?> <svg xmlns="http://www.w3.org/2000/svg" xmlns:xlink="http://www.w3.org/1999/xlink" xmlns:serif="http://www.serif.com/" width="100%" height="100%" viewBox="0 0 500 500" version="1.1" xml:space="preserve" style="fill-rule:evenodd;clip-rule:evenodd;stroke-linejoin:round;stroke-miterlimit:2;"><g><path d="M320.171,421.299c-6.178,-0.106 -12.748,-5.398 -19.946,-16.126c4.246,-24.292 21.028,-55.303 41.206,-76.11c-5.15,19.327 -5.842,38.724 -6.383,54.31l0,0.018c-0.363,10.079 -0.673,18.785 -2.11,25.116c-1.924,8.492 -6.152,12.792 -12.553,12.792l-0.214,0Z" style="fill:#5c007b;fill-rule:nonzero;"></path><path d="M465.894,153.313c-2.553,-8.405 -9.309,-16.667 -17.332,-13.299c-6.756,2.79 -13.948,4.384 -21.251,4.708c-15.833,-14.859 -62.403,-44.328 -93.061,-61.004c0,0 3.742,10.941 8.91,31.375c0,0 -33.006,-25.78 -70.357,-42.403c0,-0 10.506,21.569 11.384,28.546c-0,0 -34.275,-11.923 -82.343,-16.445c0,-0 23.086,16.109 32.04,28.414c-0,0 -33.973,-1.729 -84.709,0c-0,0 28.83,11.703 41.578,22.43c-0,-0 -60.223,6.118 -94.249,15.914c-0,-0 38.343,13.52 48.991,23.582c-0,-0 -48.903,13.919 -98.185,42.377c-0,0 27.376,4.787 48.813,14.149c-0,0 -27.306,19.079 -67.759,71.146c-0,-0 29.894,-5.7 50.409,-4.096c0,0 -25.984,30.356 -39.54,76.802c0,0 15.026,-9.575 29.593,-13.041c0,0 1.56,55.373 31.845,64.249l0.017,-0.045c1.49,0.47 2.908,0.638 4.131,0.638c1.482,0 3.024,-0.23 4.602,-0.682c9.602,-2.749 16.88,-12.235 25.293,-23.202c2.758,-3.59 5.595,-7.287 8.599,-10.887c3.707,-5.244 8.09,-9.978 13.034,-14.077c10.709,-8.822 25.514,-15.507 43.564,-12.829c20.321,1.71 32.865,21.95 42.963,38.228c5.239,8.466 12.181,23.449 23.812,23.449c12.856,0 17.377,-15.399 23.096,-34.398c5.382,-17.906 13.408,-34.909 23.812,-50.444c20.053,-29.86 45.711,-46.083 76.465,-62.077c29.477,-15.329 57.324,-29.806 71.279,-51.765c6.994,-10.986 10.461,-24.47 10.292,-40.064c-0.133,-13.989 -3.191,-26.889 -5.736,-35.249Zm-145.501,-8.591l-47.58,-22.164l70.356,17.456l-22.776,4.708Zm-108.132,6.827l58.796,15.044l25.639,-8.51l-84.435,-6.534Zm115.926,29.477l12.545,-9.504l-56.536,11.987l43.991,-2.483Zm-94.286,0l-20.115,13.476l-55.737,-5.311l75.852,-8.156l0,-0.009Zm62.804,33.672l20.39,-11.411l-75.844,8.166l55.454,3.245Zm-56.19,12.678l-14.22,23.36l-71.163,17.412l85.375,-40.782l0.008,0.01Zm-88.921,14.38l-55.09,24.255l67.627,-48.503l-12.537,24.248Zm-19.052,29.078l-2.172,24.265l-35.515,32.475l37.687,-56.74Z" style="fill:#5c007b;"></path><path d="M149.175,403.764c5.23,11.834 10.833,17.597 17.083,17.597c0.505,0 1.02,-0.035 1.516,-0.115c8.493,-1.338 16.357,-17.793 22.935,-33.715c1.711,-4.131 3.316,-8.263 4.743,-12.085c-18.795,0.214 -37.075,15.338 -46.277,28.318Z" style="fill:#5c007b;fill-rule:nonzero;"></path></g></svg> 