<?xml version="1.0" encoding="UTF-8" standalone="no"?> <svg xmlns="http://www.w3.org/2000/svg" xmlns:xlink="http://www.w3.org/1999/xlink" xmlns:serif="http://www.serif.com/" width="100%" height="100%" viewBox="0 0 500 500" version="1.1" xml:space="preserve" style="fill-rule:evenodd;clip-rule:evenodd;stroke-linejoin:round;stroke-miterlimit:2;"><path d="M443.147,346.574l-386.294,-0c-7.622,-0 -13.796,-6.174 -13.796,-13.797l-0,-234.535l413.886,-0l0,234.535c0,7.623 -6.174,13.797 -13.796,13.797Z" style="fill:#e6e9ed;fill-rule:nonzero;"></path><path d="M353.472,353.472l73.12,73.12c-18.694,18.762 -44.562,30.351 -73.12,30.351c-28.559,0 -54.426,-11.589 -73.12,-30.351l73.12,-73.12Z" style="fill:#4fc1e9;fill-rule:nonzero;"></path><path d="M353.472,250l-0,103.472l-73.12,73.12c-18.763,-18.694 -30.352,-44.562 -30.352,-73.12c0,-2.346 0.069,-4.622 0.276,-6.898c3.518,-53.944 48.425,-96.574 103.196,-96.574Z" style="fill:#fcd770;fill-rule:nonzero;"></path><path d="M353.472,250c57.116,0 103.471,46.355 103.471,103.472c0,28.558 -11.589,54.426 -30.351,73.12l-73.12,-73.12l-0,-103.472Z" style="fill:#ff826e;fill-rule:nonzero;"></path><path d="M194.815,250l0,55.185c0,7.588 -6.208,13.796 -13.796,13.796l-96.574,0c-7.588,0 -13.796,-6.208 -13.796,-13.796l0,-55.185c0,-7.588 6.208,-13.796 13.796,-13.796l96.574,-0c7.588,-0 13.796,6.208 13.796,13.796Z" style="fill:#ff826e;fill-rule:nonzero;"></path><path d="M194.815,139.63l0,55.185c0,7.588 -6.208,13.796 -13.796,13.796l-96.574,0c-7.588,0 -13.796,-6.208 -13.796,-13.796l0,-55.185c0,-7.588 6.208,-13.796 13.796,-13.796l96.574,0c7.588,0 13.796,6.208 13.796,13.796Z" style="fill:#fcd770;fill-rule:nonzero;"></path><path d="M43.057,98.242l-0,-41.389c-0,-7.588 6.208,-13.796 13.796,-13.796l386.294,-0c7.588,-0 13.796,6.208 13.796,13.796l0,41.389l-413.886,-0Z" style="fill:#5cd6b3;fill-rule:nonzero;"></path><path d="M443.147,36.159l-386.294,-0c-11.41,-0 -20.694,9.284 -20.694,20.694l-0,275.924c-0,11.41 9.284,20.695 20.694,20.695l186.249,-0c-0,60.855 49.515,110.369 110.37,110.369c60.855,0 110.369,-49.514 110.369,-110.369l0,-296.619c0,-11.41 -9.284,-20.694 -20.694,-20.694Zm-386.294,13.796l386.294,-0c3.801,-0 6.898,3.097 6.898,6.898l0,34.49l-400.09,0l-0,-34.49c-0,-3.801 3.097,-6.898 6.898,-6.898Zm289.721,300.661l-66.002,66.001c-14.706,-16.949 -23.674,-38.995 -23.674,-63.145c0,-50.922 39.644,-92.663 89.676,-96.222l-0,93.366Zm-56.248,75.755l63.146,-63.145l63.145,63.145c-16.949,14.707 -38.995,23.674 -63.145,23.674c-24.151,0 -46.197,-8.967 -63.146,-23.674Zm136.045,-9.754l-66.001,-66.001l-0,-93.366c50.032,3.559 89.675,45.3 89.675,96.222c0,24.15 -8.967,46.196 -23.674,63.145Zm-72.899,-173.515c-56.179,-0 -102.589,42.216 -109.411,96.573l-187.208,0c-3.801,0 -6.898,-3.097 -6.898,-6.898l-0,-227.637l400.09,-0l0,195.016c-18.839,-33.98 -55.047,-57.054 -96.573,-57.054Z" style="fill-rule:nonzero;"></path><path d="M284.491,353.472c-0,-30.738 20.625,-58.034 50.163,-66.388l-3.753,-13.279c-35.449,10.03 -60.207,42.789 -60.207,79.667l13.797,-0Z" style="fill-rule:nonzero;"></path><path d="M272.06,368.516c0.945,5.146 2.387,10.21 4.284,15.059l12.851,-5.022c-1.58,-4.035 -2.773,-8.257 -3.566,-12.541l-13.569,2.504Z" style="fill-rule:nonzero;"></path><path d="M419.59,333.736l13.224,-3.932c-1.428,-4.801 -3.311,-9.498 -5.595,-13.962l-12.285,6.278c1.904,3.718 3.47,7.629 4.656,11.616Z" style="fill-rule:nonzero;"></path><path d="M422.453,353.472c-0,1.71 -0.062,3.4 -0.187,5.077l13.762,1.007c0.145,-2.008 0.221,-4.043 0.221,-6.084c-0,-2.987 -0.159,-5.988 -0.476,-8.933l-13.713,1.476c0.255,2.449 0.393,4.939 0.393,7.457Z" style="fill-rule:nonzero;"></path><path d="M415.982,382.678l12.5,5.85c2.124,-4.546 3.842,-9.306 5.104,-14.148l-13.354,-3.47c-1.049,4.029 -2.477,7.988 -4.25,11.768Z" style="fill-rule:nonzero;"></path><rect x="118.936" y="63.751" width="13.796" height="13.796" style="fill-rule:nonzero;"></rect><rect x="91.343" y="63.751" width="13.796" height="13.796" style="fill-rule:nonzero;"></rect><rect x="63.751" y="63.751" width="13.796" height="13.796" style="fill-rule:nonzero;"></rect><path d="M181.019,118.936l-96.574,-0c-11.409,-0 -20.694,9.285 -20.694,20.694l0,55.185c0,11.41 9.285,20.694 20.694,20.694l96.574,0c11.409,0 20.694,-9.284 20.694,-20.694l0,-55.185c0,-11.409 -9.285,-20.694 -20.694,-20.694Zm6.898,75.879c0,3.801 -3.097,6.898 -6.898,6.898l-96.574,0c-3.8,0 -6.898,-3.097 -6.898,-6.898l0,-55.185c0,-3.801 3.098,-6.898 6.898,-6.898l96.574,0c3.801,0 6.898,3.097 6.898,6.898l0,55.185Z" style="fill-rule:nonzero;"></path><path d="M181.019,229.306l-96.574,-0c-11.409,-0 -20.694,9.285 -20.694,20.694l0,55.185c0,11.409 9.285,20.694 20.694,20.694l96.574,0c11.409,0 20.694,-9.285 20.694,-20.694l0,-55.185c0,-11.409 -9.285,-20.694 -20.694,-20.694Zm6.898,75.879c0,3.801 -3.097,6.898 -6.898,6.898l-96.574,-0c-3.8,-0 -6.898,-3.097 -6.898,-6.898l0,-55.185c0,-3.801 3.098,-6.898 6.898,-6.898l96.574,-0c3.801,-0 6.898,3.097 6.898,6.898l0,55.185Z" style="fill-rule:nonzero;"></path><path d="M139.63,171.265l-20.694,-20.694l-32.469,32.469l9.753,9.754l22.716,-22.716l20.694,20.695l39.368,-39.368l-9.754,-9.754l-29.614,29.614Z" style="fill-rule:nonzero;"></path><path d="M160.325,256.898l-13.797,0l0,27.593l-13.796,-0l0,-13.797l-13.796,0l-0,13.797l-13.796,-0l-0,-27.593l-13.797,0l0,41.389l82.778,-0l-0,-13.796l-13.796,-0l-0,-27.593Z" style="fill-rule:nonzero;"></path><rect x="229.306" y="118.936" width="13.796" height="13.796" style="fill-rule:nonzero;"></rect><rect x="256.898" y="118.936" width="179.351" height="13.796" style="fill-rule:nonzero;"></rect><rect x="229.306" y="146.528" width="206.943" height="13.796" style="fill-rule:nonzero;"></rect><rect x="229.306" y="174.121" width="41.389" height="13.796" style="fill-rule:nonzero;"></rect><rect x="284.491" y="174.121" width="151.758" height="13.796" style="fill-rule:nonzero;"></rect><rect x="229.306" y="201.713" width="124.166" height="13.796" style="fill-rule:nonzero;"></rect><rect x="367.268" y="201.713" width="13.796" height="13.796" style="fill-rule:nonzero;"></rect><rect x="422.453" y="201.713" width="13.796" height="13.796" style="fill-rule:nonzero;"></rect><rect x="394.86" y="201.713" width="13.796" height="13.796" style="fill-rule:nonzero;"></rect><g id="bdd-dashboard.svg"></g></svg> 