<?xml version="1.0" encoding="UTF-8" standalone="no"?> <svg xmlns="http://www.w3.org/2000/svg" xmlns:xlink="http://www.w3.org/1999/xlink" xmlns:serif="http://www.serif.com/" width="100%" height="100%" viewBox="0 0 500 500" version="1.1" xml:space="preserve" style="fill-rule:evenodd;clip-rule:evenodd;stroke-linejoin:round;stroke-miterlimit:2;"><path d="M455.719,281.26l-0.622,3.697l-0.746,4.442c-0.294,1.749 -0.798,3.841 -1.276,6.14c-0.47,2.326 -1.052,4.87 -1.802,7.577c-0.714,2.728 -1.455,5.689 -2.474,8.786l-1.497,4.823c-0.546,1.642 -1.177,3.311 -1.789,5.039c-1.177,3.474 -2.669,7.023 -4.201,10.746c-3.192,7.379 -6.932,15.292 -11.643,23.25c-4.672,7.974 -10.013,16.183 -16.297,24.12c-12.498,15.901 -28.154,31.209 -46.068,43.573c-17.866,12.391 -37.696,22.114 -57.32,28.21c-9.803,3.048 -19.484,5.442 -28.807,6.972c-9.318,1.501 -18.224,2.518 -26.476,2.796l-3.062,0.141l-1.508,0.068l-1.756,-0.007l-5.484,-0.026l-5.209,-0.021l-5.326,-0.322c-3.422,-0.259 -6.746,-0.339 -9.615,-0.73l-7.957,-0.979c-2.413,-0.249 -4.536,-0.661 -6.386,-1.003c-1.854,-0.341 -3.429,-0.628 -4.707,-0.859l-3.921,-0.722c-6.081,-1.087 -10.552,-6.427 -10.552,-12.604c-0,-7.024 5.78,-12.804 12.804,-12.804c0.986,-0 1.968,0.114 2.928,0.339l0.73,0.17l3.42,0.8l4.112,0.965c1.619,0.386 3.476,0.852 5.594,1.172l7,1.221c2.563,0.49 5.201,0.643 8.099,1.031l4.472,0.53c3.559,0.194 7.119,0.387 10.678,0.579l0.704,0.04l0.529,0.028l0.09,0.005c0.103,0.005 -0.586,-0.007 -0.254,-0.002l1.348,0.004l2.742,0.007c7.398,0.137 15.407,-0.39 23.845,-1.311c8.442,-0.946 17.257,-2.673 26.257,-4.978c18.005,-4.613 36.496,-12.542 53.477,-23.091c17.017,-10.523 32.228,-23.953 44.627,-38.193c6.233,-7.103 11.606,-14.533 16.368,-21.792c4.801,-7.247 8.685,-14.517 12.053,-21.331c1.619,-3.439 3.203,-6.727 4.476,-9.954c0.659,-1.605 1.339,-3.156 1.935,-4.688l1.645,-4.498c1.118,-2.892 1.961,-5.667 2.768,-8.228c0.769,-2.319 1.454,-4.666 2.052,-7.035c0.556,-2.144 1.118,-3.99 1.5,-5.722l0.967,-4.399l0.805,-3.664c0.446,-2.03 2.26,-3.489 4.338,-3.489c0.322,-0 0.643,0.035 0.958,0.104c2.299,0.507 3.819,2.754 3.434,5.077Z" style="fill:#4ca34b;fill-rule:nonzero;"></path><path d="M224.363,413.902l-68.9,12.947l45.656,53.201l23.244,-66.148Zm-108.557,-3.783l-2.991,-2.386c-1.954,-1.542 -4.813,-3.778 -8.433,-7.045c-2.017,-1.719 -3.972,-3.508 -5.861,-5.366c-2.069,-1.996 -4.354,-4.117 -6.602,-6.569c-2.306,-2.398 -4.742,-4.971 -7.146,-7.833c-2.499,-2.784 -4.933,-5.868 -7.465,-9.102c-4.988,-6.514 -10.13,-13.811 -14.845,-21.987c-4.749,-8.144 -9.348,-17.017 -13.208,-26.599c-4.024,-9.843 -7.324,-19.966 -9.876,-30.289c-2.655,-10.696 -4.443,-21.59 -5.348,-32.574c-0.927,-11.023 -1.01,-22.101 -0.247,-33.137c0.719,-10.733 2.293,-21.392 4.708,-31.875c2.36,-10.203 5.206,-19.98 8.734,-28.95c3.453,-8.991 7.24,-17.316 11.26,-24.72l1.48,-2.754l0.73,-1.356l0.362,-0.673l0.09,-0.167l0.27,-0.454l0.186,-0.306l2.893,-4.79l2.749,-4.549c0.897,-1.478 2.038,-3.027 3.001,-4.465c2.012,-2.874 3.841,-5.703 5.66,-8.066l5.028,-6.454c1.331,-1.751 2.737,-3.444 4.215,-5.074l3.22,-3.67l2.685,-3.055c2.435,-2.804 5.972,-4.417 9.686,-4.417c7.037,0 12.827,5.791 12.827,12.828c0,3.334 -1.3,6.541 -3.622,8.933l-0.523,0.539l-2.49,2.578l-2.999,3.095c-1.38,1.369 -2.695,2.803 -3.942,4.295l-4.733,5.489c-1.711,2 -3.269,4.22 -5.112,6.559c-0.902,1.212 -1.841,2.295 -2.803,3.717l-2.971,4.408l-3.128,4.641l-2.699,4.461c-3.928,6.439 -7.678,13.724 -11.18,21.641c-3.575,7.894 -6.555,16.568 -9.149,25.678c-2.661,9.399 -4.565,18.996 -5.693,28.698c-1.192,10.055 -1.615,20.185 -1.266,30.303c0.339,10.192 1.494,20.381 3.45,30.266c1.899,9.704 4.502,19.257 7.788,28.582c3.154,9.111 7.049,17.615 11.128,25.479c4.042,7.894 8.546,14.995 12.95,21.375c2.241,3.168 4.394,6.205 6.633,8.949c2.139,2.824 4.326,5.373 6.404,7.755c2.017,2.438 4.086,4.554 5.962,6.548c1.687,1.836 3.441,3.609 5.258,5.317c1.638,1.558 2.998,2.975 4.363,4.168l3.446,3.039l2.871,2.53c0.929,0.842 1.459,2.039 1.459,3.293c0,2.439 -2.007,4.446 -4.446,4.446c-0.983,-0 -1.94,-0.327 -2.718,-0.928Z" style="fill:#4ca34b;fill-rule:nonzero;"></path><path d="M115.416,139.084l24.254,-65.777l-69.091,11.874l44.837,53.903Zm50.984,-83.599l3.408,-1.645l4.093,-1.975c1.61,-0.779 3.629,-1.579 5.802,-2.528c2.395,-1.062 4.827,-2.039 7.291,-2.93c2.662,-0.998 5.534,-2.118 8.681,-3.081l4.846,-1.57c1.671,-0.515 3.415,-0.958 5.194,-1.462c3.547,-1.047 7.341,-1.892 11.302,-2.784c7.942,-1.666 16.643,-3.166 25.947,-3.9c9.292,-0.77 19.17,-1.137 29.366,-0.529c20.371,1.11 42.097,5.185 62.663,12.895c10.257,3.805 20.211,8.381 29.776,13.689c9.317,5.138 18.214,11.003 26.608,17.542c8.163,6.378 15.737,13.013 22.329,19.895c6.612,6.856 12.54,13.686 17.506,20.375l1.867,2.467l0.918,1.214l0.228,0.302l0.4,0.579l0.4,0.588l3.112,4.576l2.958,4.347c0.956,1.497 1.881,3.102 2.775,4.58c1.747,2.994 3.561,5.804 4.901,8.414l3.732,7.179c1.168,2.151 2.051,4.147 2.818,5.884c0.777,1.734 1.436,3.21 1.975,4.406l1.638,3.674c0.707,1.618 1.073,3.366 1.073,5.133c-0,7.027 -5.783,12.81 -12.811,12.81c-5.212,0 -9.927,-3.18 -11.879,-8.013l-0.273,-0.699l-1.29,-3.3l-1.546,-3.973c-0.598,-1.57 -1.283,-3.375 -2.226,-5.319l-2.985,-6.52c-1.073,-2.389 -2.438,-4.686 -3.775,-7.312c-0.701,-1.304 -1.344,-2.618 -2.147,-4.035c-0.887,-1.454 -1.803,-2.951 -2.737,-4.488l-2.883,-4.724l-0.37,-0.607l-0.094,-0.151c-0.183,-0.277 0.198,0.295 0.141,0.21l-0.047,-0.071l-0.19,-0.277l-0.768,-1.123l-1.56,-2.286c-4.138,-6.211 -9.146,-12.577 -14.771,-19.033c-5.612,-6.48 -12.131,-12.778 -19.216,-18.914c-14.168,-12.296 -31.411,-23.012 -49.941,-30.976c-18.526,-8.029 -38.442,-12.807 -57.384,-14.795c-9.479,-1.045 -18.731,-1.154 -27.486,-0.869c-8.768,0.25 -17.024,1.259 -24.598,2.455c-3.78,0.659 -7.409,1.276 -10.813,2.102c-1.706,0.393 -3.382,0.727 -4.989,1.137l-4.665,1.263c-3.037,0.761 -5.809,1.693 -8.389,2.514c-2.359,0.72 -4.691,1.524 -6.992,2.41c-2.09,0.793 -3.936,1.405 -5.586,2.104l-4.187,1.77l-3.483,1.474c-0.554,0.238 -1.151,0.361 -1.754,0.361c-2.439,-0 -4.446,-2.008 -4.446,-4.447c-0,-1.711 0.988,-3.277 2.533,-4.013Z" style="fill:#4ca34b;fill-rule:nonzero;"></path><path d="M409.495,169.799l49.676,49.468l18.013,-67.751l-67.689,18.283Z" style="fill:#4ca34b;fill-rule:nonzero;"></path><circle cx="248.916" cy="243.931" r="141.849" style="fill:#dadbdc;"></circle><g><path d="M146.394,208.351c4.326,-0.866 13.086,-1.515 21.303,-1.515c10.059,-0 16.223,0.974 21.522,4.109c5.083,2.704 8.76,7.678 8.76,14.275c-0,6.489 -3.783,12.545 -12.001,15.571l-0,0.217c8.327,2.269 14.491,8.541 14.491,17.951c-0,6.597 -3.029,11.79 -7.572,15.466c-5.298,4.215 -14.166,6.597 -28.658,6.597c-8.11,0 -14.166,-0.541 -17.845,-1.082l0,-71.589Zm16.332,27.903l5.404,-0c8.65,-0 13.303,-3.568 13.303,-8.975c-0,-5.517 -4.218,-8.438 -11.681,-8.438c-3.571,0 -5.623,0.219 -7.026,0.433l-0,16.98Zm-0,32.332c1.619,0.218 3.568,0.218 6.378,0.218c7.461,0 14.059,-2.81 14.059,-10.49c-0,-7.355 -6.598,-10.273 -14.817,-10.273l-5.62,-0l-0,20.545Zm48.986,-60.235c6.056,-0.974 13.95,-1.515 22.277,-1.515c13.842,-0 22.819,2.49 29.847,7.788c7.572,5.623 12.328,14.597 12.328,27.467c0,13.95 -5.079,23.576 -12.112,29.524c-7.679,6.38 -19.361,9.41 -33.633,9.41c-8.544,-0 -14.602,-0.542 -18.711,-1.083l-0,-71.591l0.004,0Zm16.549,59.481c1.405,0.323 3.676,0.323 5.731,0.323c14.924,0.108 24.661,-8.108 24.661,-25.521c0.106,-15.138 -8.762,-23.143 -22.931,-23.143c-3.677,0 -6.059,0.325 -7.461,0.65l-0,47.691Zm58.723,-59.481c6.056,-0.974 13.952,-1.515 22.277,-1.515c13.844,-0 22.819,2.49 29.849,7.788c7.569,5.623 12.328,14.597 12.328,27.467c0,13.95 -5.079,23.576 -12.112,29.524c-7.677,6.38 -19.358,9.41 -33.631,9.41c-8.543,-0 -14.599,-0.542 -18.709,-1.083l0,-71.591l-0.002,0Zm16.544,59.481c1.407,0.323 3.676,0.323 5.733,0.323c14.925,0.108 24.659,-8.108 24.659,-25.521c0.106,-15.138 -8.758,-23.143 -22.929,-23.143c-3.674,0 -6.054,0.325 -7.461,0.65l-0,47.691l-0.002,0Z" style="fill:#4ca34b;fill-rule:nonzero;"></path></g><g id="bdd.svg"></g></svg> 