<?xml version="1.0" encoding="UTF-8" standalone="no"?> <svg xmlns="http://www.w3.org/2000/svg" xmlns:xlink="http://www.w3.org/1999/xlink" xmlns:serif="http://www.serif.com/" width="100%" height="100%" viewBox="0 0 500 500" version="1.1" xml:space="preserve" style="fill-rule:evenodd;clip-rule:evenodd;stroke-miterlimit:10;"><path d="M250,47.786c111.769,-0 202.214,90.445 202.214,202.214c0,111.769 -90.445,202.214 -202.214,202.214c-111.769,0 -202.214,-90.445 -202.214,-202.214c-0,-111.769 90.445,-202.214 202.214,-202.214Z" style="fill:#4a4a4d;stroke:#fff;stroke-width:7.35px;"></path><path d="M357.357,338.974c-7.353,22.795 -18.383,39.708 -33.825,52.208c-15.441,12.501 -36.03,19.119 -61.767,21.325l-5.147,-33.825c16.912,-2.206 29.413,-5.883 37.501,-11.765c2.942,-2.206 8.824,-8.824 8.824,-8.824l-61.032,-195.597l50.738,0l35.295,146.33l37.502,-146.33l49.267,0l-57.356,176.478Z" style="fill:#fff;"></path><path d="M180.144,155.879c11.765,-0 22.795,1.47 31.619,5.147c9.559,3.676 18.383,8.824 27.207,16.177l-20.589,27.942c-5.883,-4.412 -11.765,-7.353 -16.912,-9.559c-5.148,-2.206 -11.766,-2.941 -17.648,-2.941c-25.001,-0 -37.502,19.118 -37.502,58.09c0,19.854 2.942,33.825 9.56,41.914c6.617,8.824 15.441,12.5 27.942,12.5c5.882,0 11.765,-0.735 16.912,-2.941c5.148,-2.206 11.03,-5.147 18.383,-9.559l20.589,29.413c-16.912,13.971 -36.03,20.589 -58.09,20.589c-17.648,-0 -32.354,-3.677 -45.59,-11.03c-12.501,-7.353 -22.795,-18.383 -29.413,-32.354c-6.618,-13.971 -10.295,-30.149 -10.295,-49.267c0,-18.383 3.677,-35.296 10.295,-49.267c6.618,-14.706 16.912,-25.736 29.413,-33.825c12.5,-6.618 27.207,-11.029 44.119,-11.029Z" style="fill:#fff;"></path></svg> 