<?xml version="1.0" encoding="UTF-8" standalone="no"?> <svg xmlns="http://www.w3.org/2000/svg" xmlns:xlink="http://www.w3.org/1999/xlink" xmlns:serif="http://www.serif.com/" width="100%" height="100%" viewBox="0 0 500 500" version="1.1" xml:space="preserve" style="fill-rule:evenodd;clip-rule:evenodd;stroke-linejoin:round;stroke-miterlimit:2;"><path d="M250,441.29l76.472,-235.356l-152.938,-0l76.468,235.356l-0.002,-0Z" style="fill:#e24329;"></path><path d="M250,441.29l-76.472,-235.356l-107.175,-0l183.649,235.354l-0.002,0.002Z" style="fill:#fc6d26;"></path><path d="M66.354,205.934l-23.241,71.521c-2.118,6.525 0.202,13.672 5.753,17.702l201.134,146.133l-183.646,-235.357l-0,0.001Z" style="fill:#fca326;"></path><path d="M66.353,205.934l107.176,-0l-46.061,-141.753c-2.369,-7.294 -12.687,-7.294 -15.055,-0l-46.06,141.753Z" style="fill:#e24329;"></path><path d="M250,441.29l76.472,-235.356l107.175,-0l-183.645,235.354l-0.002,0.002Z" style="fill:#fc6d26;"></path><path d="M433.646,205.934l23.241,71.521c2.118,6.525 -0.202,13.672 -5.753,17.702l-201.134,146.133l183.646,-235.357l0,0.001Z" style="fill:#fca326;"></path><path d="M433.647,205.934l-107.176,-0l46.061,-141.753c2.37,-7.294 12.689,-7.294 15.058,-0l46.057,141.753Z" style="fill:#e24329;"></path></svg> 