<?xml version="1.0" encoding="UTF-8" standalone="no"?> <svg xmlns="http://www.w3.org/2000/svg" xmlns:xlink="http://www.w3.org/1999/xlink" xmlns:serif="http://www.serif.com/" width="100%" height="100%" viewBox="0 0 500 500" version="1.1" xml:space="preserve" style="fill-rule:evenodd;clip-rule:evenodd;stroke-linejoin:round;stroke-miterlimit:2;"><g><g><path d="M94.746,404.798c-5.737,-0.272 -11.299,2.074 -15.108,6.374c-3.925,4.939 -5.898,11.153 -5.54,17.452c-0.406,6.32 1.493,12.578 5.341,17.608c3.866,4.274 9.475,6.563 15.228,6.214c4.696,-0.098 9.357,-0.833 13.856,-2.184l0,5.919c-4.789,1.635 -9.83,2.405 -14.889,2.275c-7.418,0.455 -14.67,-2.396 -19.792,-7.781c-4.646,-5.188 -6.968,-12.56 -6.968,-22.117c-0.121,-5.43 1.028,-10.814 3.356,-15.722c2.109,-4.363 5.485,-7.99 9.687,-10.404c4.557,-2.519 9.704,-3.779 14.909,-3.652c5.506,-0.125 10.968,1.017 15.964,3.336l-2.858,5.797c-4.109,-2.005 -8.614,-3.069 -13.186,-3.115Z" style="fill:#173647;fill-rule:nonzero;"></path><path d="M122.44,414.13l-0,28.234c-0.224,2.857 0.642,5.695 2.423,7.941c2.042,1.908 4.801,2.862 7.585,2.622c3.719,0.328 7.393,-1.045 9.986,-3.731c2.42,-3.58 3.535,-7.886 3.157,-12.19l0,-22.873l6.59,-0l0,43.515l-5.441,0l-0.953,-5.836l-0.355,0c-1.357,2.151 -3.31,3.861 -5.62,4.923c-2.571,1.176 -5.373,1.759 -8.2,1.707c-4.301,0.333 -8.568,-1.02 -11.891,-3.771c-2.919,-3.309 -4.349,-7.677 -3.951,-12.071l0,-28.47l6.67,-0Z" style="fill:#173647;fill-rule:nonzero;"></path><path d="M180.512,458.445c-5.496,0.326 -10.862,-1.806 -14.634,-5.817c-3.713,-4.649 -5.562,-10.52 -5.182,-16.459c-0.391,-6.08 1.484,-12.094 5.262,-16.874c3.857,-4.117 9.358,-6.303 14.989,-5.956c2.109,0.003 4.212,0.23 6.274,0.677c1.701,0.322 3.355,0.855 4.923,1.587l-2.025,5.6c-1.547,-0.61 -3.141,-1.095 -4.767,-1.45c-1.491,-0.354 -3.017,-0.544 -4.55,-0.569c-8.844,0 -13.264,5.639 -13.263,16.917c-0.28,4.344 0.855,8.664 3.234,12.31c2.292,2.921 5.885,4.529 9.591,4.289c3.836,-0.044 7.627,-0.84 11.157,-2.344l0,5.836c-3.437,1.619 -7.212,2.391 -11.009,2.253Z" style="fill:#173647;fill-rule:nonzero;"></path><path d="M205.318,414.13l0,28.234c-0.224,2.857 0.643,5.695 2.424,7.941c2.04,1.908 4.799,2.862 7.582,2.622c3.719,0.327 7.393,-1.046 9.986,-3.731c2.42,-3.58 3.535,-7.886 3.157,-12.19l-0,-22.873l6.59,-0l-0,43.515l-5.441,0l-0.953,-5.836l-0.355,0c-1.357,2.151 -3.31,3.861 -5.62,4.923c-2.57,1.176 -5.372,1.759 -8.197,1.707c-4.303,0.334 -8.57,-1.02 -11.894,-3.771c-2.92,-3.308 -4.35,-7.677 -3.951,-12.071l-0,-28.47l6.672,-0Z" style="fill:#173647;fill-rule:nonzero;"></path><path d="M301.181,457.648l-0,-28.31c0.207,-2.782 -0.581,-5.548 -2.225,-7.802c-1.793,-1.86 -4.333,-2.817 -6.908,-2.602c-3.413,-0.284 -6.773,1.02 -9.101,3.532c-2.203,3.179 -3.241,7.023 -2.938,10.879l-0,24.301l-6.593,-0l-0,-28.311c0.208,-2.781 -0.58,-5.547 -2.221,-7.802c-1.807,-1.865 -4.361,-2.821 -6.949,-2.602c-3.442,-0.291 -6.821,1.091 -9.072,3.712c-2.23,3.646 -3.238,7.911 -2.879,12.17l0,22.833l-6.592,-0l-0,-43.527l5.361,-0l1.069,5.955l0.319,0c1.247,-2.12 3.072,-3.842 5.261,-4.963c2.35,-1.211 4.962,-1.825 7.606,-1.786c6.803,0 11.25,2.465 13.342,7.395l0.315,-0c1.325,-2.303 3.283,-4.179 5.64,-5.404c2.596,-1.357 5.49,-2.042 8.419,-1.991c4.049,-0.315 8.054,1.058 11.058,3.791c2.745,3.416 4.062,7.766 3.675,12.131l-0,28.39l-6.587,0.011Z" style="fill:#173647;fill-rule:nonzero;"></path><path d="M338.453,413.416c5.114,-0.267 10.062,1.908 13.322,5.856c6.33,10.159 6.315,23.091 -0.04,33.234c-3.228,3.976 -8.166,6.182 -13.282,5.936c-2.669,0.033 -5.315,-0.501 -7.762,-1.567c-2.358,-1.061 -4.394,-2.73 -5.895,-4.835l-0.475,-0l-1.391,5.6l-4.724,-0l-0,-61.775l6.59,-0l-0,15.008c-0,3.362 -0.107,6.38 -0.319,9.053l0.319,0c3.127,-4.369 8.294,-6.832 13.657,-6.51Zm-0.953,5.518c-3.673,-0.346 -7.297,1.096 -9.729,3.871c-1.986,2.58 -2.978,6.928 -2.978,13.043c-0,6.115 1.019,10.489 3.057,13.123c2.445,2.81 6.097,4.281 9.807,3.95c3.584,0.229 7.033,-1.459 9.053,-4.428c2.216,-3.859 3.251,-8.286 2.978,-12.728c0.315,-4.426 -0.724,-8.845 -2.978,-12.667c-2.161,-2.861 -5.635,-4.432 -9.21,-4.164Z" style="fill:#173647;fill-rule:nonzero;"></path><path d="M383.8,458.445c-5.677,0.296 -11.22,-1.843 -15.227,-5.876c-3.927,-4.496 -5.932,-10.361 -5.578,-16.32c-0.322,-6.011 1.517,-11.943 5.182,-16.718c3.421,-4.113 8.571,-6.406 13.917,-6.195c4.899,-0.231 9.653,1.745 12.944,5.382c3.311,3.965 5.013,9.034 4.766,14.195l0,4.169l-29.98,0c-0.177,4.22 1.201,8.361 3.871,11.633c2.71,2.758 6.485,4.211 10.344,3.982c4.784,-0.021 9.514,-1.021 13.897,-2.938l-0,5.876c-2.126,0.94 -4.34,1.665 -6.61,2.164c-2.48,0.47 -5.002,0.687 -7.526,0.646Zm-1.786,-39.588c-3.15,-0.141 -6.208,1.107 -8.359,3.413c-2.233,2.659 -3.525,5.982 -3.674,9.451l22.753,0c0.227,-3.41 -0.759,-6.793 -2.782,-9.548c-1.99,-2.271 -4.924,-3.496 -7.938,-3.316Z" style="fill:#173647;fill-rule:nonzero;"></path><path d="M427.933,413.336c1.746,-0.017 3.489,0.143 5.202,0.478l-0.913,6.115c-1.562,-0.368 -3.159,-0.567 -4.764,-0.594c-3.502,-0.009 -6.826,1.569 -9.033,4.289c-2.541,2.966 -3.881,6.779 -3.754,10.682l-0,23.348l-6.59,0l-0,-43.535l5.438,-0l0.754,8.06l0.318,-0c1.412,-2.604 3.41,-4.843 5.836,-6.542c2.209,-1.513 4.829,-2.316 7.506,-2.301Z" style="fill:#173647;fill-rule:nonzero;"></path></g></g><g><path d="M323.659,68.713c-2.629,-1.578 -5.317,-3.054 -8.065,-4.428c-2.808,-1.374 -5.69,-2.711 -8.617,-3.868c-0.926,-0.389 -1.845,-0.747 -2.778,-1.113c-2.561,-0.948 -5.145,-2.001 -7.781,-2.77c-14.813,-4.947 -30.329,-7.469 -45.946,-7.469c-79.582,0 -145.068,65.486 -145.068,145.068c-0,69.368 49.754,129.507 117.894,142.501l-0,41.518c87.188,-13.09 164.401,-81.984 170.158,-172.443c3.428,-54.43 -23.843,-109.994 -69.797,-136.996Z" style="fill:#23d96c;fill-rule:nonzero;"></path><path d="M215.412,387.285l0,-44.319c-68.396,-16.521 -116.977,-78.234 -116.977,-148.598c0,-83.863 69.009,-152.871 152.871,-152.871c16.145,-0 32.187,2.557 47.531,7.577c2.046,0.597 4.16,1.396 6.213,2.173l1.852,0.694c1.232,0.478 2.173,0.844 3.114,1.247c2.599,1.023 5.518,2.337 9.021,4.055c2.932,1.469 5.802,3.044 8.609,4.727c47.739,28.047 77.317,86.009 73.606,144.239c-5.698,89.608 -80.065,165.193 -176.819,179.717l-9.021,1.359Zm35.858,-330.161l-0.209,-0c-0.225,-0.002 -0.451,-0.002 -0.676,-0.002c-75.236,-0 -137.146,61.909 -137.146,137.145c0,65.599 47.065,122.464 111.507,134.728l6.348,1.232l-0,38.681c85.068,-16.608 149.414,-84.172 154.469,-163.7c3.345,-52.517 -23.149,-104.677 -65.937,-129.804l-0.059,-0.038c-2.472,-1.493 -5.011,-2.875 -7.542,-4.144c-3.054,-1.494 -5.616,-2.651 -7.998,-3.592c-0.963,-0.411 -1.762,-0.747 -2.569,-1.03l-2.016,-0.747c-1.844,-0.702 -3.592,-1.367 -5.287,-1.86c-13.841,-4.546 -28.316,-6.864 -42.885,-6.869Z" style="fill-rule:nonzero;"></path><path d="M221.976,120.499c4.447,-0.553 8.888,1.152 11.821,4.54c2.239,2.449 4.075,5.24 5.436,8.266c4.816,10.619 7.669,25.845 1.718,34.387c-12.665,-3.241 -23.435,-11.593 -29.728,-23.051c-1.574,-3.107 -2.458,-6.518 -2.591,-9.999c0.21,-7.383 5.986,-13.505 13.344,-14.143Zm-42.437,59.925c2.856,2.11 5.901,3.952 9.095,5.504c11.705,5.049 25.063,4.672 36.463,-1.031c-4.46,-11.63 -13.491,-20.944 -24.978,-25.762c-3.389,-1.522 -7.053,-2.338 -10.768,-2.397c-0.792,-0.067 -1.589,-0.067 -2.382,-0c-7.027,0.285 -12.652,6.144 -12.652,13.176c0,4.125 1.935,8.019 5.222,10.51Zm45.551,25.636c-5.802,-3.868 -17.765,-2.308 -24.732,-2.181c-4.278,0.061 -8.504,0.954 -12.441,2.629c-3.377,1.194 -6.473,3.07 -9.095,5.511c-2.937,2.575 -4.624,6.296 -4.624,10.202c0,7.444 6.125,13.569 13.568,13.569c0.528,-0 1.054,-0.031 1.578,-0.092c3.724,0.025 7.406,-0.795 10.768,-2.397c10.723,-4.63 23.455,-17.325 24.985,-27.241l-0.007,-0Zm19.49,14.934c-12.427,4.6 -22.468,14.054 -27.809,26.181c-1.513,3.053 -2.332,6.405 -2.397,9.812c-0.002,0.11 -0.004,0.22 -0.004,0.33c0,7.812 6.429,14.24 14.241,14.24c3.943,-0 7.714,-1.638 10.405,-4.519c2.027,-2.86 3.777,-5.905 5.228,-9.095c4.637,-9.954 6.466,-27.779 0.343,-36.949l-0.007,0Zm19.094,-53.518c12.16,-3.571 22.225,-12.186 27.629,-23.649c1.507,-3.14 2.32,-6.569 2.382,-10.051c0.17,-7.624 -5.786,-14.111 -13.396,-14.591c-4.528,-0.495 -9.015,1.303 -11.948,4.786c-2.041,2.857 -3.804,5.903 -5.265,9.095c-4.629,10.709 -6.287,25.987 0.605,34.373l-0.007,0.037Zm31.422,90.467c-0.068,-3.481 -0.885,-6.907 -2.397,-10.044c-4.931,-11.562 -14.606,-20.46 -26.539,-24.411c-5.935,10.836 -6.558,23.825 -1.687,35.179c1.283,3.052 3.048,5.878 5.227,8.371c8.46,9.185 26.173,2.39 25.404,-9.095l-0.008,-0Zm31.363,-46.895c-2.858,-2.024 -5.901,-3.774 -9.088,-5.227c-3.937,-1.674 -8.162,-2.566 -12.44,-2.629c-8.159,-0.68 -16.357,0.747 -23.806,4.145c4.401,11.483 13.372,20.644 24.762,25.284c3.39,1.518 7.053,2.331 10.767,2.39c0.508,0.058 1.018,0.087 1.529,0.087c7.374,-0 13.441,-6.068 13.441,-13.441c0,-4.145 -1.916,-8.064 -5.187,-10.609l0.022,-0Z" style="fill-rule:nonzero;"></path></g></svg> 