<?xml version="1.0" encoding="UTF-8"?> <!-- Generator: Adobe Illustrator 24.3.0, SVG Export Plug-In . SVG Version: 6.00 Build 0) --> <svg xmlns="http://www.w3.org/2000/svg" xmlns:xlink="http://www.w3.org/1999/xlink" version="1.1" id="Layer_5" x="0px" y="0px" viewBox="0 0 512 512" style="enable-background:new 0 0 512 512;" xml:space="preserve"> <style type="text/css"> .st0{fill:#5974C7;} </style> <g> <path class="st0" d="M456,276.2V119.4c27.1-3.9,48-27.2,48-55.4c0-30.9-25.1-56-56-56s-56,25.1-56,56H8v320h240.4 c4.2,66.8,59.7,120,127.6,120c70.6,0,128-57.4,128-128C504,335.7,485.2,299.7,456,276.2z M448,24c22.1,0,40,17.9,40,40 s-17.9,40-40,40s-40-17.9-40-40S425.9,24,448,24z M24,80h370.4c1.9,6.4,5,12.3,8.9,17.5l-48.9,48.9c-3.1-1.5-6.6-2.4-10.3-2.4 s-7.2,0.9-10.3,2.4l-16.1-16.1c1.5-3.1,2.4-6.6,2.4-10.3c0-13.2-10.8-24-24-24s-24,10.8-24,24c0,3.7,0.9,7.2,2.4,10.3l-40.1,40.1 c-3.1-1.5-6.6-2.4-10.3-2.4c-13.2,0-24,10.8-24,24s10.8,24,24,24s24-10.8,24-24c0-3.7-0.9-7.2-2.4-10.3l40.1-40.1 c3.1,1.5,6.6,2.4,10.3,2.4s7.2-0.9,10.3-2.4l16.1,16.1c-1.5,3.1-2.4,6.6-2.4,10.3c0,13.2,10.8,24,24,24s24-10.8,24-24 c0-3.7-0.9-7.2-2.4-10.3l48.9-48.9c7.3,5.5,16,9.2,25.5,10.6v146c-18.9-11-40.7-17.3-64-17.3c-38.2,0-72.5,16.9-96,43.6V256h-48v96 h18.3c-1,5.2-1.6,10.6-1.9,16H24V80z M344,160c4.4,0,8,3.6,8,8s-3.6,8-8,8s-8-3.6-8-8S339.6,160,344,160z M288,120c0-4.4,3.6-8,8-8 s8,3.6,8,8s-3.6,8-8,8S288,124.4,288,120z M232,192c0,4.4-3.6,8-8,8s-8-3.6-8-8s3.6-8,8-8S232,187.6,232,192z M376,440 c-35.3,0-64-28.7-64-64s28.7-64,64-64s64,28.7,64,64S411.3,440,376,440z M264,314.2c-3.8,6.9-7,14.2-9.5,21.8H248v-64h16V314.2z M368,264.4v32c-40.4,4-72,38.2-72,79.6c0,11.7,2.6,22.8,7.1,32.8l-27.8,16c-7.2-14.8-11.4-31.3-11.4-48.9 C264,316.9,310,268.5,368,264.4L368,264.4z M376,488c-38.5,0-72.5-19.5-92.7-49.2l27.9-16.1c14.5,20.1,38.2,33.3,64.8,33.3 s50.3-13.2,64.8-33.3l27.9,16.1C448.5,468.5,414.5,488,376,488z M476.6,424.9l-27.8-16c4.5-10,7.1-21.1,7.1-32.8 c0-41.4-31.6-75.6-72-79.6v-32c58,4.1,104,52.5,104,111.6C488,393.5,483.8,410.1,476.6,424.9L476.6,424.9z"></path> <path class="st0" d="M376,328c-26.5,0-48,21.5-48,48s21.5,48,48,48s48-21.5,48-48S402.5,328,376,328z M376,408 c-17.6,0-32-14.4-32-32s14.4-32,32-32s32,14.4,32,32S393.6,408,376,408z"></path> <path class="st0" d="M40,96h16v16H40V96z"></path> <path class="st0" d="M72,96h112v16H72V96z"></path> <path class="st0" d="M40,128h16v16H40V128z"></path> <path class="st0" d="M72,128h112v16H72V128z"></path> <path class="st0" d="M40,160h16v16H40V160z"></path> <path class="st0" d="M72,160h112v16H72V160z"></path> <path class="st0" d="M40,192h16v16H40V192z"></path> <path class="st0" d="M72,192h112v16H72V192z"></path> <path class="st0" d="M40,352h48v-80H40V352z M56,288h16v48H56V288z"></path> <path class="st0" d="M104,352h48v-64h-48V352z M120,304h16v32h-16V304z"></path> <path class="st0" d="M168,352h48V224h-48V352z M184,240h16v96h-16V240z"></path> </g> </svg> 