<?xml version="1.0" encoding="UTF-8"?> <!-- Generator: Adobe Illustrator 24.3.0, SVG Export Plug-In . SVG Version: 6.00 Build 0) --> <svg xmlns="http://www.w3.org/2000/svg" xmlns:xlink="http://www.w3.org/1999/xlink" version="1.1" id="Capa_1" x="0px" y="0px" viewBox="0 0 512 512" style="enable-background:new 0 0 512 512;" xml:space="preserve"> <style type="text/css"> .st0{fill:#5974C7;} </style> <g> <path class="st0" d="M512,324.2V42.7c0-18.8-15.3-34.1-34.1-34.1H34.1C15.3,8.5,0,23.9,0,42.7v281.6v42.7 c0,18.8,15.3,34.1,34.1,34.1h170.4c-2,34-16.2,51.2-42.4,51.2h-17.1c-14.1,0-25.6,11.5-25.6,25.6s11.5,25.6,25.6,25.6h221.9 c14.1,0,25.6-11.5,25.6-25.6s-11.5-25.6-25.6-25.6h-17.1c-26.2,0-40.4-17.2-42.4-51.2h170.4c18.8,0,34.1-15.3,34.1-34.1L512,324.2 C512,324.3,512,324.3,512,324.2z M366.9,469.3c4.7,0,8.5,3.8,8.5,8.5c0,4.7-3.8,8.5-8.5,8.5H145.1c-4.7,0-8.5-3.8-8.5-8.5 c0-4.7,3.8-8.5,8.5-8.5H366.9z M203.7,452.3c10.5-11.6,16.7-29,17.9-51.2h68.7c1.2,22.2,7.4,39.6,17.9,51.2H203.7z M17.1,42.7 c0-9.4,7.7-17.1,17.1-17.1h443.7c9.4,0,17.1,7.7,17.1,17.1v273.1h-17.1V51.2c0-4.7-3.8-8.5-8.5-8.5H42.7c-4.7,0-8.5,3.8-8.5,8.5 v264.5H17.1V42.7z M460.8,315.7L460.8,315.7H51.2v-256h409.6V315.7z M494.9,366.9L494.9,366.9c0,9.4-7.7,17.1-17.1,17.1H34.1 c-9.4,0-17.1-7.7-17.1-17.1v-34.1h25.6h426.7h25.6V366.9z"></path> <path class="st0" d="M281.6,349.9h-51.2c-4.7,0-8.5,3.8-8.5,8.5c0,4.7,3.8,8.5,8.5,8.5h51.2c4.7,0,8.5-3.8,8.5-8.5 C290.1,353.7,286.3,349.9,281.6,349.9z"></path> <path class="st0" d="M221.9,170.7h-68.3c-4.7,0-8.5,3.8-8.5,8.5v34.1c0,4.7,3.8,8.5,8.5,8.5h68.3c4.7,0,8.5-3.8,8.5-8.5v-34.1 C230.4,174.5,226.6,170.7,221.9,170.7z M213.3,204.8h-51.2v-17.1h51.2V204.8z"></path> <path class="st0" d="M119.5,256h196.8l8.4,28c0.9,2.9,3.2,5.1,6.1,5.8c2.9,0.7,6-0.1,8.1-2.2l12.1-12.1l20.6,20.6 c1.6,1.6,3.8,2.5,6,2.5s4.4-0.9,6-2.5l24.1-24.1c3.3-3.3,3.3-8.7,0-12.1l-20.6-20.6l11.5-11.5c2.1-2.1,3-5.2,2.2-8.1 s-2.9-5.2-5.8-6.1l-28.1-8.4V85.3c0-3.2-1.8-6.1-4.5-7.5c-1.2-0.7-2.6-1-4.1-1H119.5c-4.7,0-8.5,3.8-8.5,8.5V128v119.5 C110.9,252.2,114.8,256,119.5,256z M369.9,246.2l19.8,19.8l-12.1,12.1l-18.8-18.8c-2.2-2.2-5-3.3-7.9-3.3c-2.9,0-5.7,1.1-7.9,3.3 l-6.2,6.2l-12.3-41L320,209l2.3,0.7l33.7,10.1c0,0,0,0,0.1,0l20.4,6.1l-6.6,6.6c-1.8,1.8-2.8,4.2-2.8,6.8 C367,241.9,368,244.4,369.9,246.2z M309.7,188.1c-0.8-0.2-1.5-0.3-2.3-0.4c-2.3,0-4.5,0.8-6.2,2.5c-2.2,2.2-3,5.5-2.1,8.5 l12.1,40.2H128V136.5h221.9v63.6L309.7,188.1z M128,93.9h221.9v25.6H128V93.9z"></path> </g> </svg> 