<?xml version="1.0" encoding="UTF-8"?> <!-- Generator: Adobe Illustrator 24.3.0, SVG Export Plug-In . SVG Version: 6.00 Build 0) --> <svg xmlns="http://www.w3.org/2000/svg" xmlns:xlink="http://www.w3.org/1999/xlink" version="1.1" id="Capa_1" x="0px" y="0px" viewBox="0 0 512 512" style="enable-background:new 0 0 512 512;" xml:space="preserve"> <style type="text/css"> .st0{fill:#5974C7;} </style> <g> <g> <path class="st0" d="M256.3,232.3c-9.4,0-17.1,7.6-17.1,17.1c0,6.8,4,12.7,9.8,15.4v20.7c0,4,3.3,7.3,7.3,7.3s7.3-3.3,7.3-7.3 v-20.7c5.8-2.7,9.8-8.6,9.8-15.4C273.3,239.9,265.7,232.3,256.3,232.3z"></path> </g> </g> <g> <g> <path class="st0" d="M438.1,111.1c-31.4-12.4-56.3-35.3-70.1-64.4c-3.8-7.9-11.9-13-20.7-13H164.7c-8.8,0-17,5.1-20.7,13 c-13.8,29.1-38.7,52-70.1,64.4c-8.8,3.5-14.5,11.9-14.5,21.4v44.4c0,58.2,17,115.7,49.1,166.3c32.4,51.1,79.4,93.8,135.9,123.5 l0.9,0.5c3.4,1.8,7,2.6,10.7,2.6c3.7,0,7.4-0.9,10.7-2.6l0.9-0.5c56.5-29.7,103.5-72.4,135.9-123.5 c32.1-50.6,49.1-108.1,49.1-166.3v-44.4C452.6,123,446.9,114.6,438.1,111.1z M438,176.9c0,55.4-16.2,110.3-46.8,158.5 c-31.1,48.9-76.2,89.9-130.4,118.4l-0.9,0.5c-2.5,1.3-5.4,1.3-7.9,0l-0.9-0.5c-54.2-28.5-99.3-69.4-130.4-118.4 C90.1,287.2,74,232.4,74,176.9v-44.4c0-3.5,2.1-6.6,5.3-7.8c34.8-13.8,62.5-39.2,77.9-71.7c1.4-2.9,4.3-4.7,7.6-4.7h182.6 c3.2,0,6.2,1.8,7.6,4.7c15.4,32.4,43.1,57.9,77.9,71.7c3.2,1.3,5.3,4.3,5.3,7.8V176.9z"></path> </g> </g> <g> <g> <path class="st0" d="M474.7,246.1c-3.9-0.9-7.8,1.6-8.7,5.5c-22.2,98.2-89.8,183.3-185.4,233.6l-22.2,11.7c-1.4,0.8-3.1,0.8-4.6,0 l-22.2-11.7C135.7,434.8,68.1,349.5,46,251.2c-0.9-3.9-4.8-6.4-8.7-5.5c-3.9,0.9-6.4,4.8-5.5,8.7c23,102.5,93.4,191.4,193,243.7 l22.2,11.7c2.8,1.5,6,2.2,9.1,2.2c3.1,0,6.2-0.7,9.1-2.2l22.2-11.7c99.4-52.3,169.7-140.9,192.9-243.3 C481.1,250.9,478.6,247,474.7,246.1z"></path> </g> </g> <g> <g> <path class="st0" d="M471.1,83.4C432.2,79.3,401.6,52,396.7,17c-1.4-9.7-9.7-17-19.3-17H134.6c-9.7,0-18,7.3-19.3,17 c-4.9,35-35.5,62.3-74.4,66.4c-9.9,1-17.3,9.4-17.3,19.4V181c0,11.4,0.6,22.9,1.8,34.2c0.4,3.8,3.5,6.5,7.2,6.5c0.2,0,0.5,0,0.8,0 c4-0.4,6.9-4,6.5-8c-1.1-10.8-1.7-21.8-1.7-32.7v-78.2c0-2.5,1.9-4.6,4.2-4.9C88,93.1,123.9,60.6,129.7,19 c0.4-2.6,2.4-4.4,4.9-4.4h242.8c2.5,0,4.5,1.9,4.9,4.4c5.8,41.6,41.7,74.1,87.3,78.9c2.4,0.3,4.2,2.4,4.2,4.9V181 c0,10.8-0.6,21.6-1.6,32.3c-0.4,4,2.5,7.6,6.5,8c4,0.4,7.6-2.5,8-6.5c1.1-11.2,1.7-22.6,1.7-33.8v-78.2 C488.4,92.7,481,84.4,471.1,83.4z"></path> </g> </g> <g> <g> <path class="st0" d="M339.5,181.9h-12v-34.8c0-39.3-31.9-71.2-71.2-71.2c-39.3,0-71.2,31.9-71.2,71.2v34.8h-12 c-12.8,0-23.2,10.4-23.2,23.2v104.3c0,12.8,10.4,23.2,23.2,23.2h166.4c12.8,0,23.2-10.4,23.2-23.2V205 C362.6,192.3,352.2,181.9,339.5,181.9z M199.7,147.1c0-31.2,25.4-56.6,56.6-56.6s56.6,25.4,56.6,56.6v34.8H199.7V147.1z M348.1,309.4c0,4.7-3.9,8.6-8.6,8.6H173.1c-4.7,0-8.6-3.9-8.6-8.6V205c0-4.7,3.9-8.6,8.6-8.6h166.4c4.7,0,8.6,3.9,8.6,8.6V309.4z "></path> </g> </g> </svg> 