<?xml version="1.0" encoding="UTF-8"?> <!-- Generator: Adobe Illustrator 24.3.0, SVG Export Plug-In . SVG Version: 6.00 Build 0) --> <svg xmlns="http://www.w3.org/2000/svg" xmlns:xlink="http://www.w3.org/1999/xlink" version="1.1" id="Capa_1" x="0px" y="0px" viewBox="0 0 512 512" style="enable-background:new 0 0 512 512;" xml:space="preserve"> <style type="text/css"> .st0{fill:#5974C7;} </style> <g> <path class="st0" d="M386.4,165.9c0-10.2-8.3-18.5-18.5-18.5h-1.2c-1.6,0-3-1.1-3.4-2.7c-2.1-7.6-5.1-15.1-8.8-22.1 c-0.8-1.4-0.5-3.1,0.6-4.2l0.6-0.6c7.2-7.2,7.2-18.9,0-26.2l-14.8-14.8c-7.2-7.2-18.9-7.2-26.2,0l-0.1,0.1 c-1.1,1.1-2.9,1.3-4.3,0.5c-7.2-4-14.9-7.2-22.8-9.6c-1.4-0.4-2.4-1.8-2.4-3.4c0-10.2-8.3-18.5-18.5-18.5h-20.9 c-10.2,0-18.5,8.3-18.5,18.5c0,1.5-1,2.9-2.4,3.3c-7.9,2.3-15.6,5.5-22.8,9.6c-1.5,0.8-3.2,0.6-4.3-0.5l-0.1-0.1 c-7.2-7.2-18.9-7.2-26.2,0l-14.8,14.8c-7.2,7.2-7.2,18.9,0,26.2l0.6,0.6c1.1,1.1,1.3,2.8,0.6,4.2c-3.7,7-6.7,14.5-8.8,22.1 c-0.5,1.6-1.8,2.7-3.4,2.7h-1.2c-10.2,0-18.5,8.3-18.5,18.5v20.9c0,10.2,8.3,18.5,18.5,18.5h2.2c1.5,0,2.9,1,3.4,2.6 c2.3,7.3,5.4,14.5,9.1,21.2c0.7,1.3,0.5,3-0.6,4.1l-1.8,1.8c-7.2,7.2-7.2,18.9,0,26.2l14.8,14.8c7.2,7.2,18.9,7.2,26.2,0l2.3-2.3 c1.1-1.1,2.7-1.4,4-0.7c6.7,3.6,13.7,6.4,20.9,8.5c1.4,0.4,2.4,1.8,2.4,3.4v3.3c0,10.2,8.3,18.5,18.5,18.5h20.9 c10.2,0,18.5-8.3,18.5-18.5v-3.3c0-1.6,1-3,2.4-3.4c7.2-2.1,14.3-5,20.9-8.5c1.3-0.7,2.9-0.4,4,0.7l2.3,2.3 c7.2,7.2,18.9,7.2,26.2,0l14.8-14.8c7.2-7.2,7.2-18.9,0-26.2l-1.8-1.8c-1.1-1.1-1.4-2.8-0.6-4.1c3.8-6.7,6.9-13.9,9.1-21.2 c0.5-1.5,1.8-2.6,3.4-2.6h2.2c10.2,0,18.5-8.3,18.5-18.5L386.4,165.9L386.4,165.9z M371.4,186.8c0,1.9-1.6,3.5-3.5,3.5h-2.2 c-8.1,0-15.2,5.3-17.7,13.1c-2,6.3-4.6,12.5-7.9,18.3c-4,7.1-2.7,16.2,3.1,22l1.8,1.8c1.4,1.4,1.4,3.6,0,5l-14.8,14.8 c-1.4,1.4-3.6,1.4-5,0l-2.3-2.3c-5.7-5.7-14.6-7.1-21.7-3.3c-5.8,3.1-11.8,5.6-18.1,7.4c-7.8,2.3-13.2,9.6-13.2,17.8v3.3 c0,1.9-1.6,3.5-3.5,3.5h-20.9c-1.9,0-3.5-1.6-3.5-3.5v-3.3c0-8.2-5.4-15.5-13.2-17.8c-6.2-1.8-12.3-4.3-18.1-7.4 c-2.7-1.4-5.6-2.1-8.5-2.1c-4.8,0-9.6,1.9-13.1,5.4l-2.3,2.3c-1.4,1.4-3.6,1.4-4.9,0L167,250.6c-1.4-1.4-1.4-3.6,0-5l1.8-1.8 c5.8-5.8,7.1-14.9,3.1-22c-3.3-5.8-5.9-12-7.9-18.3c-2.4-7.8-9.6-13.1-17.7-13.1h-2.2c-1.9,0-3.5-1.6-3.5-3.5v-20.9 c0-1.9,1.6-3.5,3.5-3.5h1.2c8.3,0,15.6-5.6,17.9-13.7c1.8-6.6,4.4-13,7.6-19.1c3.9-7.3,2.6-16.1-3.2-21.9l-0.6-0.6 c-1.4-1.4-1.4-3.6,0-5l14.8-14.8c0.9-0.9,1.9-1,2.5-1s1.6,0.1,2.5,1l0.1,0.1c5.8,5.8,15,7.1,22.2,3c6.2-3.5,12.9-6.3,19.7-8.3 c7.8-2.3,13.2-9.6,13.2-17.8c0-1.9,1.6-3.5,3.5-3.5h20.9c1.9,0,3.5,1.6,3.5,3.5c0,8.2,5.4,15.4,13.2,17.7c6.8,2,13.5,4.8,19.7,8.3 c7.3,4.1,16.4,2.8,22.2-3l0.1-0.1c1.4-1.4,3.6-1.4,5,0l14.8,14.8c1.4,1.4,1.4,3.6,0,5l-0.6,0.6c-5.8,5.8-7.1,14.6-3.2,21.9 c3.2,6.1,5.8,12.5,7.6,19.1c2.2,8,9.6,13.7,17.9,13.7h1.2c1.9,0,3.5,1.6,3.5,3.5L371.4,186.8L371.4,186.8z"></path> <path class="st0" d="M256,96.3c-43.2,0-78.4,35.2-78.4,78.4c0,43.3,35.3,78.4,78.4,78.4c43.1,0,78.4-35.1,78.4-78.4 C334.4,131.4,299.2,96.3,256,96.3z M256,238.1c-17.7,0-33.8-7.3-45.3-19.1c6.9-10.8,17.4-18.7,29.7-22.4c4.7,2.5,10,3.9,15.6,3.9 c5.6,0,11-1.4,15.6-3.9c12.2,3.7,22.7,11.7,29.7,22.4C289.8,230.8,273.7,238.1,256,238.1L256,238.1z M237.3,166.8 c0-10.3,8.4-18.7,18.7-18.7c10.3,0,18.7,8.4,18.7,18.7c0,10.3-8.4,18.7-18.7,18.7S237.3,177.1,237.3,166.8z M310.8,206.5 c-7-9.2-16.2-16.5-26.7-21.2c3.5-5.3,5.6-11.7,5.6-18.6c0-18.6-15.1-33.7-33.7-33.7s-33.7,15.1-33.7,33.7c0,6.9,2.1,13.2,5.6,18.6 c-10.5,4.7-19.7,12-26.7,21.2c-5.5-9.4-8.6-20.2-8.6-31.8c0-35,28.5-63.4,63.4-63.4s63.4,28.5,63.4,63.4 C319.4,186.3,316.3,197.2,310.8,206.5L310.8,206.5z"></path> <path class="st0" d="M381.3,51.6C347.4,18,302.4-0.3,254.7,0c-40.2,0.3-78.1,13.8-109.6,39.1c-3.2,2.6-3.7,7.3-1.2,10.5 c2.6,3.2,7.3,3.7,10.5,1.2C183.3,27.6,218,15.3,254.8,15c43.7-0.3,84.9,16.5,115.9,47.3c31,30.8,48.1,71.8,48.1,115.5 c0,37.4-12.3,72.6-35.7,101.7c-2.6,3.2-2.1,8,1.2,10.5c1.4,1.1,3,1.6,4.7,1.6c2.2,0,4.4-1,5.9-2.8c25.1-31.4,38.9-70.8,38.9-111.1 C433.8,130.1,415.1,85.3,381.3,51.6L381.3,51.6z"></path> <path class="st0" d="M370.9,305.2c-3.3-2.4-8-1.7-10.5,1.6c-10.3,14-18.9,29.1-25.8,44.9H177.4c-10.2-23.6-24.1-45.1-41.5-64 c-27.4-29.9-42.6-68.7-42.7-109.2c-0.2-37.9,13.1-74.9,37.4-104.2c2.6-3.2,2.2-7.9-1-10.6c-3.2-2.6-7.9-2.2-10.6,1 c-26.5,32-41,72.5-40.8,113.8c0.2,44.3,16.8,86.6,46.7,119.3c15.6,17,28.3,36.3,37.7,57.4c-7.7,4.5-12.9,12.9-12.9,22.4 c0,7.2,2.9,13.7,7.7,18.4c-4.7,4.7-7.7,11.2-7.7,18.4s2.9,13.7,7.7,18.4c-4.7,4.7-7.7,11.2-7.7,18.4c0,14.3,11.6,25.9,25.9,25.9 h0.5v2.1c0,18,14.7,32.7,32.7,32.7h94.6c18,0,32.7-14.7,32.7-32.7v-2.1h0.5c14.3,0,25.9-11.6,25.9-25.9c0-7.2-2.9-13.7-7.7-18.4 c4.7-4.7,7.7-11.2,7.7-18.4s-2.9-13.7-7.7-18.4c4.7-4.7,7.7-11.2,7.7-18.4c0-9.5-5.2-17.9-12.9-22.4c6.3-13.9,14-27.2,23-39.6 C375,312.3,374.3,307.7,370.9,305.2L370.9,305.2z M321,479.3c0,9.8-7.9,17.7-17.7,17.7h-94.6c-9.8,0-17.7-7.9-17.7-17.7v-2.1h130 L321,479.3L321,479.3z M223.2,440.4h113.3c6,0,10.9,4.9,10.9,10.9s-4.9,10.9-10.9,10.9H175.5c-6,0-10.9-4.9-10.9-10.9 s4.9-10.9,10.9-10.9h12.6c4.1,0,7.5-3.4,7.5-7.5s-3.4-7.5-7.5-7.5h-12.6c-6,0-10.9-4.9-10.9-10.9s4.9-10.9,10.9-10.9h160.9 c6,0,10.9,4.9,10.9,10.9s-4.9,10.9-10.9,10.9H223.2c-4.1,0-7.5,3.4-7.5,7.5S219,440.4,223.2,440.4z M336.5,388.6H175.5 c-6,0-10.9-4.9-10.9-10.9c0-5.3,3.8-9.8,8.9-10.7c0.2,0,0.3,0,0.5-0.1c0.5-0.1,1-0.1,1.5-0.1h160.9c0.5,0,1.1,0.1,1.6,0.1 c0.2,0,0.3,0.1,0.5,0.1c5,1,8.8,5.4,8.8,10.7C347.4,383.7,342.5,388.6,336.5,388.6L336.5,388.6z"></path> </g> </svg> 