<?xml version="1.0" encoding="UTF-8"?> <!-- Generator: Adobe Illustrator 24.3.0, SVG Export Plug-In . SVG Version: 6.00 Build 0) --> <svg xmlns="http://www.w3.org/2000/svg" xmlns:xlink="http://www.w3.org/1999/xlink" version="1.1" id="Camada_1" x="0px" y="0px" viewBox="0 0 200 200" style="enable-background:new 0 0 200 200;" xml:space="preserve"> <style type="text/css"> .st0{fill:#044F9E;} .st1{fill:#E30613;} .st2{fill:#0D4F9E;} .st3{fill:#FFFFFF;} .st4{fill:#B42026;} .st5{fill:#421613;} .st6{fill:#FFD30F;} .st7{fill:#020203;} .st8{fill:#4887C7;} .st9{clip-path:url(#SVGID_2_);fill:#1867A7;} .st10{fill:#1867A7;} .st11{fill:#231F20;} .st12{fill:#EDAD0B;} .st13{fill-rule:evenodd;clip-rule:evenodd;fill:#231F20;} .st14{fill:#1683C4;} .st15{fill:#9E1925;} .st16{fill:#1C3257;} </style> <g> <path id="path4285" class="st14" d="M5.9,76.6v46.7l188.1,0.1V76.6C194.1,76.6,5.9,76.6,5.9,76.6z"></path> <g id="g4569" transform="matrix(0.3252242,0,0,0.3252242,-43.834705,846.12303)"> <path id="path4287" class="st3" d="M384.3-2331.7l-32.4,48c-3.4,5.1-9.3,8.1-15.5,8.1c-10.1,0-18.4-8.3-18.4-18.3 c0-10.1,8.3-18.4,18.5-18.4c1-0.1,2.4-0.3,3.3-0.3c7,0,14.1,2.9,19,7.9l9.7-14.7c-7.5-7.7-18.7-12.7-29.8-12.7 c-20.8,0-39.9,17.2-39.9,38c0,20.7,17.1,37.6,37.9,37.6c10.1,0,20.2-4.3,27.2-11.3h22.3l0.1,11.3h19.4v-75.3H384.3L384.3-2331.7z M375.5-2284.3l10.6-14.8l0.1,14.8H375.5L375.5-2284.3z"></path> <path id="path4289" class="st3" d="M442.7-2256.4h-19.4v-57.7h-15.1v-17.5l49.5-0.1v17.6h-15.1L442.7-2256.4L442.7-2256.4z"></path> <path id="path4291" class="st3" d="M522.3-2331.7l-19.4,0l-0.1,28.1h-22.9l-0.1-28.1h-19.3v75.3h19.5v-29.7h23v29.7h19.4 L522.3-2331.7L522.3-2331.7z"></path> <path id="path4293" class="st3" d="M677.4-2331.7v35l-26.6-35l-17.6,0.1l-0.1,27.5c-4.4-16-19.6-27.6-36.6-27.6 c-20.8,0-37.9,16.9-37.9,37.7c0,6.7,2,13.5,5.2,19.3h-19.2v-57h-19.7v75.3H570v-10.5c7.1,6.5,16.8,10.5,26.5,10.5 c16.9,0,31.9-11.3,36.6-27.3l0.1,27.3h19.5v-36.6l26.5,36.6h17.6l0-75.3H677.4L677.4-2331.7z M596.5-2274.8 c-10.6,0-19.4-8.5-19.4-19.2c0-10.5,8.7-19.2,19.4-19.2c10.8,0,19.5,8.7,19.5,19.2C616-2283.3,607.2-2274.8,596.5-2274.8"></path> <path id="path4295" class="st3" d="M275.3-2274.6v-10.5H296l0-18.4h-20.7v-9.6h22.9l0-18.5l-44.1,0.1v25.9 c-4.6-14.1-17.8-24.5-32.8-25.9l-33.5-0.1v75.3h33.6c14.9-1.3,28.1-11.7,32.7-25.7v25.7h44.1l0-18.3H275.3L275.3-2274.6z M232.7-2282.5c-1.2,5.1-6,8.7-11.3,8.8H209v-40.4h12.4c5.2,0,10.1,3.7,11.3,8.9c1.2,3.5,1.9,7.5,1.9,11.2 C234.5-2290.1,233.9-2286.1,232.7-2282.5"></path> </g> </g> </svg> 